<svg xmlns="http://www.w3.org/2000/svg" xmlns:xlink="http://www.w3.org/1999/xlink" width="237.291" height="200.746" viewBox="0 0 237.291 200.746"><defs><style>.a,.i,.n{fill:none;}.b,.m{fill:#fff;}.c{fill:#f39684;}.d{fill:#606060;}.e{fill:#e9e8ef;}.f{fill:#e897a3;}.g{fill:#8057a7;}.h{clip-path:url(#a);}.i{stroke:#fff;}.i,.m{stroke-miterlimit:10;}.i,.m,.n{stroke-width:0.25px;}.j{fill:#ffc529;}.k{fill:#d63c30;}.l{clip-path:url(#b);}.m{stroke:#45a0d4;}.n{stroke:#600;stroke-linejoin:round;}.o{fill:#45a0d4;}</style><clipPath id="a"><path class="a" d="M161.707,73.411c-5.035-1.618-9.334-3-13.073-4.178-2.472,2.624-12.578,12.806-15.818,7.483-1.987-3.262.773-8.873,2.291-11.494a59.655,59.655,0,0,0-11.183-2,28.36,28.36,0,0,1-14.875-5.482l-17.588,8.8s.606,1.89,1.747,5.187a37.392,37.392,0,0,0,9.99,14.686S92.9,120.669,92.864,137.1l81.729-4.87A264.077,264.077,0,0,1,174,99.591s8.132-1.388,17.057-3.372a28.513,28.513,0,0,0,6.854-2.472L191.1,78.188C184.839,78.5,174.9,77.651,161.707,73.411Z" transform="translate(-91.461 -57.736)"/></clipPath><clipPath id="b"><path class="a" d="M84.882,111.363c-7.821,2-23.105,3.1-32.835.784l-.774.2-10.11,13.6s19.922,3.218,39.026-.881c25.893-5.555,43.28-17.174,43.28-17.174l-7.762-12.213C112.255,99.282,103.347,106.638,84.882,111.363Z" transform="translate(-41.162 -95.679)"/></clipPath></defs><g transform="translate(-23.834 -26.309)"><path class="b" d="M81.89,52.538c-3.967,7.81-9.016,6.977-29.249,15.058s-24.422,39.761-15.473,56.74c10.313,19.57-.771,22.118,5.023,37.347s33.173,29.641,58.238,26.03,71.607-34,97.523-26.739,32.367-8.6,38.753-29.92c8.054-26.891-17.155-64.6-35.58-73.241-28.3-13.273-32.192,1.469-53.329-18.628C136.464,28.41,94.989,26.755,81.89,52.538Z" transform="translate(5.204 3.158)"/><path class="c" d="M129.493,145.15v3.173l-33.044,1.453s4.254-4.754,8.931-5.617S129.493,145.15,129.493,145.15Z" transform="translate(42.602 68.949)"/><path class="d" d="M96.168,150h34.207a3.255,3.255,0,0,0,.528-1.322,6.785,6.785,0,0,0-.992-1.983l-32.76,1.154s-1.171.3-1.295.673C95.459,149.718,96.168,150,96.168,150Z" transform="translate(42.184 70.573)"/><path class="c" d="M153.639,146.92s-1.453,5.788-1.587,7.257-3.305-.514-4.892,1.469a7.176,7.176,0,0,0-1.718,3.305l10.048-.793,15.47-24.725s-1.983-1.852-3.57-1.983S153.639,146.92,153.639,146.92Z" transform="translate(71.346 61.625)"/><path class="d" d="M173.264,134.114l-14.867,24.5-14.413,1.058s.265-1.125.86-1.455,1.983-.86,1.983-.86l9.453-.33L171.817,132.7Z" transform="translate(70.49 62.359)"/><path class="e" d="M92.244,124.8c-.608,13.619,8.008,29.955,12.7,37.773.473.789-.973,1.171-.179,2.956.77,1.731,1.61,2.06,1.61,2.06l25.608,3.226s3.173,0,.132-13.487c-1.5-6.67,2.45-20.944,2.45-20.944s1.715,5.871,8.657,12.019c5.025,4.451,24.059,12.181,34.188,16.111,1.282.5,1.647,2.648,2.405,3.326,2.28,2.036,3.57,1.341,3.57,1.341l15.6-21.976a148.291,148.291,0,0,1-19.27-20.817c-3.072-4.168-4.711-12.655-5.56-21.706l-81.729,4.87C92.42,110.216,92.27,124.244,92.244,124.8Z" transform="translate(40.118 45.924)"/><path class="f" d="M167.528,77.789c-.793,0,2.115-3.538,1.917-5.636s-2.136.208-2.532-.265.973-1.96.179-3.745-3,1.676-5.336,2.691a20.971,20.971,0,0,1-7.5,1.544l6.816,15.559c4.808-2.469,7.718-5.725,8.427-7.335C170.5,78.331,168.321,77.789,167.528,77.789Z" transform="translate(76.518 24.19)"/><path class="g" d="M161.707,73.411c-5.035-1.618-9.334-3-13.073-4.178-2.472,2.624-12.578,12.806-15.818,7.483-1.987-3.262.773-8.873,2.291-11.494a59.655,59.655,0,0,0-11.183-2,28.36,28.36,0,0,1-14.875-5.482l-17.588,8.8s.606,1.89,1.747,5.187a37.392,37.392,0,0,0,9.99,14.686S92.9,120.669,92.864,137.1l81.729-4.87A264.077,264.077,0,0,1,174,99.591s8.132-1.388,17.057-3.372a28.513,28.513,0,0,0,6.854-2.472L191.1,78.188C184.839,78.5,174.9,77.651,161.707,73.411Z" transform="translate(39.676 18.379)"/><path class="f" d="M126.724,56.616s-4.363-.2-5.355,3.372.1,5.29,2.282,6.612,5.85.473,7.437-2.723S130.1,56.814,126.724,56.616Z" transform="translate(57.006 17.721)"/><path class="f" d="M122.575,61.553s-1.785,3.768-.793,5.752a3.773,3.773,0,0,0,5.553,1.09c1.487-1.388,0-5.652,0-5.652Z" transform="translate(57.289 20.619)"/><path class="f" d="M91.316,50.662c1.169-.5,1.49,2.067,2.148.809.724-1.384,2.4-3.421,3.27-2.331s.424,1.687,1.312,1.576c2.215-.276,2.426-2.788,3.648-2.653,2.182.243,1.307,4.352,3.075,8.812,2.082,5.257,4.165,7.042,4.165,7.042l-15.57,7.7A60.614,60.614,0,0,1,90.3,53.637C90.3,51.719,90.3,51.09,91.316,50.662Z" transform="translate(38.997 12.701)"/><path class="f" d="M117.782,73.948c3.24,5.323,13.346-4.858,15.818-7.483-5.077-1.6-9.111-2.826-12.487-3.738-.359-.1-.695-.182-1.039-.273C118.554,65.075,115.795,70.686,117.782,73.948Z" transform="translate(54.711 21.147)"/><path class="g" d="M132.6,63.134c-.171-2.22-1.468-6.179-4.038-7.933-2.259-1.545-5.108-1.918-5.766-.332s-2.577-2.313-3.37-.33,1.342,2.31,2.174,3.524-2.317,1.963.433,2.1,5-1.19,6.913-.067.463,2.843,1.587,3.042.52,1.45.549,2.028.716.914.716.914A4.2,4.2,0,0,0,132.6,63.134Z" transform="translate(55.979 16.096)"/><g transform="translate(131.137 76.115)"><g class="h"><g transform="translate(-33.552 -24.571)"><rect class="i" width="4.279" height="4.279" transform="matrix(0.973, -0.232, 0.232, 0.973, 143.488, 47.021)"/><rect class="i" width="4.279" height="4.279" transform="matrix(0.973, -0.232, 0.232, 0.973, 137.122, 57.375)"/><rect class="i" width="4.279" height="4.279" transform="matrix(0.973, -0.232, 0.232, 0.973, 130.756, 67.729)"/><rect class="i" width="4.279" height="4.279" transform="matrix(0.973, -0.232, 0.232, 0.973, 124.39, 78.083)"/><rect class="i" width="4.279" height="4.279" transform="matrix(0.973, -0.232, 0.232, 0.973, 118.024, 88.437)"/><rect class="i" width="4.279" height="4.279" transform="matrix(0.973, -0.232, 0.232, 0.973, 111.657, 98.791)"/><rect class="i" width="4.279" height="4.279" transform="matrix(0.973, -0.232, 0.232, 0.973, 105.291, 109.145)"/><rect class="i" width="4.279" height="4.279" transform="matrix(0.973, -0.232, 0.232, 0.973, 98.925, 119.499)"/><rect class="i" width="4.279" height="4.279" transform="matrix(0.973, -0.232, 0.232, 0.973, 92.559, 129.852)"/><rect class="i" width="4.279" height="4.279" transform="matrix(0.973, -0.232, 0.232, 0.973, 86.193, 140.206)"/><rect class="i" width="4.279" height="4.279" transform="matrix(0.973, -0.232, 0.232, 0.973, 131.501, 46.618)"/><rect class="i" width="4.279" height="4.279" transform="matrix(0.973, -0.232, 0.232, 0.973, 125.135, 56.972)"/><rect class="i" width="4.279" height="4.279" transform="matrix(0.973, -0.232, 0.232, 0.973, 118.769, 67.326)"/><rect class="i" width="4.279" height="4.279" transform="matrix(0.973, -0.232, 0.232, 0.973, 112.402, 77.68)"/><rect class="i" width="4.279" height="4.279" transform="matrix(0.973, -0.232, 0.232, 0.973, 106.036, 88.034)"/><rect class="i" width="4.279" height="4.279" transform="matrix(0.973, -0.232, 0.232, 0.973, 99.67, 98.388)"/><rect class="i" width="4.279" height="4.279" transform="matrix(0.973, -0.232, 0.232, 0.973, 93.304, 108.742)"/><rect class="i" width="4.279" height="4.279" transform="matrix(0.973, -0.232, 0.232, 0.973, 86.938, 119.095)"/><rect class="i" width="4.279" height="4.279" transform="matrix(0.973, -0.232, 0.232, 0.973, 80.572, 129.449)"/><rect class="i" width="4.279" height="4.279" transform="matrix(0.973, -0.232, 0.232, 0.973, 74.206, 139.803)"/><rect class="i" width="4.279" height="4.279" transform="matrix(0.973, -0.232, 0.232, 0.973, 124.936, 35.615)"/><rect class="i" width="4.279" height="4.279" transform="matrix(0.973, -0.232, 0.232, 0.973, 118.57, 45.969)"/><rect class="i" width="4.279" height="4.279" transform="matrix(0.973, -0.232, 0.232, 0.973, 112.204, 56.323)"/><rect class="i" width="4.279" height="4.279" transform="matrix(0.973, -0.232, 0.232, 0.973, 105.838, 66.676)"/><rect class="i" width="4.279" height="4.279" transform="matrix(0.973, -0.232, 0.232, 0.973, 99.472, 77.03)"/><rect class="i" width="4.279" height="4.279" transform="matrix(0.973, -0.232, 0.232, 0.973, 93.106, 87.384)"/><rect class="i" width="4.279" height="4.279" transform="matrix(0.973, -0.232, 0.232, 0.973, 86.74, 97.738)"/><rect class="i" width="4.279" height="4.279" transform="matrix(0.973, -0.232, 0.232, 0.973, 80.374, 108.092)"/><rect class="i" width="4.279" height="4.279" transform="matrix(0.973, -0.232, 0.232, 0.973, 74.008, 118.446)"/><rect class="i" width="4.279" height="4.279" transform="matrix(0.973, -0.232, 0.232, 0.973, 67.642, 128.8)"/><rect class="i" width="4.279" height="4.279" transform="matrix(0.973, -0.232, 0.232, 0.973, 112.949, 35.212)"/><rect class="i" width="4.279" height="4.279" transform="matrix(0.973, -0.232, 0.232, 0.973, 106.583, 45.566)"/><rect class="i" width="4.279" height="4.279" transform="matrix(0.973, -0.232, 0.232, 0.973, 100.217, 55.92)"/><rect class="i" width="4.279" height="4.279" transform="matrix(0.973, -0.232, 0.232, 0.973, 93.851, 66.273)"/><rect class="i" width="4.279" height="4.279" transform="matrix(0.973, -0.232, 0.232, 0.973, 87.485, 76.627)"/><rect class="i" width="4.279" height="4.279" transform="matrix(0.973, -0.232, 0.232, 0.973, 81.119, 86.981)"/><rect class="i" width="4.279" height="4.279" transform="matrix(0.973, -0.232, 0.232, 0.973, 74.753, 97.335)"/><rect class="i" width="4.279" height="4.279" transform="matrix(0.973, -0.232, 0.232, 0.973, 68.387, 107.689)"/><rect class="i" width="4.279" height="4.279" transform="matrix(0.973, -0.232, 0.232, 0.973, 62.021, 118.043)"/><rect class="i" width="4.279" height="4.279" transform="matrix(0.973, -0.232, 0.232, 0.973, 55.654, 128.397)"/><rect class="i" width="4.279" height="4.279" transform="matrix(0.973, -0.232, 0.232, 0.973, 106.385, 24.208)"/><rect class="i" width="4.279" height="4.279" transform="matrix(0.973, -0.232, 0.232, 0.973, 100.019, 34.562)"/><rect class="i" width="4.279" height="4.279" transform="matrix(0.973, -0.232, 0.232, 0.973, 93.653, 44.916)"/><rect class="i" width="4.279" height="4.279" transform="matrix(0.973, -0.232, 0.232, 0.973, 87.287, 55.27)"/><rect class="i" width="4.279" height="4.279" transform="matrix(0.973, -0.232, 0.232, 0.973, 80.921, 65.624)"/><rect class="i" width="4.279" height="4.279" transform="matrix(0.973, -0.232, 0.232, 0.973, 74.555, 75.978)"/><rect class="i" width="4.279" height="4.279" transform="matrix(0.973, -0.232, 0.232, 0.973, 68.188, 86.332)"/><rect class="i" width="4.279" height="4.279" transform="matrix(0.973, -0.232, 0.232, 0.973, 61.822, 96.686)"/><rect class="i" width="4.279" height="4.279" transform="matrix(0.973, -0.232, 0.232, 0.973, 55.456, 107.04)"/><rect class="i" width="4.279" height="4.279" transform="matrix(0.973, -0.232, 0.232, 0.973, 49.09, 117.394)"/><rect class="i" width="4.279" height="4.279" transform="matrix(0.973, -0.232, 0.232, 0.973, 94.398, 23.805)"/><rect class="i" width="4.279" height="4.279" transform="matrix(0.973, -0.232, 0.232, 0.973, 88.032, 34.159)"/><rect class="i" width="4.279" height="4.279" transform="matrix(0.973, -0.232, 0.232, 0.973, 81.666, 44.513)"/><rect class="i" width="4.279" height="4.279" transform="matrix(0.973, -0.232, 0.232, 0.973, 75.3, 54.867)"/><rect class="i" width="4.279" height="4.279" transform="matrix(0.973, -0.232, 0.232, 0.973, 68.933, 65.221)"/><rect class="i" width="4.279" height="4.279" transform="matrix(0.973, -0.232, 0.232, 0.973, 62.567, 75.575)"/><rect class="i" width="4.279" height="4.279" transform="matrix(0.973, -0.232, 0.232, 0.973, 56.201, 85.929)"/><rect class="i" width="4.279" height="4.279" transform="matrix(0.973, -0.232, 0.232, 0.973, 49.835, 96.283)"/><rect class="i" width="4.279" height="4.279" transform="matrix(0.973, -0.232, 0.232, 0.973, 43.469, 106.637)"/><rect class="i" width="4.279" height="4.279" transform="matrix(0.973, -0.232, 0.232, 0.973, 37.103, 116.991)"/><rect class="i" width="4.279" height="4.279" transform="matrix(0.973, -0.232, 0.232, 0.973, 87.833, 12.802)"/><rect class="i" width="4.279" height="4.279" transform="matrix(0.973, -0.232, 0.232, 0.973, 81.467, 23.156)"/><rect class="i" width="4.279" height="4.279" transform="matrix(0.973, -0.232, 0.232, 0.973, 75.101, 33.51)"/><rect class="i" width="4.279" height="4.279" transform="matrix(0.973, -0.232, 0.232, 0.973, 68.735, 43.864)"/><rect class="i" width="4.279" height="4.279" transform="matrix(0.973, -0.232, 0.232, 0.973, 62.369, 54.218)"/><rect class="i" width="4.279" height="4.279" transform="matrix(0.973, -0.232, 0.232, 0.973, 56.003, 64.572)"/><rect class="i" width="4.279" height="4.279" transform="matrix(0.973, -0.232, 0.232, 0.973, 49.637, 74.926)"/><rect class="i" width="4.279" height="4.279" transform="matrix(0.973, -0.232, 0.232, 0.973, 43.271, 85.279)"/><rect class="i" width="4.279" height="4.279" transform="matrix(0.973, -0.232, 0.232, 0.973, 36.905, 95.633)"/><rect class="i" width="4.279" height="4.279" transform="matrix(0.973, -0.232, 0.232, 0.973, 30.539, 105.987)"/><rect class="i" width="4.279" height="4.279" transform="matrix(0.973, -0.232, 0.232, 0.973, 75.846, 12.399)"/><rect class="i" width="4.279" height="4.279" transform="matrix(0.973, -0.232, 0.232, 0.973, 69.48, 22.753)"/><rect class="i" width="4.279" height="4.279" transform="matrix(0.973, -0.232, 0.232, 0.973, 63.114, 33.107)"/><rect class="i" width="4.279" height="4.279" transform="matrix(0.973, -0.232, 0.232, 0.973, 56.748, 43.461)"/><rect class="i" width="4.279" height="4.279" transform="matrix(0.973, -0.232, 0.232, 0.973, 50.382, 53.815)"/><rect class="i" width="4.279" height="4.279" transform="matrix(0.973, -0.232, 0.232, 0.973, 44.016, 64.169)"/><rect class="i" width="4.279" height="4.279" transform="matrix(0.973, -0.232, 0.232, 0.973, 37.65, 74.522)"/><rect class="i" width="4.279" height="4.279" transform="matrix(0.973, -0.232, 0.232, 0.973, 31.284, 84.876)"/><rect class="i" width="4.279" height="4.279" transform="matrix(0.973, -0.232, 0.232, 0.973, 24.918, 95.23)"/><rect class="i" width="4.279" height="4.279" transform="matrix(0.973, -0.232, 0.232, 0.973, 18.551, 105.584)"/><rect class="i" width="4.279" height="4.279" transform="matrix(0.973, -0.232, 0.232, 0.973, 69.282, 1.396)"/><rect class="i" width="4.279" height="4.279" transform="matrix(0.973, -0.232, 0.232, 0.973, 62.916, 11.75)"/><rect class="i" width="4.279" height="4.279" transform="matrix(0.973, -0.232, 0.232, 0.973, 56.55, 22.104)"/><rect class="i" width="4.279" height="4.279" transform="matrix(0.973, -0.232, 0.232, 0.973, 50.184, 32.457)"/><rect class="i" width="4.279" height="4.279" transform="matrix(0.973, -0.232, 0.232, 0.973, 43.818, 42.811)"/><rect class="i" width="4.279" height="4.279" transform="matrix(0.973, -0.232, 0.232, 0.973, 37.452, 53.165)"/><rect class="i" width="4.279" height="4.279" transform="matrix(0.973, -0.232, 0.232, 0.973, 31.085, 63.519)"/><rect class="i" width="4.279" height="4.279" transform="matrix(0.973, -0.232, 0.232, 0.973, 24.719, 73.873)"/><rect class="i" width="4.279" height="4.279" transform="matrix(0.973, -0.232, 0.232, 0.973, 18.353, 84.227)"/><rect class="i" width="4.279" height="4.279" transform="matrix(0.973, -0.232, 0.232, 0.973, 11.987, 94.581)"/><rect class="i" width="4.279" height="4.279" transform="matrix(0.973, -0.232, 0.232, 0.973, 57.295, 0.993)"/><rect class="i" width="4.279" height="4.279" transform="matrix(0.973, -0.232, 0.232, 0.973, 50.929, 11.347)"/><rect class="i" width="4.279" height="4.279" transform="matrix(0.973, -0.232, 0.232, 0.973, 44.563, 21.7)"/><rect class="i" width="4.279" height="4.279" transform="matrix(0.973, -0.232, 0.232, 0.973, 38.197, 32.054)"/><rect class="i" width="4.279" height="4.279" transform="matrix(0.973, -0.232, 0.232, 0.973, 31.83, 42.408)"/><rect class="i" width="4.279" height="4.279" transform="matrix(0.973, -0.232, 0.232, 0.973, 25.464, 52.762)"/><rect class="i" width="4.279" height="4.279" transform="matrix(0.973, -0.232, 0.232, 0.973, 19.098, 63.116)"/><rect class="i" width="4.279" height="4.279" transform="matrix(0.973, -0.232, 0.232, 0.973, 12.732, 73.47)"/><rect class="i" width="4.279" height="4.279" transform="matrix(0.973, -0.232, 0.232, 0.973, 6.366, 83.824)"/><rect class="i" width="4.279" height="4.279" transform="matrix(0.973, -0.232, 0.232, 0.973, 0, 94.178)"/></g></g></g><path class="i" d="M122.291,62.653a3.956,3.956,0,0,0,3.7.6" transform="translate(57.763 21.264)"/><path class="i" d="M115.964,114.333a105.678,105.678,0,0,0,3.886,13.328" transform="translate(54.052 51.584)"/><path class="i" d="M114.954,109.242s.416,2.64,1.239,6.444" transform="translate(53.459 48.597)"/><path class="f" d="M111.4,129.636a55.7,55.7,0,0,0-2.232-8.1l-.006,0c-1.676-7.47-3.9-13.8-4.976-17.136-4.862,3.075-13.723,7.2-25.268,11-2.92.96-6.148,2.074-9.152,2.84,1.555,1.02,4.554,3.457,9.465,8.849,4.624,5.077,7.051,14.517,8.324,23.272h22.417c.216-1.168.438-2.4.663-3.7.2-1.16.338-2.34.443-3.527l.033,0S112.382,135.064,111.4,129.636Z" transform="translate(26.949 45.757)"/><path class="f" d="M52.772,118.135l-2.11-.17a62.229,62.229,0,0,1-3.675,7.7A27.264,27.264,0,0,1,44.61,129.2l12.655,19.669c1.869-1.012,3.738-2.052,5.56-3.108A75.977,75.977,0,0,0,93.68,111.331c-7.416,2.439-15.8,5.025-23.085,5.726C62.49,117.836,60.75,118.206,52.772,118.135Z" transform="translate(12.189 49.823)"/><path class="c" d="M35.612,130.193a6.837,6.837,0,0,0-3.768.992c-2.182,1.19,1.587,33.122,6.148,33.519s4.958-15.867,4.958-15.867l.373-.165-7.132-18.69C35.82,130.123,35.612,130.193,35.612,130.193Z" transform="translate(4.326 60.765)"/><path class="j" d="M34.348,134.316l7.132,18.69c1.923-.862,11.819-5.338,21.806-10.742L50.631,122.6C44.922,129.889,36.6,133.454,34.348,134.316Z" transform="translate(6.168 56.431)"/><path class="c" d="M81.369,152.477c-.132,3.173.133,2.777,2.117,3.57s30.41.925,30.41.925,1.323-2.115-1.19-4.5-14.677-6.612-14.677-6.612H82.162Z" transform="translate(33.738 70.083)"/><path class="f" d="M29.476,92.175C23,93.5,23.328,96.34,24.518,96.737s4.562,1.388,3.173,2.975-.2,1.983,1.587,2.975.132,1.322,1.322,2.908,12.5-2.275,19.673-5.474l-7.826-13.39C38.23,89.144,33.575,91.339,29.476,92.175Z" transform="translate(0 35.39)"/><path class="f" d="M85.309,71.816l17.977,16.04c.462-.476,1.737-1.795,1.944-2.1,3.835-5.622,4.086-7.462,2.5-10.875a21.615,21.615,0,0,0-6.39-8.013l0,0-.035-.022a27.447,27.447,0,0,0-3.657-2.437,70.253,70.253,0,0,1-8.224-6.226c-2.575-2.642-8.506-2.791-12.657.5,0,0-5.858,3.161-4.1,4.662s2.348,2.824,5.25,3.51c2.648.625,4.587,1.542,5.755,3.5l.014.013Z" transform="translate(28.458 17.482)"/><path class="e" d="M120.6,89.916a29.73,29.73,0,0,0,7.848-4.632l-2.386-2.129-17.977-16.04-1.62-1.444-.014-.013-1.03-.949S88.67,60.978,69.612,74.046c-4.538,3.11-16.717,10.975-25.933,15.916a84.05,84.05,0,0,1-10.164,4.414l3.253,5.563,7.826,13.39.92,1.574a87.353,87.353,0,0,0,8.827-2.182c5.752-1.785,7.256-4.725,8.065-3.537,3,4.4-11.405,19.6-8.9,20.532a26.1,26.1,0,0,0,3.032.889c9.73,2.318,25.014,1.217,32.835-.784,18.466-4.725,27.374-12.081,30.825-15.684a17.057,17.057,0,0,0,1.8-2.139s-3.173-6.762-6.931-16.714C113.974,92.409,116.711,91.563,120.6,89.916Z" transform="translate(5.68 22.182)"/><path class="f" d="M59.594,60.561c.24.017.524.044.811.086A6.464,6.464,0,0,0,59.594,60.561Z" transform="translate(20.98 20.037)"/><path class="f" d="M66.822,65.111a6.537,6.537,0,0,0-4.086-4.327c.684.4-1.187,3.619-2.459,5.154-1.29,1.553-1.158,1.883-1.653,1.917s-1.488-.033-1.157.793,1.09.893,2.017,2.083a3.306,3.306,0,0,1,.758,1.739c.206.084.417.16.632.225l-.428.048a1.41,1.41,0,0,1,.733,2.053c-.736,1.488-.241,2.678,2.932,2.777,2.921.092,1.906-4.576,1.725-5.323C68.313,70.752,67.482,67.424,66.822,65.111Z" transform="translate(19.693 20.167)"/><path class="k" d="M61.132,60.858a4.3,4.3,0,0,0-1.027-.243,6.3,6.3,0,0,1,1.044.268C61.14,60.878,61.141,60.861,61.132,60.858Z" transform="translate(21.28 20.068)"/><path class="k" d="M59.129,60.559a6.555,6.555,0,0,1,.771.013c-.352-.025-.6-.03-.6-.03l-.222.017h.056Z" transform="translate(20.674 20.025)"/><path class="g" d="M77.355,72.84a6.621,6.621,0,0,1-.652-.232,3.306,3.306,0,0,0-.758-1.739c-.927-1.19-1.687-1.257-2.017-2.083s.66-.76,1.157-.793.363-.363,1.653-1.917c1.273-1.534,3.143-4.758,2.459-5.154a6.3,6.3,0,0,0-1.044-.268c-.287-.041-.571-.068-.811-.086a6.555,6.555,0,0,0-.771-.013h-.056c-.562.013-5.837.267-11.711,5.255-5.089,4.321-10.71-4.76-16.529,0s.44,6.391-8.506,7.361-12.386,10.49-9.344,13c1.139.942,1.917,2.248,3.438,1.18,3.291-2.313,0,2.786,4.5,3.713s5.157-2.777,8.992-.927,8.348,2.423,10.729-.392C62.443,84.591,74.464,75.6,77.171,74.273,78.118,73.811,77.961,73.362,77.355,72.84Z" transform="translate(3.231 20.029)"/><path class="j" d="M87.174,56.239l-8.1-6.923L69.3,68.743l-.768-.693-.8.882,1.012.914.736.663,1.036.935.8-.882-.895-.808.63-.508a3.236,3.236,0,0,0,2.705,1.376l.079-.006c1.736-.189,11.288-8,12.06-9.23.838-1.331-.157-2.978-.616-3.618Zm-1.617,4.936c-.727,1.152-10.16,8.873-11.768,9.046l-.063.006A2.888,2.888,0,0,1,71.358,69L84.967,58.017C85.384,58.611,86.252,60.072,85.557,61.175Z" transform="translate(25.754 13.439)"/><path class="c" d="M63.77,122.633c-2.678.665-3.965,2.313-8.225,7.668s-.294,8.5,6.053,4.348S77.116,119.321,63.77,122.633Z" transform="translate(17.564 56.098)"/><path class="i" d="M36.2,141.576l5.025,1.653-5.025.926,4.562,1.322" transform="translate(7.258 67.567)"/><path class="i" d="M90.517,148.894l4.661-3.121-.694,3.918,3.316-2.45" transform="translate(39.122 70.029)"/><path class="i" d="M32.561,130.326S34.17,150.682,35.4,156.3s2.945,7.913,2.945,7.913" transform="translate(5.12 60.967)"/><line class="i" x2="32.064" y2="1.388" transform="translate(115.458 223.687)"/><path class="f" d="M83.21,57.353S82.788,56.058,81,56.56c-3.746,1.054-8.355,5.242-8.355,5.242s2.288,2,4.1,1.683a2.376,2.376,0,0,0,1.975-2.039,1.134,1.134,0,0,0,1.569.24,5.982,5.982,0,0,0,1.571-2.29s-.108.073,1.057-.1S83.21,57.353,83.21,57.353Z" transform="translate(28.638 17.621)"/><path class="f" d="M68.692,112.785l.186-.083A.269.269,0,0,0,68.692,112.785Z" transform="translate(26.318 50.627)"/><path class="c" d="M95.864,115.22s-3.307-1.027-3.407,6.41c-.078,5.837.414,9.837,2.042,12.506s3.307,2.677,3.307,2.677,1.269-8.068.29-13.5A55.7,55.7,0,0,0,95.864,115.22Z" transform="translate(40.256 52.076)"/><path class="j" d="M82.374,153.2H98.241s2.079-3.235,5.155-19.834H80.979c.76,5.231,1.109,10.218,1.268,13.884C82.4,150.869,82.374,153.2,82.374,153.2Z" transform="translate(33.526 62.75)"/><g transform="translate(51.328 136.319)"><path class="b" d="M84.882,111.363c-7.821,2-23.105,3.1-32.835.784l-.774.2-10.11,13.6s19.922,3.218,39.026-.881c25.893-5.555,43.28-17.174,43.28-17.174l-7.762-12.213C112.255,99.282,103.347,106.638,84.882,111.363Z" transform="translate(-41.162 -95.679)"/><g class="l"><line class="m" y1="45.435" x2="139.517" transform="translate(-37.724 -25.586)"/><line class="m" y1="45.435" x2="139.517" transform="translate(-37.091 -23.642)"/><line class="m" y1="45.435" x2="139.517" transform="translate(-36.458 -21.698)"/><line class="m" y1="45.435" x2="139.517" transform="translate(-35.825 -19.753)"/><line class="m" y1="45.435" x2="139.517" transform="translate(-35.192 -17.809)"/><line class="m" y1="45.435" x2="139.517" transform="translate(-34.558 -15.865)"/><line class="m" y1="45.435" x2="139.517" transform="translate(-33.925 -13.92)"/><line class="m" y1="45.435" x2="139.517" transform="translate(-33.292 -11.976)"/><line class="m" y1="45.435" x2="139.517" transform="translate(-32.659 -10.032)"/><line class="m" y1="45.435" x2="139.517" transform="translate(-32.026 -8.087)"/><line class="m" y1="45.435" x2="139.517" transform="translate(-31.524 -6.143)"/><line class="m" y1="45.435" x2="139.517" transform="translate(-30.89 -4.198)"/><line class="m" y1="45.435" x2="139.517" transform="translate(-30.257 -2.254)"/><line class="m" y1="45.435" x2="139.517" transform="translate(-29.624 -0.31)"/><line class="m" y1="45.435" x2="139.517" transform="translate(-28.991 1.635)"/><line class="m" y1="45.435" x2="139.517" transform="translate(-28.358 3.579)"/><line class="m" y1="45.435" x2="139.517" transform="translate(-27.724 5.523)"/><line class="m" y1="45.435" x2="139.517" transform="translate(-27.091 7.468)"/><line class="m" y1="45.435" x2="139.517" transform="translate(-26.458 9.412)"/><line class="m" y1="45.435" x2="139.517" transform="translate(-25.825 11.356)"/></g></g><path class="i" d="M60.585,67.638s.685,1.025,3.2.53" transform="translate(21.561 24.188)"/><path class="i" d="M58.3,79.584s1.206,2.04,3.719.619a2.2,2.2,0,0,0,1.066-2.677" transform="translate(20.223 29.99)"/><path class="i" d="M69.663,75.143a2.726,2.726,0,0,0,3.04,0,1.9,1.9,0,0,0,.646-2.548" transform="translate(26.887 27.097)"/><path class="n" d="M45.182,140.623c-1.564.646-2.478.982-2.478.982" transform="translate(11.071 67.008)"/><path class="n" d="M75.48,128.36c-1.863,1.668-3.906,3.364-6.147,5.069A119.825,119.825,0,0,1,45.49,146.994" transform="translate(12.705 59.813)"/><path class="n" d="M81.7,111.088s-1.977,10.5-14.726,23.491" transform="translate(25.311 49.68)"/><path class="i" d="M58.227,126.607a3.56,3.56,0,0,0-.6,4.232c1.361,2.3,4.156.148,4.156.148" transform="translate(19.546 58.785)"/><path class="i" d="M94.548,122s0,2.466,1.934,2.317S98.167,122,98.167,122" transform="translate(41.487 56.083)"/><path class="i" d="M73.6,62.514a3.766,3.766,0,0,0,3.075.76,1.954,1.954,0,0,0,1.487-1.95s.4.793,1.752.165A2.631,2.631,0,0,0,81.3,59.274a1.468,1.468,0,0,0,1.409-.244c1.02-1.046-.486-2.377-.486-2.377" transform="translate(29.197 17.744)"/><path class="n" d="M47.7,115.878a107.011,107.011,0,0,0,22.8-1.1" transform="translate(14.004 51.846)"/><path class="n" d="M42.7,114.909s1.868.371,5.161.679" transform="translate(11.071 51.922)"/><path class="n" d="M100.757,95.726l7.572,12.059s-8.463,7.026-34.907,14.959q-3.282.985-6.447,1.712" transform="translate(25.31 40.667)"/><line class="n" y1="1.058" x2="10.819" transform="translate(237.59 66.87)"/><line class="n" x2="3.237" y2="7.669" transform="translate(144.745 38.309)"/><line class="n" x1="9.123" y2="6.876" transform="translate(159.29 26.409)"/><line class="n" y1="8.462" x2="2.38" transform="translate(210.328 45.978)"/><line class="n" y1="6.115" x2="5.006" transform="translate(241.269 69.942)"/><line class="n" y1="2.179" x2="11.636" transform="translate(249.467 77.447)"/><line class="n" x1="5.812" y1="8.859" transform="translate(129.301 33.285)"/><circle class="g" cx="2.843" cy="2.843" r="2.843" transform="translate(219.849 42.144)"/><circle class="g" cx="1.19" cy="1.19" r="1.19" transform="translate(147.522 52.06)"/><circle class="o" cx="1.256" cy="1.256" r="1.256" transform="translate(246.275 53.251)"/><circle class="n" cx="1.721" cy="1.721" r="1.721" transform="translate(251.913 84.32)"/><line class="n" y1="2.578" x2="10.677" transform="translate(117.474 59.465)"/><circle class="o" cx="1.529" cy="1.529" r="1.529" transform="translate(233.269 72.999)"/><circle class="o" cx="0.843" cy="0.843" r="0.843" transform="translate(136.865 50.375)"/><circle class="o" cx="0.727" cy="0.727" r="0.727" transform="translate(118.653 48.755)"/><circle class="g" cx="1.587" cy="1.587" r="1.587" transform="translate(135.278 26.673)"/><path class="n" d="M166.841,143.335s-13.779-13.847-16.362-18.226c-4.462-7.567-4.462-21.054-4.462-21.054" transform="translate(71.683 45.554)"/><path class="g" d="M170.946,68.126,164.811,76.6l7.833,2.87Z" transform="translate(82.71 24.475)"/><path class="n" d="M157.2,88.614s5.995-1.771,9.541-5.139c5.638-5.355,6.921-10.732,6.921-10.732" transform="translate(78.247 27.183)"/><line class="n" y1="10.776" x2="3.218" transform="translate(110.698 44.987)"/><line class="n" y1="7.107" x2="9.475" transform="translate(113.916 50.375)"/></g></svg>