<svg xmlns="http://www.w3.org/2000/svg" xmlns:xlink="http://www.w3.org/1999/xlink" width="480.258" height="521.422" viewBox="0 0 480.258 521.422"><defs><style>.a,.h,.m,.n{fill:none;}.b{fill:#f8f9ff;}.c{fill:#ffc529;}.d{fill:#30384f;}.e{fill:#9ecbe3;}.f{fill:#171b26;}.g{clip-path:url(#a);}.h,.n{stroke:#fff;}.h{stroke-miterlimit:10;}.i{fill:#e897a3;}.j{fill:#d63c30;}.k{fill:#8057a7;}.l{fill:#98a1f4;}.m{stroke:#600;}.m,.n{stroke-linejoin:round;stroke-width:0.25px;}</style><clipPath id="a"><path class="a" d="M295.391,269.934c-1.989-2.816-5.306,0-5.306,0s-59-26.849-40.437-144.521l-48.1-13.795-25.314-6.778-11.277-3.294s-22.784,37.82-49.339,70.636c-29.845,36.877-30.183,86.809-30.183,86.809s-7.756-3.7-11.074.947,0,9.32,0,9.32l66.248,33.281s5.62-6.086,4.956-8.739-1.325-6.631-1.325-6.631,13.464-37.732,20.716-45.079c1.086-1.1,3.5-4.121,6.79-8.409,13.608,30.954,53.54,64.761,53.54,64.761s-3.48.994-4.475,5.966,4.972,5.469,4.972,5.469l70.6-36.133S297.38,272.75,295.391,269.934Z" transform="translate(-72.887 -101.547)"/></clipPath></defs><g transform="translate(-34.057 -27.536)"><g transform="translate(34.057 61.706)"><path class="b" d="M195.313,45.29c-46.054,27.792-76.809,62.151-70.178,151.6S23.04,301.031,34.973,371.909s213.1,199.329,388.969,71.463,49.534-314.821,0-362.553S224.274,27.812,195.313,45.29Z" transform="translate(-34.057 -36.126)"/></g><g transform="translate(71.225 27.536)"><g transform="translate(117.285 164.416)"><path class="c" d="M295.391,269.934c-1.989-2.816-5.306,0-5.306,0s-59-26.849-40.437-144.521l-48.1-13.795L178.24,105.2l-2.554-.7-10.732-2.951-.3.278s-22.482,37.541-49.037,70.357c-29.845,36.877-30.183,86.809-30.183,86.809s-7.756-3.7-11.074.947,0,9.32,0,9.32l66.248,33.281s5.62-6.086,4.956-8.739-1.325-6.631-1.325-6.631,13.464-37.732,20.716-45.079c1.086-1.1,3.5-4.121,6.79-8.409,13.608,30.954,53.54,64.761,53.54,64.761s-3.48.994-4.475,5.966,4.972,5.469,4.972,5.469l70.6-36.133S297.38,272.75,295.391,269.934Z" transform="translate(-72.887 28.431)"/><path class="c" d="M188.017,76.025c-1.571-9.025-24.2-6.949-24.2-6.949S123.379,94.1,103.161,172.329c-1.754,6.782-4.769,17.876-6.249,23.305-.537,1.969-.879,3.214-.879,3.214l10.732,2.951,75.95,20.915S196.3,123.6,188.017,76.025Z" transform="translate(-3.965 -68.87)"/></g><path class="a" d="M110.243,157.855a4.271,4.271,0,0,1-1.993-.78A3.05,3.05,0,0,0,110.243,157.855Z" transform="translate(149.699 358.191)"/><path class="a" d="M108.845,157.285h.032l-.091-.008Z" transform="translate(151.292 358.792)"/><path class="d" d="M109.021,192.929a4.271,4.271,0,0,0,1.993.78,1.327,1.327,0,0,0,.135.024l.091.008c1.126.048,2.49-.151,5.7-1.587,7.7-3.441,77.052-38.472,78.579-39.244a4.052,4.052,0,0,0-.517-2.689,16.409,16.409,0,0,0-4.666-5.187L124.192,178.88s-1.1.561-5.473.78-10.728,5.7-10.728,11a2.693,2.693,0,0,0,1.03,2.267Z" transform="translate(148.927 322.337)"/><path class="e" d="M108.25,157.075Z" transform="translate(149.699 358.191)"/><path class="e" d="M108.886,157.295a1.348,1.348,0,0,1-.135-.024Z" transform="translate(151.191 358.774)"/><path class="f" d="M196.22,148.166a8,8,0,0,0-1.4-1.161l-.072.036c-1.527.772-70.874,35.8-78.579,39.244-3.21,1.436-4.574,1.635-5.7,1.587h-.032l-.06-.008-.135-.024a3.05,3.05,0,0,1-1.993-.78h0s.851,1.38,1.754,3.087c1.742,3.3,3.97,3.393,5.338,2.768,22.756-10.41,72.414-33.655,82.537-39.116C199.172,153.1,197.028,149.392,196.22,148.166Z" transform="translate(149.699 328.206)"/><path class="d" d="M155.056,179.618l-4.4,7.068L68.876,147.753s-4.24-4.821,6.32-4.924a30.3,30.3,0,0,1,17.613,5.41Z" transform="translate(29.95 315.767)"/><g transform="translate(117.285 294.393)"><g class="g"><line class="h" x2="3.819" y2="11.538" transform="translate(-40.412 31.978)"/><line class="h" x2="3.819" y2="11.538" transform="translate(-31.36 59.327)"/><line class="h" x2="3.819" y2="11.538" transform="translate(-22.309 86.676)"/><line class="h" x2="3.819" y2="11.538" transform="translate(-13.258 114.025)"/><line class="h" x2="3.819" y2="11.538" transform="translate(-4.207 141.375)"/><line class="h" x2="3.819" y2="11.538" transform="translate(4.845 168.724)"/><line class="h" x2="3.819" y2="11.538" transform="translate(13.896 196.073)"/><line class="h" x2="3.819" y2="11.538" transform="translate(22.947 223.422)"/><line class="h" x2="3.819" y2="11.538" transform="translate(31.999 250.771)"/><line class="h" x2="3.819" y2="11.538" transform="translate(41.05 278.121)"/><line class="h" x2="3.819" y2="11.538" transform="translate(-36.187 15.911)"/><line class="h" x2="3.819" y2="11.538" transform="translate(-27.135 43.26)"/><line class="h" x2="3.819" y2="11.538" transform="translate(-18.084 70.609)"/><line class="h" x2="3.819" y2="11.538" transform="translate(-9.033 97.958)"/><line class="h" x2="3.819" y2="11.538" transform="translate(0.019 125.308)"/><line class="h" x2="3.819" y2="11.538" transform="translate(9.07 152.657)"/><line class="h" x2="3.819" y2="11.538" transform="translate(18.121 180.006)"/><line class="h" x2="3.819" y2="11.538" transform="translate(27.173 207.355)"/><line class="h" x2="3.819" y2="11.538" transform="translate(36.224 234.705)"/><line class="h" x2="3.819" y2="11.538" transform="translate(45.275 262.054)"/><line class="h" x2="3.819" y2="11.538" transform="translate(-19.835 25.168)"/><line class="h" x2="3.819" y2="11.538" transform="translate(-10.784 52.517)"/><line class="h" x2="3.819" y2="11.538" transform="translate(-1.732 79.866)"/><line class="h" x2="3.819" y2="11.538" transform="translate(7.319 107.216)"/><line class="h" x2="3.819" y2="11.538" transform="translate(16.37 134.565)"/><line class="h" x2="3.819" y2="11.538" transform="translate(25.422 161.914)"/><line class="h" x2="3.819" y2="11.538" transform="translate(34.473 189.263)"/><line class="h" x2="3.819" y2="11.538" transform="translate(43.524 216.612)"/><line class="h" x2="3.819" y2="11.538" transform="translate(52.576 243.962)"/><line class="h" x2="3.819" y2="11.538" transform="translate(61.627 271.311)"/><line class="h" x2="3.819" y2="11.538" transform="translate(-15.61 9.101)"/><line class="h" x2="3.819" y2="11.538" transform="translate(-6.559 36.45)"/><line class="h" x2="3.819" y2="11.538" transform="translate(2.493 63.799)"/><line class="h" x2="3.819" y2="11.538" transform="translate(11.544 91.149)"/><line class="h" x2="3.819" y2="11.538" transform="translate(20.595 118.498)"/><line class="h" x2="3.819" y2="11.538" transform="translate(29.647 145.847)"/><line class="h" x2="3.819" y2="11.538" transform="translate(38.698 173.196)"/><line class="h" x2="3.819" y2="11.538" transform="translate(47.749 200.545)"/><line class="h" x2="3.819" y2="11.538" transform="translate(56.801 227.895)"/><line class="h" x2="3.819" y2="11.538" transform="translate(65.852 255.244)"/><line class="h" x2="3.819" y2="11.538" transform="translate(0.742 18.358)"/><line class="h" x2="3.819" y2="11.538" transform="translate(9.793 45.707)"/><line class="h" x2="3.819" y2="11.538" transform="translate(18.844 73.056)"/><line class="h" x2="3.819" y2="11.538" transform="translate(27.896 100.406)"/><line class="h" x2="3.819" y2="11.538" transform="translate(36.947 127.755)"/><line class="h" x2="3.819" y2="11.538" transform="translate(45.998 155.104)"/><line class="h" x2="3.819" y2="11.538" transform="translate(55.05 182.453)"/><line class="h" x2="3.819" y2="11.538" transform="translate(64.101 209.802)"/><line class="h" x2="3.819" y2="11.538" transform="translate(73.152 237.152)"/><line class="h" x2="3.819" y2="11.538" transform="translate(82.204 264.501)"/><line class="h" x2="3.819" y2="11.538" transform="translate(4.967 2.291)"/><line class="h" x2="3.819" y2="11.538" transform="translate(14.018 29.64)"/><line class="h" x2="3.819" y2="11.538" transform="translate(23.069 56.989)"/><line class="h" x2="3.819" y2="11.538" transform="translate(32.121 84.339)"/><line class="h" x2="3.819" y2="11.538" transform="translate(41.172 111.688)"/><line class="h" x2="3.819" y2="11.538" transform="translate(50.223 139.037)"/><line class="h" x2="3.819" y2="11.538" transform="translate(59.275 166.386)"/><line class="h" x2="3.819" y2="11.538" transform="translate(68.326 193.735)"/><line class="h" x2="3.819" y2="11.538" transform="translate(77.377 221.085)"/><line class="h" x2="3.819" y2="11.538" transform="translate(86.429 248.434)"/><line class="h" x2="3.819" y2="11.538" transform="translate(21.318 11.548)"/><line class="h" x2="3.819" y2="11.538" transform="translate(30.37 38.897)"/><line class="h" x2="3.819" y2="11.538" transform="translate(39.421 66.246)"/><line class="h" x2="3.819" y2="11.538" transform="translate(48.472 93.596)"/><line class="h" x2="3.819" y2="11.538" transform="translate(57.524 120.945)"/><line class="h" x2="3.819" y2="11.538" transform="translate(66.575 148.294)"/><line class="h" x2="3.819" y2="11.538" transform="translate(75.626 175.643)"/><line class="h" x2="3.819" y2="11.538" transform="translate(84.678 202.993)"/><line class="h" x2="3.819" y2="11.538" transform="translate(93.729 230.342)"/><line class="h" x2="3.819" y2="11.538" transform="translate(102.78 257.691)"/><line class="h" x2="3.819" y2="11.538" transform="translate(25.544 -4.519)"/><line class="h" x2="3.819" y2="11.538" transform="translate(34.595 22.83)"/><line class="h" x2="3.819" y2="11.538" transform="translate(43.646 50.179)"/><line class="h" x2="3.819" y2="11.538" transform="translate(52.697 77.529)"/><line class="h" x2="3.819" y2="11.538" transform="translate(61.749 104.878)"/><line class="h" x2="3.819" y2="11.538" transform="translate(70.8 132.227)"/><line class="h" x2="3.819" y2="11.538" transform="translate(79.851 159.576)"/><line class="h" x2="3.819" y2="11.538" transform="translate(88.903 186.926)"/><line class="h" x2="3.819" y2="11.538" transform="translate(97.954 214.275)"/><line class="h" x2="3.819" y2="11.538" transform="translate(107.005 241.624)"/><line class="h" x2="3.819" y2="11.538" transform="translate(41.895 4.738)"/><line class="h" x2="3.819" y2="11.538" transform="translate(50.946 32.087)"/><line class="h" x2="3.819" y2="11.538" transform="translate(59.998 59.436)"/><line class="h" x2="3.819" y2="11.538" transform="translate(69.049 86.786)"/><line class="h" x2="3.819" y2="11.538" transform="translate(78.1 114.135)"/><line class="h" x2="3.819" y2="11.538" transform="translate(87.152 141.484)"/><line class="h" x2="3.819" y2="11.538" transform="translate(96.203 168.833)"/><line class="h" x2="3.819" y2="11.538" transform="translate(105.254 196.183)"/><line class="h" x2="3.819" y2="11.538" transform="translate(114.306 223.532)"/><line class="h" x2="3.819" y2="11.538" transform="translate(123.357 250.881)"/><line class="h" x2="3.819" y2="11.538" transform="translate(46.12 -11.329)"/><line class="h" x2="3.819" y2="11.538" transform="translate(55.172 16.02)"/><line class="h" x2="3.819" y2="11.538" transform="translate(64.223 43.37)"/><line class="h" x2="3.819" y2="11.538" transform="translate(73.274 70.719)"/><line class="h" x2="3.819" y2="11.538" transform="translate(82.326 98.068)"/><line class="h" x2="3.819" y2="11.538" transform="translate(91.377 125.417)"/><line class="h" x2="3.819" y2="11.538" transform="translate(100.428 152.766)"/><line class="h" x2="3.819" y2="11.538" transform="translate(109.48 180.116)"/><line class="h" x2="3.819" y2="11.538" transform="translate(118.531 207.465)"/><line class="h" x2="3.819" y2="11.538" transform="translate(127.582 234.814)"/><line class="h" x2="3.819" y2="11.538" transform="translate(62.472 -2.072)"/><line class="h" x2="3.819" y2="11.538" transform="translate(71.523 25.277)"/><line class="h" x2="3.819" y2="11.538" transform="translate(80.574 52.627)"/><line class="h" x2="3.819" y2="11.538" transform="translate(89.626 79.976)"/><line class="h" x2="3.819" y2="11.538" transform="translate(98.677 107.325)"/><line class="h" x2="3.819" y2="11.538" transform="translate(107.728 134.674)"/><line class="h" x2="3.819" y2="11.538" transform="translate(116.78 162.023)"/><line class="h" x2="3.819" y2="11.538" transform="translate(125.831 189.373)"/><line class="h" x2="3.819" y2="11.538" transform="translate(134.882 216.722)"/><line class="h" x2="3.819" y2="11.538" transform="translate(143.934 244.071)"/><line class="h" x2="3.819" y2="11.538" transform="translate(66.697 -18.139)"/><line class="h" x2="3.819" y2="11.538" transform="translate(75.748 9.21)"/><line class="h" x2="3.819" y2="11.538" transform="translate(84.8 36.56)"/><line class="h" x2="3.819" y2="11.538" transform="translate(93.851 63.909)"/><line class="h" x2="3.819" y2="11.538" transform="translate(102.902 91.258)"/><line class="h" x2="3.819" y2="11.538" transform="translate(111.954 118.607)"/><line class="h" x2="3.819" y2="11.538" transform="translate(121.005 145.956)"/><line class="h" x2="3.819" y2="11.538" transform="translate(130.056 173.306)"/><line class="h" x2="3.819" y2="11.538" transform="translate(139.108 200.655)"/><line class="h" x2="3.819" y2="11.538" transform="translate(148.159 228.004)"/><line class="h" x2="3.819" y2="11.538" transform="translate(83.049 -8.882)"/><line class="h" x2="3.819" y2="11.538" transform="translate(92.1 18.467)"/><line class="h" x2="3.819" y2="11.538" transform="translate(101.151 45.817)"/><line class="h" x2="3.819" y2="11.538" transform="translate(110.203 73.166)"/><line class="h" x2="3.819" y2="11.538" transform="translate(119.254 100.515)"/><line class="h" x2="3.819" y2="11.538" transform="translate(128.305 127.864)"/><line class="h" x2="3.819" y2="11.538" transform="translate(137.356 155.213)"/><line class="h" x2="3.819" y2="11.538" transform="translate(146.408 182.563)"/><line class="h" x2="3.819" y2="11.538" transform="translate(155.459 209.912)"/><line class="h" x2="3.819" y2="11.538" transform="translate(164.51 237.261)"/><line class="h" x2="3.819" y2="11.538" transform="translate(87.274 -24.949)"/><line class="h" x2="3.819" y2="11.538" transform="translate(96.325 2.4)"/><line class="h" x2="3.819" y2="11.538" transform="translate(105.376 29.75)"/><line class="h" x2="3.819" y2="11.538" transform="translate(114.428 57.099)"/><line class="h" x2="3.819" y2="11.538" transform="translate(123.479 84.448)"/><line class="h" x2="3.819" y2="11.538" transform="translate(132.53 111.797)"/><line class="h" x2="3.819" y2="11.538" transform="translate(141.582 139.146)"/><line class="h" x2="3.819" y2="11.538" transform="translate(150.633 166.496)"/><line class="h" x2="3.819" y2="11.538" transform="translate(159.684 193.845)"/><line class="h" x2="3.819" y2="11.538" transform="translate(168.736 221.194)"/><line class="h" x2="3.819" y2="11.538" transform="translate(103.625 -15.692)"/><line class="h" x2="3.819" y2="11.538" transform="translate(112.677 11.657)"/><line class="h" x2="3.819" y2="11.538" transform="translate(121.728 39.007)"/><line class="h" x2="3.819" y2="11.538" transform="translate(130.779 66.356)"/><line class="h" x2="3.819" y2="11.538" transform="translate(139.831 93.705)"/><line class="h" x2="3.819" y2="11.538" transform="translate(148.882 121.054)"/><line class="h" x2="3.819" y2="11.538" transform="translate(157.933 148.404)"/><line class="h" x2="3.819" y2="11.538" transform="translate(166.985 175.753)"/><line class="h" x2="3.819" y2="11.538" transform="translate(176.036 203.102)"/><line class="h" x2="3.819" y2="11.538" transform="translate(185.087 230.451)"/><line class="h" x2="3.819" y2="11.538" transform="translate(107.85 -31.759)"/><line class="h" x2="3.819" y2="11.538" transform="translate(116.902 -4.41)"/><line class="h" x2="3.819" y2="11.538" transform="translate(125.953 22.94)"/><line class="h" x2="3.819" y2="11.538" transform="translate(135.004 50.289)"/><line class="h" x2="3.819" y2="11.538" transform="translate(144.056 77.638)"/><line class="h" x2="3.819" y2="11.538" transform="translate(153.107 104.987)"/><line class="h" x2="3.819" y2="11.538" transform="translate(162.158 132.337)"/><line class="h" x2="3.819" y2="11.538" transform="translate(171.21 159.686)"/><line class="h" x2="3.819" y2="11.538" transform="translate(180.261 187.035)"/><line class="h" x2="3.819" y2="11.538" transform="translate(189.312 214.384)"/><line class="h" x2="3.819" y2="11.538" transform="translate(124.202 -22.502)"/><line class="h" x2="3.819" y2="11.538" transform="translate(133.253 4.847)"/><line class="h" x2="3.819" y2="11.538" transform="translate(142.305 32.197)"/><line class="h" x2="3.819" y2="11.538" transform="translate(151.356 59.546)"/><line class="h" x2="3.819" y2="11.538" transform="translate(160.407 86.895)"/><line class="h" x2="3.819" y2="11.538" transform="translate(169.459 114.244)"/><line class="h" x2="3.819" y2="11.538" transform="translate(178.51 141.594)"/><line class="h" x2="3.819" y2="11.538" transform="translate(187.561 168.943)"/><line class="h" x2="3.819" y2="11.538" transform="translate(196.613 196.292)"/><line class="h" x2="3.819" y2="11.538" transform="translate(205.664 223.641)"/><line class="h" x2="3.819" y2="11.538" transform="translate(128.427 -38.569)"/><line class="h" x2="3.819" y2="11.538" transform="translate(137.478 -11.219)"/><line class="h" x2="3.819" y2="11.538" transform="translate(146.53 16.13)"/><line class="h" x2="3.819" y2="11.538" transform="translate(155.581 43.479)"/><line class="h" x2="3.819" y2="11.538" transform="translate(164.632 70.828)"/><line class="h" x2="3.819" y2="11.538" transform="translate(173.684 98.177)"/><line class="h" x2="3.819" y2="11.538" transform="translate(182.735 125.527)"/><line class="h" x2="3.819" y2="11.538" transform="translate(191.786 152.876)"/><line class="h" x2="3.819" y2="11.538" transform="translate(200.838 180.225)"/><line class="h" x2="3.819" y2="11.538" transform="translate(209.889 207.574)"/><line class="h" x2="3.819" y2="11.538" transform="translate(144.779 -29.312)"/><line class="h" x2="3.819" y2="11.538" transform="translate(153.83 -1.962)"/><line class="h" x2="3.819" y2="11.538" transform="translate(162.881 25.387)"/><line class="h" x2="3.819" y2="11.538" transform="translate(171.933 52.736)"/><line class="h" x2="3.819" y2="11.538" transform="translate(180.984 80.085)"/><line class="h" x2="3.819" y2="11.538" transform="translate(190.035 107.434)"/><line class="h" x2="3.819" y2="11.538" transform="translate(199.087 134.784)"/><line class="h" x2="3.819" y2="11.538" transform="translate(208.138 162.133)"/><line class="h" x2="3.819" y2="11.538" transform="translate(217.189 189.482)"/><line class="h" x2="3.819" y2="11.538" transform="translate(226.241 216.831)"/><line class="h" x2="3.819" y2="11.538" transform="translate(149.004 -45.379)"/><line class="h" x2="3.819" y2="11.538" transform="translate(158.055 -18.029)"/><line class="h" x2="3.819" y2="11.538" transform="translate(167.107 9.32)"/><line class="h" x2="3.819" y2="11.538" transform="translate(176.158 36.669)"/><line class="h" x2="3.819" y2="11.538" transform="translate(185.209 64.018)"/><line class="h" x2="3.819" y2="11.538" transform="translate(194.261 91.367)"/><line class="h" x2="3.819" y2="11.538" transform="translate(203.312 118.717)"/><line class="h" x2="3.819" y2="11.538" transform="translate(212.363 146.066)"/><line class="h" x2="3.819" y2="11.538" transform="translate(221.414 173.415)"/><line class="h" x2="3.819" y2="11.538" transform="translate(230.466 200.764)"/></g></g><path class="i" d="M118.478,62.465a7.9,7.9,0,0,0-3.381-3.811A14.128,14.128,0,0,1,118.478,62.465Z" transform="translate(170.087 65.125)"/><path class="i" d="M141.631,89.345c-.632-2.43-1.627-5.756-2.558-8.779a14.414,14.414,0,0,0,.322-2.657c.072-2.852.135-5.947.02-8.95-.215,3.17-1.114,4.817-2.279,5.449l-.477-1.472-1.631,1.679h0c-2.263-.6-4.447-7.395-7.168-6.9s-2.466,1.054-3.755,2.514-2.478,5.02-4.268,4.507c-1.683-.485-.314-2.987.167-4.507.724-2.3.247-5-.994-3.262-2.562,3.584-5.5.994-3.858-1.348,2.319-3.313,3.051-8.114-1.611-3.707a54.136,54.136,0,0,0-4.789,5.768,15.463,15.463,0,0,0,2.3,8.238c5.219,9.2,9.447,11.436,14.666,11.436.557,0,1.153,0,1.766,0-.159,1.623-.338,3.282-.521,4.471-.5,3.234-3.234,1.742-1.742,5.469s17.9-2.235,17.9-2.235Z" transform="translate(151.17 69.557)"/><path class="j" d="M118.035,69.131c0-3.5-.4-6.667-2.088-9.519,1.348,2.884,1.862,6.814,2.021,10.927C118,70.085,118.031,69.648,118.035,69.131Z" transform="translate(172.618 67.978)"/><path class="c" d="M146.98,65.378a14.125,14.125,0,0,0-3.381-3.811,21.369,21.369,0,0,0-3.071-2.084c-7.458-4.145-16.078,0-19.228.971s-15.577,7.482-15.771,10.962,7.156-2.816,5.994.167-9.117,5.967-4.642,10.772c3.115,3.345,7.5-2.176,11.456-7.327a54.144,54.144,0,0,1,4.789-5.768c4.662-4.407,3.93.394,1.611,3.707-1.639,2.343,1.3,4.932,3.858,1.348,1.241-1.738,1.718.963.994,3.262-.481,1.519-1.85,4.021-.167,4.507,1.79.513,2.983-3.043,4.268-4.507s1.034-2.017,3.755-2.514,4.9,6.3,7.168,6.9c2.068.553,4.057-.732,4.387-5.656C148.842,72.192,148.329,68.262,146.98,65.378Z" transform="translate(141.585 62.211)"/><path class="k" d="M267.256,233.342c.231-.076,36.726-12.526,48.456-32.517,3.107-5.29,4.809-12.371-.163-18.174s-16.408,7.4-50.055,10.716c-15.783,1.555-30.163-7.7-30.163-7.7l-1.977-1.086c-6.706-29.717,4.733-49.753-.99-82.163C230.7,93,224.058,91.92,220.013,91.98c-4.141.06-11-.557-15.33.664.044-.278.072-.457.072-.457s-15.911,5.219-32.569,3.461S125.7,61.109,125.7,61.109L113.018,84.482a73.942,73.942,0,0,0,2.1,22.581,50.679,50.679,0,0,1-8.962-7.625L82.286,122.059s.617-.334,10.262,18.15c18.329,35.135,53.026,35.612,53.026,35.612s5.151,29.892,23.858,57.768c16.237,24.188,39.57,42.728,89.02,43.56,48.229.8,67.219-15.871,68.71-28.548C328.787,234.786,294.388,245.1,267.256,233.342Z" transform="translate(72.386 72.435)"/><path class="l" d="M68.862,258.124a9.8,9.8,0,0,0-2.045-12.86c-6.69-5.967-12.394-13.954,6.5-23.9s26.849-15.585,26.352-30.167-8.453-22.538-3.48-29.5,24.363-7.458,29.833-14.419,2.275-30.688-2.486-42.263A21.544,21.544,0,0,1,128.181,80.9c8.5-8.19,17.1-5.469,17.1-5.469l2.339,4.908s-7.466,1.838-11.444,10.787,7.243,38.253,6.249,46.706-4.475,18.894-14.916,24.86-15.911,1.989-16.905,10.441,6.961,22.872-1.492,34.307-27.987,20.911-28.981,28.369,4.582,4.479,5.577,11.44c1.026,7.176-2.864,10.187-2.864,10.187Z" transform="translate(7.427 113.798)"/><path class="l" d="M118.733,116.555s13.62-20.8,6-34.391S101.2,70.231,97.218,66.253s-.517-18.7,13.556-13.393,14.172,8.62,24.284,5.636,7.9-12.12,13.206-9.475-6.2,16.237-2.983,27.506c3.035,10.64,6.3,17.911,18.894,15.581,28.675-5.3,13.663-16.173,24.6-21.475s15.4-1.1,19.487-7.693c5.314-8.588-1.444-16.71-6.746-13.393s4.348,6.432-5.064,9.081-15.417,3.365-18.592,12.927c-3.66,11.022-18.325,14.256-21.973,6.3s-1.989-11.273.33-19.888,4.924-15.577-7.9-16.83c-10.608-1.038-9,6.551-13.309,9.869s-9.507-4.777-27.132-7.426S85.615,51.667,84.62,58.3s2.243,15.911,11.233,18.564,21.583,4.308,21.583,13.588-4.519,19.534-4.519,19.534Z" transform="translate(78.823 12.681)"/><path class="l" d="M79.12,257.127s-16.67-19.4-10.207-29.347,12.7-10.215,32.494-11.682,27.852-18.647,36.459-22.625,26.014,3.48,37.533-13.126c6.551-9.439,1.078-25.115,6.3-28.6s9.582.044,17.239-11.48c5.434-8.186,6.869-26.563-6.464-32.569C162.6,94.253,171.056,83.123,171.056,83.123l-3.874-7.605s-11.412,8.6-4.328,21.774c4.574,8.508,30.612,21.1,28.126,32.537s-11.11,6.13-15.664,11.842c-8.154,10.231-2.232,27.975-11.436,34.168s-17.7,1.356-26.014,4.507-16.249,19.093-31.165,22.573-21.985-2.307-36.793,4.972c-12.713,6.245-19.391,14.666-15.413,29.833s14.519,19.912,14.519,19.912Z" transform="translate(-13.779 115.34)"/><path class="l" d="M177.914,34.291c-3.015-5.354-14.419-10.191-20.632-3.48s-5.223,23.122-13.425,26.352-19.888-2.235-26.849-1.241a13.078,13.078,0,0,0-11.189,13.922c.5,6.71,13.922,22.374,11.189,32.816s-12.43,17.152-21.38,20.883-10.557,8.15-9.447,13.922c1.8,9.355,9.009,11.141,11.838,10.915a2.813,2.813,0,0,1,1.9.378c.1-.056.167-.135.267-.187a6.381,6.381,0,0,1,3.958-.056l3.222,1.086s1.237-3.651-2.49-7.132c-1.257-1.177-5.056,0-7.51-2.518-5.27-5.414.414-9.117,6.05-11.436s17.732-9.117,20.219-17.736,2.486-14.252,0-24.029-9.161-18.592,2.538-19.693c11.265-1.058,28.349,3.4,34.093-8.9,5.326-11.4,5.7-16.706,11.484-16.957S181.554,40.755,177.914,34.291Z" transform="translate(83.066 -27.536)"/><path class="i" d="M108.757,61.739a12.644,12.644,0,0,0-5.963-3.13c-1.671-.374-4.049-.971-4.92-.6a2.592,2.592,0,0,0-1.583,3.576c-3.7,2.2-3.2,4.63-3.2,4.63s-1.607-.195-3.178,2.514c-2.156,3.711-.334,4.8-.334,4.8A5.858,5.858,0,0,0,86.809,78.5c-.064,3.731,1.233,7.808,3.8,9.841a34.162,34.162,0,0,0,3.978,2.733l4.972,2.987,12.681-23.373S112.735,64.973,108.757,61.739Z" transform="translate(85.847 62.855)"/><path class="c" d="M108.393,61.951c-1.957.887-5.294,1.527-5.091,3.357s2.852,1.937,4.276.509S110.171,61.139,108.393,61.951Z" transform="translate(134.938 74.561)"/><path class="l" d="M89.806,65.055s-3.146.5-2.939,5.119c.27,6.006,6.44,3.15,6.2,6.4-.247,3.445-3.182,1.933-3.182,1.933s-1.126,4.952,4.177,5.561c6.511.744,14.2-10.561,8.3-11.34-11.062-1.464-8.079-4.944-8.079-4.944Z" transform="translate(85.996 84.185)"/><g transform="translate(0 369.956)"><path class="k" d="M60.253,127.555l-13.178,91.2h92.481l-8.336-91.264-.047-.522H60.319Z" transform="translate(-32.462 -101.404)"/><path class="k" d="M47.407,122.279c-3.166.35-5.406,1.531-2.983,3.317.64.473,4.781.716,11.153.792v-4.531Z" transform="translate(-43.401 -116.633)"/><path class="k" d="M80.777,120.557c-.382-.056-3.89.064-9.4.3v6.384c7.12-.422,11.674-.8,12.052-1.05C85.419,124.865,83.1,120.887,80.777,120.557Z" transform="translate(39.906 -120.544)"/><path class="c" d="M52.2,124.642,50.4,140.54h70.854l-1.631-18.126C99.783,123.353,72.615,124.319,52.2,124.642Z" transform="translate(-22.548 -114.974)"/><path class="k" d="M46.462,125.534v4.531c4.749.056,10.74.02,17.474-.087,20.417-.322,47.585-1.289,67.43-2.228,5.37-.255,10.191-.509,14.2-.744v-6.384C123.259,121.577,67.448,124.445,46.462,125.534Z" transform="translate(-34.286 -120.31)"/></g><path class="l" d="M108.69,68.867c.231-4.726-6.289-10.131-18.85-4.733s-12.558,14.447-4.6,17.546,17.526,4.013,20.919,4.6,1.866,3.282,1.866,3.282l4.025,2.542s1.893-11.766-7.943-13.11c-23.54-3.21-5.871-13.966-4.117-8.966,3.234,9.2,9.033,8.532,9.033,8.532L110.97,74.5S108.491,72.908,108.69,68.867Z" transform="translate(64.832 74.737)"/><path class="i" d="M108.789,79.767s0-6.464-1.738-8.453-4.674-4.109-6.336-3.107c-2.562,1.547-1.372,3.353-1.372,3.353s-2.772-1.7-5.258.044A7.227,7.227,0,0,0,91.14,75.77s-1.138-.4-2.88,1.09S86.912,82,86.912,82s-3.727.748-4.475,2.737-1.492,8.2,0,11.682a59.89,59.89,0,0,0,2.769,5.7Z" transform="translate(70.274 92.81)"/><path class="f" d="M153.012,187.368l-2.761,4.165L67.83,149.962s-1.551-2.812.266-4.964c1.889-2.24,3.23-1.81,3.23-1.81s-3,1.054,1.555,3.675,80.222,38.85,80.222,38.85Z" transform="translate(27.504 316.741)"/><path class="m" d="M72.978,66.643" transform="translate(44.67 88.914)"/><path class="m" d="M70.369,70.695" transform="translate(36.901 100.979)"/><path class="m" d="M73.638,68.209" transform="translate(46.635 93.577)"/><path class="m" d="M70.732,73.138" transform="translate(37.982 108.254)"/></g><g transform="translate(150.027 181.628)"><path class="m" d="M183.08,114.055s5.517,20.855-47.732,61.654C94.139,207.276,90.3,245.119,90.3,245.119" transform="translate(17.462 75.999)"/><path class="m" d="M111.691,168.113s3.11,1.277,20.636-10.068c14.129-9.149,23.21-13.011,23.21-13.011" transform="translate(81.143 168.244)"/><path class="m" d="M77.316,142.18A140.49,140.49,0,0,0,98.9,156.368c12.8,7.025,13.811,5.867,13.811,5.867" transform="translate(-21.215 159.746)"/><path class="m" d="M64.067,172.241s-5.151-18.767,16.678-23.58c37.124-8.19,16.945-25.278,16.014-48.87s18.6-27.987,18.6-27.987" transform="translate(-62.242 -49.808)"/><path class="m" d="M125.7,99.83s11.436,4.475,27.347,0,23.369-10.441,23.369-10.441" transform="translate(122.857 2.551)"/><path class="m" d="M135,93.554c8.075-3.671,10.028-5.851,10.028-5.851" transform="translate(150.561 -2.469)"/><path class="m" d="M127.832,92.344a57.035,57.035,0,0,0,23.023-2.605" transform="translate(129.205 3.594)"/><path class="n" d="M91.129,85.117s10.959,15.545,51.213,12.3C162.385,95.8,172,89.5,172,89.5" transform="translate(19.916 -10.169)"/><path class="n" d="M121.587,94.721s7.3,21.877,26.686,33.313c14.534,8.572,26.185,7.458,26.185,7.458" transform="translate(110.61 18.428)"/><path class="n" d="M96.1,93.856a62.537,62.537,0,0,0,18.417,1.209c15.7-1.245,35.946-20.636,48.436-24.677a32.629,32.629,0,0,1,15.923-1.122" transform="translate(34.721 -58.943)"/><path class="n" d="M91.066,72.958a62,62,0,0,0,11.615,5.835" transform="translate(19.728 -46.375)"/><path class="m" d="M88.558,93.221s-10.262,0-13.993,10.028c-3.52,9.471,10.441,22.128,4.471,32.072-4.061,6.758-15.823,4.686-15.823,4.686" transform="translate(-63.212 13.962)"/><path class="m" d="M134.343,102.829s-.959,13.862-18.421,17.732c-25.012,5.541-20.576,6.81-27.792,17.307-5.819,8.468-18.079,9.614-18.079,9.614" transform="translate(-42.845 42.571)"/><path class="m" d="M70.671,128.5a26.962,26.962,0,0,0,14.005-4.94A45.806,45.806,0,0,0,95.695,112.1" transform="translate(-41.002 70.165)"/><path class="k" d="M94.611,66.275l-23.13,7.154,10.508,16.2Z" transform="translate(-38.59 -66.275)"/><path class="m" d="M73.549,124.774s-8.922-27.1,0-41.61c3.52-5.724,8.345-10.859,12.16-13.174" transform="translate(-44.238 -55.216)"/><path class="m" d="M85.906,69.034s-4.224,1.241-10.728,8.285c-5.255,5.7-6.424,10.243-6.424,10.243" transform="translate(-46.71 -58.059)"/><path class="k" d="M85.587,112.331l8.062,4.82,2.039-19.786Z" transform="translate(3.413 26.301)"/><path class="m" d="M136.379,104.983s11.289.442,16.034.931c8.7.891,9.439,2.052,9.439,2.052" transform="translate(154.656 48.985)"/></g></g></svg>