<svg xmlns="http://www.w3.org/2000/svg" xmlns:xlink="http://www.w3.org/1999/xlink" width="559.527" height="314.581" viewBox="0 0 559.527 314.581"><defs><style>.a{fill:#12151e;}.b,.d,.e,.o{fill:none;}.c{fill:#f8f9ff;}.d{stroke:#600;}.d,.e{stroke-linejoin:round;}.d,.e,.l,.o{stroke-width:0.25px;}.e{stroke:#30384f;}.f{fill:#e897a3;}.g{fill:#8057a7;}.h{fill:#ffc529;}.i{fill:#9ecbe3;}.j{fill:#171a24;}.k{clip-path:url(#a);}.l{fill:#fff;stroke:#44a1db;}.l,.o{stroke-miterlimit:10;}.m{fill:#30384f;}.n{clip-path:url(#b);}.o{stroke:#fff;}.p{clip-path:url(#c);}</style><clipPath id="a"><ellipse class="a" cx="32.073" cy="102.752" rx="32.073" ry="102.752" transform="translate(0 64.145) rotate(-89.848)"/></clipPath><clipPath id="b"><ellipse class="b" cx="92.773" cy="26.742" rx="92.773" ry="26.742"/></clipPath><clipPath id="c"><path class="b" d="M258.815,75.449s-5.53,9.124-18.243,21.485-19.336,14.565-35.1,19.514c-14.793,4.649-41.317,4.238-54.737,4.945s-47.851-2.038-74.819,25.862c-28.409,29.392-8.958,89.087-8.958,89.087l52.436-4.288,8.3,22.3a25.185,25.185,0,0,1,6.39,1.377c6.378,1.793,15.2,5.619,14.98,13.09-.089,2.882-2.483,1.521-2.119,3.178.038.169.017.271.047.432a850.583,850.583,0,0,0,91.062,4.848c4.034,0,8.022-.034,11.988-.085-4.805-10.433-11.929-26.493-14.2-34.676a103.472,103.472,0,0,1-2.627-15.866c-.335-3.288-.576-6.806-.746-10.369-.619-13.149.042-27.2,3.174-35.032,5.653-14.124,35.689-24.544,57.055-48.554,17.853-20.069,21.01-36.905,21.01-36.905Z" transform="translate(-60.461 -75.449)"/></clipPath></defs><g transform="translate(-41.547 -50.687)"><path class="c" d="M219.941,74.29C186.8,88.6,120.34,69.214,97.33,117.768c-27.756,58.568-76.094,65.022-39.537,111.7S112.5,224.2,198.439,241.938c87.328,18.023,107.686-27.621,182.755-15.692,91.163,14.484,146.947-22.891,79.582-113.284C411.484,46.818,307.807,36.343,219.941,74.29Z" transform="translate(10.009 5.559)"/><path class="d" d="M64.741,124.8c15.039-6.068,38.583-11.208,67.674-14.857q2.9-.362,5.869-.708" transform="translate(75.092 189.548)"/><path class="e" d="M388.8,139.653c-34.608,6.708-83.993,10.908-138.819,10.908-104.685,0-189.552-15.31-189.552-34.193" transform="translate(61.131 212.645)"/><path class="f" d="M113.854,133.229s12.242-21.014,3.5-36.731c-4.085-7.339-15.069-14.387-11.391-16.594s11.17,1.809,12.272-3.708S115.363,58.105,121.808,59c3.136.436,1.14,3.865,6.674,4.479,4.767.53,1.394-6.259,6.178-5.822s3.848,6.395,8.632,6.395,7.636-9.153,10.789-4.9c3.093,4.166,1.047,5.56,3.623,7.768s4.78-6.149,7.238,3.975c1.1,4.522,6.051,28.328,7.5,42.109,2.119,20.1-3.674,40.439-3.674,40.439Z" transform="translate(206.165 22.511)"/><path class="g" d="M63.61,55.483s8.166-8.823,18.624-1.958,18.95,14.7,23.523,10.454,2.67-14.971,12.09-13.069c11.717,2.369,34.308,9.8,33,25.159s-14.048,19.277-5.551,25.159,22.624,3.267,27.811,12.742-6.25,18.3-1.674,25.159,4.246,3.92,6.208,7.84-.653,6.208-2.615,4.9-4.246.979-7.513-4.577-5.555-10.78-16.34-4.9-18.908,19.362-30.2,9.844,7.331-23.569-2.47-28.468-23.849,13.721-32.672,9.8-10.785-12.416-4.577-24.832-8.818-10.128-14.7-16.336S44.66,76.07,63.61,55.483Z" transform="translate(42.347 0)"/><path class="h" d="M113.038,112.4,75.15,115.5c-8.183,3.581-12.726,7.5-12.726,11.615,0,8.984,21.557,17.061,55.843,22.646l-6-31.053Z" transform="translate(67.59 199.817)"/><path class="c" d="M275.915,139.188c0-16.853-75.785-30.511-169.275-30.511-1.873,0-3.729.013-5.589.025.17,3.564.411,7.081.746,10.369a103.471,103.471,0,0,0,2.627,15.866c2.276,8.183,9.4,24.243,14.2,34.676C206.516,168.508,275.915,155.312,275.915,139.188Z" transform="translate(192.649 187.747)"/><path class="f" d="M114.43,112.405l-52.436,4.289,14.549-1.19Z" transform="translate(66.198 199.817)"/><path class="b" d="M76.327,117.667a51.171,51.171,0,0,1,6.39,1.377A25.185,25.185,0,0,0,76.327,117.667Z" transform="translate(112.602 216.853)"/><path class="b" d="M114.43,112.405l-52.436,4.289,14.549-1.19Z" transform="translate(66.198 199.817)"/><path class="h" d="M258.815,75.449s-5.53,9.124-18.243,21.485-19.336,14.565-35.1,19.514c-14.793,4.649-41.317,4.238-54.737,4.945s-47.851-2.038-74.819,25.862c-28.409,29.392-8.958,89.087-8.958,89.087l52.436-4.288,8.3,22.3a25.185,25.185,0,0,1,6.39,1.377c6.378,1.793,15.2,5.619,14.98,13.09-.089,2.882-2.483,1.521-2.119,3.178.038.169.017.271.047.432a850.583,850.583,0,0,0,91.062,4.848c4.034,0,8.022-.034,11.988-.085-4.805-10.433-11.929-26.493-14.2-34.676a103.472,103.472,0,0,1-2.627-15.866c-.335-3.288-.576-6.806-.746-10.369-.619-13.149.042-27.2,3.174-35.032,5.653-14.124,35.689-24.544,57.055-48.554,17.853-20.069,21.01-36.905,21.01-36.905Z" transform="translate(61.234 80.169)"/><path class="f" d="M129.122,136.08a51.172,51.172,0,0,0-6.39-1.377l-8.3-22.3-37.888,3.1-14.548,1.191S70.469,140,76.826,148.124s24.366,12.361,34.608,12.713,8.475,4.238,14.124,4.589,2.826-3.106,2.826-3.106,1.687-.008,4.941-.072c5.081-.1,4.157-5.661,4.157-5.661s5.6,2.2,4.547-3.805c-.03-.161-.008-.263-.047-.432-.364-1.657,2.03-.3,2.119-3.178C144.326,141.7,135.5,137.873,129.122,136.08Z" transform="translate(66.198 199.817)"/><g transform="translate(395.284 291.096)"><ellipse class="i" cx="32.073" cy="102.752" rx="32.073" ry="102.752" transform="translate(0.115 67.407) rotate(-89.848)"/><g transform="translate(0.115 3.262)"><path class="j" d="M32.073,0C49.786,0,64.145,46,64.145,102.752S49.786,205.5,32.073,205.5,0,159.5,0,102.752,14.359,0,32.073,0Z" transform="translate(0 64.145) rotate(-89.848)"/><g class="k" transform="translate(0 0)"><g transform="translate(-0.209 22.37)"><line class="l" x2="1.722" y2="48.798" transform="translate(0 1.578)"/><line class="l" x2="1.722" y2="48.798" transform="translate(4.968 1.403)"/><line class="l" x2="1.722" y2="48.798" transform="translate(9.935 1.227)"/><line class="l" x2="1.722" y2="48.798" transform="translate(14.903 1.052)"/><line class="l" x2="1.722" y2="48.798" transform="translate(19.871 0.877)"/><line class="l" x2="1.722" y2="48.798" transform="translate(24.839 0.701)"/><line class="l" x2="1.722" y2="48.798" transform="translate(29.806 0.526)"/><line class="l" x2="1.722" y2="48.798" transform="translate(34.774 0.351)"/><line class="l" x2="1.722" y2="48.798" transform="translate(39.742 0.175)"/><line class="l" x2="1.722" y2="48.798" transform="translate(44.709)"/></g><g transform="translate(51.07 35.932)"><g transform="translate(0 2.027)"><line class="l" x2="1.101" y2="31.183" transform="translate(0 1.817)"/><line class="l" x2="1.101" y2="31.183" transform="translate(5.719 1.615)"/><line class="l" x2="1.101" y2="31.183" transform="translate(11.439 1.413)"/><line class="l" x2="1.101" y2="31.183" transform="translate(17.159 1.211)"/><line class="l" x2="1.101" y2="31.183" transform="translate(22.878 1.009)"/><line class="l" x2="1.101" y2="31.183" transform="translate(28.598 0.808)"/><line class="l" x2="1.101" y2="31.183" transform="translate(34.317 0.606)"/><line class="l" x2="1.101" y2="31.183" transform="translate(40.037 0.404)"/><line class="l" x2="1.101" y2="31.183" transform="translate(45.756 0.202)"/><line class="l" x2="1.101" y2="31.183" transform="translate(51.476)"/></g><g transform="translate(57.428)"><line class="l" x2="1.101" y2="31.183" transform="translate(0 1.817)"/><line class="l" x2="1.101" y2="31.183" transform="translate(5.72 1.615)"/><line class="l" x2="1.101" y2="31.183" transform="translate(11.439 1.413)"/><line class="l" x2="1.101" y2="31.183" transform="translate(17.159 1.211)"/><line class="l" x2="1.101" y2="31.183" transform="translate(22.878 1.009)"/><line class="l" x2="1.101" y2="31.183" transform="translate(28.598 0.808)"/><line class="l" x2="1.101" y2="31.183" transform="translate(34.317 0.606)"/><line class="l" x2="1.101" y2="31.183" transform="translate(40.037 0.404)"/><line class="l" x2="1.101" y2="31.183" transform="translate(45.756 0.202)"/><line class="l" x2="1.101" y2="31.183" transform="translate(51.476)"/></g></g><g transform="translate(165.925 31.878)"><g transform="translate(0 2.247)"><line class="l" x2="1.101" y2="31.183" transform="translate(0 1.597)"/><line class="l" x2="1.101" y2="31.183" transform="translate(5.027 1.419)"/><line class="l" x2="1.101" y2="31.183" transform="translate(10.053 1.242)"/><line class="l" x2="1.101" y2="31.183" transform="translate(15.079 1.064)"/><line class="l" x2="1.101" y2="31.183" transform="translate(20.106 0.887)"/><line class="l" x2="1.101" y2="31.183" transform="translate(25.132 0.71)"/><line class="l" x2="1.101" y2="31.183" transform="translate(30.159 0.532)"/><line class="l" x2="1.101" y2="31.183" transform="translate(35.185 0.355)"/><line class="l" x2="1.101" y2="31.183" transform="translate(40.212 0.177)"/><line class="l" x2="1.101" y2="31.183" transform="translate(45.238)"/></g><g transform="translate(57.428)"><line class="l" x2="1.101" y2="31.183" transform="translate(0 1.817)"/><line class="l" x2="1.101" y2="31.183" transform="translate(5.72 1.615)"/><line class="l" x2="1.101" y2="31.183" transform="translate(11.439 1.413)"/><line class="l" x2="1.101" y2="31.183" transform="translate(17.159 1.211)"/><line class="l" x2="1.101" y2="31.183" transform="translate(22.878 1.009)"/><line class="l" x2="1.101" y2="31.183" transform="translate(28.598 0.808)"/><line class="l" x2="1.101" y2="31.183" transform="translate(34.317 0.606)"/><line class="l" x2="1.101" y2="31.183" transform="translate(40.037 0.404)"/><line class="l" x2="1.101" y2="31.183" transform="translate(45.756 0.202)"/><line class="l" x2="1.101" y2="31.183" transform="translate(51.476)"/></g></g></g></g><path class="m" d="M32.073,0C49.786,0,64.145,46,64.145,102.752S49.786,205.5,32.073,205.5,0,159.5,0,102.752,14.359,0,32.073,0Z" transform="translate(0 64.145) rotate(-89.848)"/><g transform="translate(11.685 3.47)"><g class="n"><g transform="translate(-17.24 -13.728)"><line class="o" x1="19.301" y2="69.089" transform="translate(24.7 6.571)"/><line class="o" x1="14.537" y2="68.921" transform="translate(43.51 6.075)"/><line class="o" x1="9.772" y2="68.752" transform="translate(62.319 5.579)"/><line class="o" x1="5.008" y2="68.584" transform="translate(81.129 5.083)"/><line class="o" x1="0.243" y2="68.416" transform="translate(99.939 4.588)"/><line class="o" x2="4.521" y2="68.248" transform="translate(114.227 4.092)"/><line class="o" x2="9.286" y2="68.08" transform="translate(128.272 3.596)"/><line class="o" x2="14.051" y2="67.912" transform="translate(142.317 3.1)"/><line class="o" x2="18.815" y2="67.743" transform="translate(156.363 2.605)"/><line class="o" x2="23.58" y2="67.575" transform="translate(170.408 2.109)"/><line class="o" y1="7.834" x2="221.95" transform="translate(0 84.468)"/><line class="o" y1="7.573" x2="214.552" transform="translate(3.363 75.083)"/><line class="o" y1="7.312" x2="207.153" transform="translate(6.727 65.698)"/><line class="o" y1="7.051" x2="199.755" transform="translate(10.09 56.312)"/><line class="o" y1="6.789" x2="192.357" transform="translate(13.453 46.927)"/><line class="o" y1="6.528" x2="184.958" transform="translate(16.816 37.541)"/><line class="o" y1="6.267" x2="177.56" transform="translate(20.18 28.156)"/><line class="o" y1="6.006" x2="170.162" transform="translate(23.543 18.771)"/><line class="o" y1="5.745" x2="162.763" transform="translate(26.906 9.385)"/><line class="o" y1="5.484" x2="155.365" transform="translate(30.27)"/></g></g><ellipse class="o" cx="92.773" cy="26.742" rx="92.773" ry="26.742"/></g></g><g transform="translate(121.695 155.618)"><g class="p"><path class="o" d="M32.4,140.03l7.121,4.54,7.119-4.54,7.12,4.54,7.121-4.54" transform="translate(-151.303 133.638)"/><path class="o" d="M32.4,141.1l7.121,4.54,7.119-4.54,7.12,4.54,7.121-4.54" transform="translate(-151.303 137.107)"/><path class="o" d="M43.318,139.971l7.121,4.54,7.119-4.54,7.12,4.54,7.121-4.54" transform="translate(-115.962 133.445)"/><path class="o" d="M43.318,141.042l7.121,4.54,7.119-4.54,7.12,4.54,7.121-4.54" transform="translate(-115.962 136.914)"/><path class="o" d="M54.234,139.911l7.121,4.54,7.119-4.54,7.12,4.54,7.121-4.54" transform="translate(-80.622 133.253)"/><path class="o" d="M54.234,140.982l7.121,4.54,7.119-4.54,7.12,4.54,7.121-4.54" transform="translate(-80.622 136.721)"/><path class="o" d="M65.15,139.852l7.121,4.54,7.119-4.54,7.12,4.54,7.121-4.54" transform="translate(-45.281 133.06)"/><path class="o" d="M65.15,140.923l7.121,4.54,7.119-4.54,7.12,4.54,7.121-4.54" transform="translate(-45.281 136.529)"/><path class="o" d="M76.065,139.792l7.121,4.54,7.119-4.54,7.12,4.54,7.121-4.54" transform="translate(-9.94 132.867)"/><path class="o" d="M76.065,140.863l7.121,4.54,7.119-4.54,7.12,4.54,7.121-4.54" transform="translate(-9.94 136.336)"/><path class="o" d="M86.981,139.733l7.121,4.54,7.119-4.54,7.12,4.54,7.121-4.54" transform="translate(25.4 132.675)"/><path class="o" d="M86.981,140.8l7.121,4.54,7.119-4.54,7.12,4.54,7.121-4.54" transform="translate(25.4 136.143)"/><path class="o" d="M97.9,139.673l7.121,4.54,7.119-4.54,7.12,4.54,7.121-4.54" transform="translate(60.741 132.482)"/><path class="o" d="M97.9,140.744l7.121,4.54,7.119-4.54,7.12,4.54,7.121-4.54" transform="translate(60.741 135.951)"/><path class="o" d="M108.813,139.613l7.121,4.54,7.119-4.54,7.12,4.54,7.121-4.54" transform="translate(96.082 132.289)"/><path class="o" d="M108.813,140.685l7.121,4.54,7.119-4.54,7.12,4.54,7.121-4.54" transform="translate(96.082 135.758)"/><path class="o" d="M119.728,139.554l7.121,4.54,7.119-4.54,7.12,4.54,7.121-4.54" transform="translate(131.423 132.097)"/><path class="o" d="M119.728,140.625l7.121,4.54,7.119-4.54,7.12,4.54,7.121-4.54" transform="translate(131.423 135.565)"/><path class="o" d="M130.644,139.494l7.121,4.54,7.119-4.54,7.12,4.54,7.121-4.54" transform="translate(166.763 131.904)"/><path class="o" d="M130.644,140.566l7.121,4.54,7.119-4.54,7.12,4.54,7.121-4.54" transform="translate(166.763 135.373)"/><path class="o" d="M27.012,136.18l7.121,4.54,7.119-4.54,7.12,4.54,7.121-4.54" transform="translate(-168.754 121.172)"/><path class="o" d="M27.012,137.251l7.121,4.54,7.119-4.54,7.12,4.54,7.121-4.54" transform="translate(-168.754 124.64)"/><path class="o" d="M37.928,136.12l7.121,4.54,7.119-4.54,7.12,4.54,7.121-4.54" transform="translate(-133.414 120.979)"/><path class="o" d="M37.928,137.191l7.121,4.54,7.119-4.54,7.12,4.54,7.121-4.54" transform="translate(-133.414 124.448)"/><path class="o" d="M48.844,136.06l7.121,4.54,7.119-4.54,7.12,4.54,7.121-4.54" transform="translate(-98.073 120.786)"/><path class="o" d="M48.844,137.132l7.121,4.54,7.119-4.54,7.12,4.54,7.121-4.54" transform="translate(-98.073 124.255)"/><path class="o" d="M59.759,136l7.121,4.54L74,136l7.12,4.54L88.24,136" transform="translate(-62.732 120.593)"/><path class="o" d="M59.759,137.072l7.121,4.54L74,137.072l7.12,4.54,7.121-4.54" transform="translate(-62.732 124.062)"/><path class="o" d="M70.675,135.941l7.121,4.54,7.119-4.54,7.12,4.54,7.121-4.54" transform="translate(-27.391 120.401)"/><path class="o" d="M70.675,137.013l7.121,4.54,7.119-4.54,7.12,4.54,7.121-4.54" transform="translate(-27.391 123.869)"/><path class="o" d="M81.591,135.882l7.121,4.54,7.119-4.54,7.12,4.54,7.121-4.54" transform="translate(7.949 120.208)"/><path class="o" d="M81.591,136.953l7.121,4.54,7.119-4.54,7.12,4.54,7.121-4.54" transform="translate(7.949 123.677)"/><path class="o" d="M92.507,135.822l7.121,4.54,7.119-4.54,7.12,4.54,7.121-4.54" transform="translate(43.29 120.015)"/><path class="o" d="M92.507,136.894l7.121,4.54,7.119-4.54,7.12,4.54,7.121-4.54" transform="translate(43.29 123.484)"/><path class="o" d="M103.422,135.763l7.121,4.54,7.119-4.54,7.12,4.54,7.121-4.54" transform="translate(78.631 119.823)"/><path class="o" d="M103.422,136.834l7.121,4.54,7.119-4.54,7.12,4.54,7.121-4.54" transform="translate(78.631 123.291)"/><path class="o" d="M114.338,135.7l7.121,4.54,7.119-4.54,7.12,4.54,7.121-4.54" transform="translate(113.971 119.63)"/><path class="o" d="M114.338,136.775l7.121,4.54,7.119-4.54,7.12,4.54,7.121-4.54" transform="translate(113.971 123.099)"/><path class="o" d="M125.254,135.644l7.121,4.54,7.119-4.54,7.12,4.54,7.121-4.54" transform="translate(149.312 119.437)"/><path class="o" d="M125.254,136.715l7.121,4.54,7.119-4.54,7.12,4.54,7.121-4.54" transform="translate(149.312 122.906)"/><path class="o" d="M32.4,131.99l7.121,4.54,7.119-4.54,7.12,4.54,7.121-4.54" transform="translate(-151.303 107.607)"/><path class="o" d="M32.4,133.061l7.121,4.54,7.119-4.54,7.12,4.54,7.121-4.54" transform="translate(-151.303 111.076)"/><path class="o" d="M43.318,131.93l7.121,4.54,7.119-4.54,7.12,4.54,7.121-4.54" transform="translate(-115.962 107.414)"/><path class="o" d="M43.318,133l7.121,4.54L57.557,133l7.12,4.54L71.8,133" transform="translate(-115.962 110.883)"/><path class="o" d="M54.234,131.871l7.121,4.54,7.119-4.54,7.12,4.54,7.121-4.54" transform="translate(-80.622 107.222)"/><path class="o" d="M54.234,132.942l7.121,4.54,7.119-4.54,7.12,4.54,7.121-4.54" transform="translate(-80.622 110.69)"/><path class="o" d="M65.15,131.811l7.121,4.54,7.119-4.54,7.12,4.54,7.121-4.54" transform="translate(-45.281 107.029)"/><path class="o" d="M65.15,132.883l7.121,4.54,7.119-4.54,7.12,4.54,7.121-4.54" transform="translate(-45.281 110.498)"/><path class="o" d="M76.065,131.752l7.121,4.54,7.119-4.54,7.12,4.54,7.121-4.54" transform="translate(-9.94 106.836)"/><path class="o" d="M76.065,132.823l7.121,4.54,7.119-4.54,7.12,4.54,7.121-4.54" transform="translate(-9.94 110.305)"/><path class="o" d="M86.981,131.692l7.121,4.54,7.119-4.54,7.12,4.54,7.121-4.54" transform="translate(25.4 106.644)"/><path class="o" d="M86.981,132.764,94.1,137.3l7.119-4.54,7.12,4.54,7.121-4.54" transform="translate(25.4 110.112)"/><path class="o" d="M97.9,131.633l7.121,4.54,7.119-4.54,7.12,4.54,7.121-4.54" transform="translate(60.741 106.451)"/><path class="o" d="M97.9,132.7l7.121,4.54,7.119-4.54,7.12,4.54,7.121-4.54" transform="translate(60.741 109.919)"/><path class="o" d="M108.813,131.573l7.121,4.54,7.119-4.54,7.12,4.54,7.121-4.54" transform="translate(96.082 106.258)"/><path class="o" d="M108.813,132.645l7.121,4.54,7.119-4.54,7.12,4.54,7.121-4.54" transform="translate(96.082 109.727)"/><path class="o" d="M119.728,131.514l7.121,4.54,7.119-4.54,7.12,4.54,7.121-4.54" transform="translate(131.423 106.065)"/><path class="o" d="M119.728,132.585l7.121,4.54,7.119-4.54,7.12,4.54,7.121-4.54" transform="translate(131.423 109.534)"/><path class="o" d="M130.644,131.454l7.121,4.54,7.119-4.54,7.12,4.54,7.121-4.54" transform="translate(166.763 105.873)"/><path class="o" d="M130.644,132.526l7.121,4.54,7.119-4.54,7.12,4.54,7.121-4.54" transform="translate(166.763 109.341)"/><path class="o" d="M27.012,128.139l7.121,4.54,7.119-4.54,7.12,4.54,7.121-4.54" transform="translate(-168.754 95.14)"/><path class="o" d="M27.012,129.211l7.121,4.54,7.119-4.54,7.12,4.54,7.121-4.54" transform="translate(-168.754 98.609)"/><path class="o" d="M37.928,128.08l7.121,4.54,7.119-4.54,7.12,4.54,7.121-4.54" transform="translate(-133.414 94.948)"/><path class="o" d="M37.928,129.151l7.121,4.54,7.119-4.54,7.12,4.54,7.121-4.54" transform="translate(-133.414 98.416)"/><path class="o" d="M48.844,128.02l7.121,4.54,7.119-4.54,7.12,4.54,7.121-4.54" transform="translate(-98.073 94.755)"/><path class="o" d="M48.844,129.092l7.121,4.54,7.119-4.54,7.12,4.54,7.121-4.54" transform="translate(-98.073 98.224)"/><path class="o" d="M59.759,127.961l7.121,4.54L74,127.961l7.12,4.54,7.121-4.54" transform="translate(-62.732 94.562)"/><path class="o" d="M59.759,129.032l7.121,4.54L74,129.032l7.12,4.54,7.121-4.54" transform="translate(-62.732 98.031)"/><path class="o" d="M70.675,127.9l7.121,4.54,7.119-4.54,7.12,4.54,7.121-4.54" transform="translate(-27.391 94.37)"/><path class="o" d="M70.675,128.973l7.121,4.54,7.119-4.54,7.12,4.54,7.121-4.54" transform="translate(-27.391 97.838)"/><path class="o" d="M81.591,127.842l7.121,4.54,7.119-4.54,7.12,4.54,7.121-4.54" transform="translate(7.949 94.177)"/><path class="o" d="M81.591,128.913l7.121,4.54,7.119-4.54,7.12,4.54,7.121-4.54" transform="translate(7.949 97.646)"/><path class="o" d="M92.507,127.782l7.121,4.54,7.119-4.54,7.12,4.54,7.121-4.54" transform="translate(43.29 93.984)"/><path class="o" d="M92.507,128.854l7.121,4.54,7.119-4.54,7.12,4.54,7.121-4.54" transform="translate(43.29 97.453)"/><path class="o" d="M103.422,127.723l7.121,4.54,7.119-4.54,7.12,4.54,7.121-4.54" transform="translate(78.631 93.792)"/><path class="o" d="M103.422,128.794l7.121,4.54,7.119-4.54,7.12,4.54,7.121-4.54" transform="translate(78.631 97.26)"/><path class="o" d="M114.338,127.663l7.121,4.54,7.119-4.54,7.12,4.54,7.121-4.54" transform="translate(113.971 93.599)"/><path class="o" d="M114.338,128.734l7.121,4.54,7.119-4.54,7.12,4.54,7.121-4.54" transform="translate(113.971 97.067)"/><path class="o" d="M125.254,127.6l7.121,4.54,7.119-4.54,7.12,4.54,7.121-4.54" transform="translate(149.312 93.406)"/><path class="o" d="M125.254,128.675l7.121,4.54,7.119-4.54,7.12,4.54,7.121-4.54" transform="translate(149.312 96.875)"/><path class="o" d="M32.4,123.95l7.121,4.54,7.119-4.54,7.12,4.54,7.121-4.54" transform="translate(-151.303 81.576)"/><path class="o" d="M32.4,125.021l7.121,4.54,7.119-4.54,7.12,4.54,7.121-4.54" transform="translate(-151.303 85.045)"/><path class="o" d="M43.318,123.89l7.121,4.54,7.119-4.54,7.12,4.54,7.121-4.54" transform="translate(-115.962 81.383)"/><path class="o" d="M43.318,124.961l7.121,4.54,7.119-4.54,7.12,4.54,7.121-4.54" transform="translate(-115.962 84.852)"/><path class="o" d="M54.234,123.831l7.121,4.54,7.119-4.54,7.12,4.54,7.121-4.54" transform="translate(-80.622 81.191)"/><path class="o" d="M54.234,124.9l7.121,4.54,7.119-4.54,7.12,4.54,7.121-4.54" transform="translate(-80.622 84.659)"/><path class="o" d="M65.15,123.771l7.121,4.54,7.119-4.54,7.12,4.54,7.121-4.54" transform="translate(-45.281 80.998)"/><path class="o" d="M65.15,124.842l7.121,4.54,7.119-4.54,7.12,4.54,7.121-4.54" transform="translate(-45.281 84.467)"/><path class="o" d="M76.065,123.711l7.121,4.54,7.119-4.54,7.12,4.54,7.121-4.54" transform="translate(-9.94 80.805)"/><path class="o" d="M76.065,124.783l7.121,4.54,7.119-4.54,7.12,4.54,7.121-4.54" transform="translate(-9.94 84.274)"/><path class="o" d="M86.981,123.652l7.121,4.54,7.119-4.54,7.12,4.54,7.121-4.54" transform="translate(25.4 80.612)"/><path class="o" d="M86.981,124.723l7.121,4.54,7.119-4.54,7.12,4.54,7.121-4.54" transform="translate(25.4 84.081)"/><path class="o" d="M97.9,123.592l7.121,4.54,7.119-4.54,7.12,4.54,7.121-4.54" transform="translate(60.741 80.42)"/><path class="o" d="M97.9,124.664l7.121,4.54,7.119-4.54,7.12,4.54,7.121-4.54" transform="translate(60.741 83.888)"/><path class="o" d="M108.813,123.533l7.121,4.54,7.119-4.54,7.12,4.54,7.121-4.54" transform="translate(96.082 80.227)"/><path class="o" d="M108.813,124.6l7.121,4.54,7.119-4.54,7.12,4.54,7.121-4.54" transform="translate(96.082 83.696)"/><path class="o" d="M119.728,123.473l7.121,4.54,7.119-4.54,7.12,4.54,7.121-4.54" transform="translate(131.423 80.034)"/><path class="o" d="M119.728,124.545l7.121,4.54,7.119-4.54,7.12,4.54,7.121-4.54" transform="translate(131.423 83.503)"/><path class="o" d="M130.644,123.414l7.121,4.54,7.119-4.54,7.12,4.54,7.121-4.54" transform="translate(166.763 79.842)"/><path class="o" d="M130.644,124.485l7.121,4.54,7.119-4.54,7.12,4.54,7.121-4.54" transform="translate(166.763 83.31)"/><path class="o" d="M27.012,120.1l7.121,4.54,7.119-4.54,7.12,4.54,7.121-4.54" transform="translate(-168.754 69.109)"/><path class="o" d="M27.012,121.17l7.121,4.54,7.119-4.54,7.12,4.54,7.121-4.54" transform="translate(-168.754 72.578)"/><path class="o" d="M37.928,120.039l7.121,4.54,7.119-4.54,7.12,4.54,7.121-4.54" transform="translate(-133.414 68.917)"/><path class="o" d="M37.928,121.111l7.121,4.54,7.119-4.54,7.12,4.54,7.121-4.54" transform="translate(-133.414 72.385)"/><path class="o" d="M48.844,119.98l7.121,4.54,7.119-4.54,7.12,4.54,7.121-4.54" transform="translate(-98.073 68.724)"/><path class="o" d="M48.844,121.051l7.121,4.54,7.119-4.54,7.12,4.54,7.121-4.54" transform="translate(-98.073 72.193)"/><path class="o" d="M59.759,119.92l7.121,4.54L74,119.92l7.12,4.54,7.121-4.54" transform="translate(-62.732 68.531)"/><path class="o" d="M59.759,120.992l7.121,4.54L74,120.992l7.12,4.54,7.121-4.54" transform="translate(-62.732 72)"/><path class="o" d="M70.675,119.861,77.8,124.4l7.119-4.54,7.12,4.54,7.121-4.54" transform="translate(-27.391 68.339)"/><path class="o" d="M70.675,120.932l7.121,4.54,7.119-4.54,7.12,4.54,7.121-4.54" transform="translate(-27.391 71.807)"/><path class="o" d="M81.591,119.8l7.121,4.54,7.119-4.54,7.12,4.54,7.121-4.54" transform="translate(7.949 68.146)"/><path class="o" d="M81.591,120.873l7.121,4.54,7.119-4.54,7.12,4.54,7.121-4.54" transform="translate(7.949 71.614)"/><path class="o" d="M92.507,119.742l7.121,4.54,7.119-4.54,7.12,4.54,7.121-4.54" transform="translate(43.29 67.953)"/><path class="o" d="M92.507,120.813l7.121,4.54,7.119-4.54,7.12,4.54,7.121-4.54" transform="translate(43.29 71.422)"/><path class="o" d="M103.422,119.682l7.121,4.54,7.119-4.54,7.12,4.54,7.121-4.54" transform="translate(78.631 67.76)"/><path class="o" d="M103.422,120.754l7.121,4.54,7.119-4.54,7.12,4.54,7.121-4.54" transform="translate(78.631 71.229)"/><path class="o" d="M114.338,119.623l7.121,4.54,7.119-4.54,7.12,4.54,7.121-4.54" transform="translate(113.971 67.568)"/><path class="o" d="M114.338,120.694l7.121,4.54,7.119-4.54,7.12,4.54,7.121-4.54" transform="translate(113.971 71.036)"/><path class="o" d="M125.254,119.563l7.121,4.54,7.119-4.54,7.12,4.54,7.121-4.54" transform="translate(149.312 67.375)"/><path class="o" d="M125.254,120.635l7.121,4.54,7.119-4.54,7.12,4.54,7.121-4.54" transform="translate(149.312 70.844)"/><path class="o" d="M32.4,115.909l7.121,4.54,7.119-4.54,7.12,4.54,7.121-4.54" transform="translate(-151.303 55.545)"/><path class="o" d="M32.4,116.981l7.121,4.54,7.119-4.54,7.12,4.54,7.121-4.54" transform="translate(-151.303 59.014)"/><path class="o" d="M43.318,115.85l7.121,4.54,7.119-4.54,7.12,4.54,7.121-4.54" transform="translate(-115.962 55.352)"/><path class="o" d="M43.318,116.921l7.121,4.54,7.119-4.54,7.12,4.54,7.121-4.54" transform="translate(-115.962 58.821)"/><path class="o" d="M54.234,115.79l7.121,4.54,7.119-4.54,7.12,4.54,7.121-4.54" transform="translate(-80.622 55.159)"/><path class="o" d="M54.234,116.862l7.121,4.54,7.119-4.54,7.12,4.54,7.121-4.54" transform="translate(-80.622 58.628)"/><path class="o" d="M65.15,115.731l7.121,4.54,7.119-4.54,7.12,4.54,7.121-4.54" transform="translate(-45.281 54.967)"/><path class="o" d="M65.15,116.8l7.121,4.54,7.119-4.54,7.12,4.54,7.121-4.54" transform="translate(-45.281 58.435)"/><path class="o" d="M76.065,115.671l7.121,4.54,7.119-4.54,7.12,4.54,7.121-4.54" transform="translate(-9.94 54.774)"/><path class="o" d="M76.065,116.743l7.121,4.54,7.119-4.54,7.12,4.54,7.121-4.54" transform="translate(-9.94 58.243)"/><path class="o" d="M86.981,115.612l7.121,4.54,7.119-4.54,7.12,4.54,7.121-4.54" transform="translate(25.4 54.581)"/><path class="o" d="M86.981,116.683l7.121,4.54,7.119-4.54,7.12,4.54,7.121-4.54" transform="translate(25.4 58.05)"/><path class="o" d="M97.9,115.552l7.121,4.54,7.119-4.54,7.12,4.54,7.121-4.54" transform="translate(60.741 54.389)"/><path class="o" d="M97.9,116.624l7.121,4.54,7.119-4.54,7.12,4.54,7.121-4.54" transform="translate(60.741 57.857)"/><path class="o" d="M108.813,115.493l7.121,4.54,7.119-4.54,7.12,4.54,7.121-4.54" transform="translate(96.082 54.196)"/><path class="o" d="M108.813,116.564l7.121,4.54,7.119-4.54,7.12,4.54,7.121-4.54" transform="translate(96.082 57.665)"/><path class="o" d="M119.728,115.433l7.121,4.54,7.119-4.54,7.12,4.54,7.121-4.54" transform="translate(131.423 54.003)"/><path class="o" d="M119.728,116.5l7.121,4.54,7.119-4.54,7.12,4.54,7.121-4.54" transform="translate(131.423 57.472)"/><path class="o" d="M130.644,115.374l7.121,4.54,7.119-4.54,7.12,4.54,7.121-4.54" transform="translate(166.763 53.81)"/><path class="o" d="M130.644,116.445l7.121,4.54,7.119-4.54,7.12,4.54,7.121-4.54" transform="translate(166.763 57.279)"/><path class="o" d="M27.012,112.059l7.121,4.54,7.119-4.54,7.12,4.54,7.121-4.54" transform="translate(-168.754 43.078)"/><path class="o" d="M27.012,113.13l7.121,4.54,7.119-4.54,7.12,4.54,7.121-4.54" transform="translate(-168.754 46.547)"/><path class="o" d="M37.928,112l7.121,4.54L52.167,112l7.12,4.54L66.408,112" transform="translate(-133.414 42.885)"/><path class="o" d="M37.928,113.071l7.121,4.54,7.119-4.54,7.12,4.54,7.121-4.54" transform="translate(-133.414 46.354)"/><path class="o" d="M48.844,111.94l7.121,4.54,7.119-4.54,7.12,4.54,7.121-4.54" transform="translate(-98.073 42.693)"/><path class="o" d="M48.844,113.011l7.121,4.54,7.119-4.54,7.12,4.54,7.121-4.54" transform="translate(-98.073 46.161)"/><path class="o" d="M59.759,111.88l7.121,4.54L74,111.88l7.12,4.54,7.121-4.54" transform="translate(-62.732 42.5)"/><path class="o" d="M59.759,112.951l7.121,4.54L74,112.951l7.12,4.54,7.121-4.54" transform="translate(-62.732 45.969)"/><path class="o" d="M70.675,111.821l7.121,4.54,7.119-4.54,7.12,4.54,7.121-4.54" transform="translate(-27.391 42.307)"/><path class="o" d="M70.675,112.892l7.121,4.54,7.119-4.54,7.12,4.54,7.121-4.54" transform="translate(-27.391 45.776)"/><path class="o" d="M81.591,111.761l7.121,4.54,7.119-4.54,7.12,4.54,7.121-4.54" transform="translate(7.949 42.115)"/><path class="o" d="M81.591,112.832l7.121,4.54,7.119-4.54,7.12,4.54,7.121-4.54" transform="translate(7.949 45.583)"/><path class="o" d="M92.507,111.7l7.121,4.54,7.119-4.54,7.12,4.54,7.121-4.54" transform="translate(43.29 41.922)"/><path class="o" d="M92.507,112.773l7.121,4.54,7.119-4.54,7.12,4.54,7.121-4.54" transform="translate(43.29 45.391)"/><path class="o" d="M103.422,111.642l7.121,4.54,7.119-4.54,7.12,4.54,7.121-4.54" transform="translate(78.631 41.729)"/><path class="o" d="M103.422,112.713l7.121,4.54,7.119-4.54,7.12,4.54,7.121-4.54" transform="translate(78.631 45.198)"/><path class="o" d="M114.338,111.583l7.121,4.54,7.119-4.54,7.12,4.54,7.121-4.54" transform="translate(113.971 41.537)"/><path class="o" d="M114.338,112.654l7.121,4.54,7.119-4.54,7.12,4.54,7.121-4.54" transform="translate(113.971 45.005)"/><path class="o" d="M125.254,111.523l7.121,4.54,7.119-4.54,7.12,4.54,7.121-4.54" transform="translate(149.312 41.344)"/><path class="o" d="M125.254,112.594l7.121,4.54,7.119-4.54,7.12,4.54,7.121-4.54" transform="translate(149.312 44.813)"/><path class="o" d="M32.4,107.869l7.121,4.54,7.119-4.54,7.12,4.54,7.121-4.54" transform="translate(-151.303 29.514)"/><path class="o" d="M32.4,108.94l7.121,4.54,7.119-4.54,7.12,4.54,7.121-4.54" transform="translate(-151.303 32.982)"/><path class="o" d="M43.318,107.809l7.121,4.54,7.119-4.54,7.12,4.54,7.121-4.54" transform="translate(-115.962 29.321)"/><path class="o" d="M43.318,108.881l7.121,4.54,7.119-4.54,7.12,4.54,7.121-4.54" transform="translate(-115.962 32.79)"/><path class="o" d="M54.234,107.75l7.121,4.54,7.119-4.54,7.12,4.54,7.121-4.54" transform="translate(-80.622 29.128)"/><path class="o" d="M54.234,108.821l7.121,4.54,7.119-4.54,7.12,4.54,7.121-4.54" transform="translate(-80.622 32.597)"/><path class="o" d="M65.15,107.69l7.121,4.54,7.119-4.54,7.12,4.54,7.121-4.54" transform="translate(-45.281 28.936)"/><path class="o" d="M65.15,108.762l7.121,4.54,7.119-4.54,7.12,4.54,7.121-4.54" transform="translate(-45.281 32.404)"/><path class="o" d="M76.065,107.631l7.121,4.54,7.119-4.54,7.12,4.54,7.121-4.54" transform="translate(-9.94 28.743)"/><path class="o" d="M76.065,108.7l7.121,4.54L90.3,108.7l7.12,4.54,7.121-4.54" transform="translate(-9.94 32.212)"/><path class="o" d="M86.981,107.571l7.121,4.54,7.119-4.54,7.12,4.54,7.121-4.54" transform="translate(25.4 28.55)"/><path class="o" d="M86.981,108.643l7.121,4.54,7.119-4.54,7.12,4.54,7.121-4.54" transform="translate(25.4 32.019)"/><path class="o" d="M97.9,107.512l7.121,4.54,7.119-4.54,7.12,4.54,7.121-4.54" transform="translate(60.741 28.357)"/><path class="o" d="M97.9,108.583l7.121,4.54,7.119-4.54,7.12,4.54,7.121-4.54" transform="translate(60.741 31.826)"/><path class="o" d="M108.813,107.452l7.121,4.54,7.119-4.54,7.12,4.54,7.121-4.54" transform="translate(96.082 28.165)"/><path class="o" d="M108.813,108.524l7.121,4.54,7.119-4.54,7.12,4.54,7.121-4.54" transform="translate(96.082 31.633)"/><path class="o" d="M119.728,107.393l7.121,4.54,7.119-4.54,7.12,4.54,7.121-4.54" transform="translate(131.423 27.972)"/><path class="o" d="M119.728,108.464l7.121,4.54,7.119-4.54,7.12,4.54,7.121-4.54" transform="translate(131.423 31.441)"/><path class="o" d="M130.644,107.333l7.121,4.54,7.119-4.54,7.12,4.54,7.121-4.54" transform="translate(166.763 27.779)"/><path class="o" d="M130.644,108.4l7.121,4.54,7.119-4.54,7.12,4.54,7.121-4.54" transform="translate(166.763 31.248)"/><path class="o" d="M27.012,104.018l7.121,4.54,7.119-4.54,7.12,4.54,7.121-4.54" transform="translate(-168.754 17.047)"/><path class="o" d="M27.012,105.09l7.121,4.54,7.119-4.54,7.12,4.54,7.121-4.54" transform="translate(-168.754 20.516)"/><path class="o" d="M37.928,103.959l7.121,4.54,7.119-4.54,7.12,4.54,7.121-4.54" transform="translate(-133.414 16.854)"/><path class="o" d="M37.928,105.03l7.121,4.54,7.119-4.54,7.12,4.54,7.121-4.54" transform="translate(-133.414 20.323)"/><path class="o" d="M48.844,103.9l7.121,4.54,7.119-4.54,7.12,4.54,7.121-4.54" transform="translate(-98.073 16.662)"/><path class="o" d="M48.844,104.971l7.121,4.54,7.119-4.54,7.12,4.54,7.121-4.54" transform="translate(-98.073 20.13)"/><path class="o" d="M59.759,103.84l7.121,4.54L74,103.84l7.12,4.54,7.121-4.54" transform="translate(-62.732 16.469)"/><path class="o" d="M59.759,104.911l7.121,4.54L74,104.911l7.12,4.54,7.121-4.54" transform="translate(-62.732 19.938)"/><path class="o" d="M70.675,103.78l7.121,4.54,7.119-4.54,7.12,4.54,7.121-4.54" transform="translate(-27.391 16.276)"/><path class="o" d="M70.675,104.852l7.121,4.54,7.119-4.54,7.12,4.54,7.121-4.54" transform="translate(-27.391 19.745)"/><path class="o" d="M81.591,103.721l7.121,4.54,7.119-4.54,7.12,4.54,7.121-4.54" transform="translate(7.949 16.084)"/><path class="o" d="M81.591,104.792l7.121,4.54,7.119-4.54,7.12,4.54,7.121-4.54" transform="translate(7.949 19.552)"/><path class="o" d="M92.507,103.661l7.121,4.54,7.119-4.54,7.12,4.54,7.121-4.54" transform="translate(43.29 15.891)"/><path class="o" d="M92.507,104.733l7.121,4.54,7.119-4.54,7.12,4.54,7.121-4.54" transform="translate(43.29 19.36)"/><path class="o" d="M103.422,103.6l7.121,4.54,7.119-4.54,7.12,4.54,7.121-4.54" transform="translate(78.631 15.698)"/><path class="o" d="M103.422,104.673l7.121,4.54,7.119-4.54,7.12,4.54,7.121-4.54" transform="translate(78.631 19.167)"/><path class="o" d="M114.338,103.542l7.121,4.54,7.119-4.54,7.12,4.54,7.121-4.54" transform="translate(113.971 15.505)"/><path class="o" d="M114.338,104.614l7.121,4.54,7.119-4.54,7.12,4.54,7.121-4.54" transform="translate(113.971 18.974)"/><path class="o" d="M125.254,103.483l7.121,4.54,7.119-4.54,7.12,4.54,7.121-4.54" transform="translate(149.312 15.313)"/><path class="o" d="M125.254,104.554l7.121,4.54,7.119-4.54,7.12,4.54,7.121-4.54" transform="translate(149.312 18.781)"/><path class="o" d="M32.4,99.829l7.121,4.54,7.119-4.54,7.12,4.54,7.121-4.54" transform="translate(-151.303 3.483)"/><path class="o" d="M32.4,100.9l7.121,4.54,7.119-4.54,7.12,4.54,7.121-4.54" transform="translate(-151.303 6.951)"/><path class="o" d="M43.318,99.769l7.121,4.54,7.119-4.54,7.12,4.54,7.121-4.54" transform="translate(-115.962 3.29)"/><path class="o" d="M43.318,100.841l7.121,4.54,7.119-4.54,7.12,4.54,7.121-4.54" transform="translate(-115.962 6.759)"/><path class="o" d="M54.234,99.71l7.121,4.54,7.119-4.54,7.12,4.54,7.121-4.54" transform="translate(-80.622 3.097)"/><path class="o" d="M54.234,100.781l7.121,4.54,7.119-4.54,7.12,4.54,7.121-4.54" transform="translate(-80.622 6.566)"/><path class="o" d="M65.15,99.65l7.121,4.54,7.119-4.54,7.12,4.54,7.121-4.54" transform="translate(-45.281 2.904)"/><path class="o" d="M65.15,100.722l7.121,4.54,7.119-4.54,7.12,4.54,7.121-4.54" transform="translate(-45.281 6.373)"/><path class="o" d="M76.065,99.591l7.121,4.54,7.119-4.54,7.12,4.54,7.121-4.54" transform="translate(-9.94 2.712)"/><path class="o" d="M76.065,100.662l7.121,4.54,7.119-4.54,7.12,4.54,7.121-4.54" transform="translate(-9.94 6.18)"/><path class="o" d="M86.981,99.531l7.121,4.54,7.119-4.54,7.12,4.54,7.121-4.54" transform="translate(25.4 2.519)"/><path class="o" d="M86.981,100.6l7.121,4.54,7.119-4.54,7.12,4.54,7.121-4.54" transform="translate(25.4 5.988)"/><path class="o" d="M97.9,99.472l7.121,4.54,7.119-4.54,7.12,4.54,7.121-4.54" transform="translate(60.741 2.326)"/><path class="o" d="M97.9,100.543l7.121,4.54,7.119-4.54,7.12,4.54,7.121-4.54" transform="translate(60.741 5.795)"/><path class="o" d="M108.813,99.412l7.121,4.54,7.119-4.54,7.12,4.54,7.121-4.54" transform="translate(96.082 2.134)"/><path class="o" d="M108.813,100.483l7.121,4.54,7.119-4.54,7.12,4.54,7.121-4.54" transform="translate(96.082 5.602)"/><path class="o" d="M119.728,99.353l7.121,4.54,7.119-4.54,7.12,4.54,7.121-4.54" transform="translate(131.423 1.941)"/><path class="o" d="M119.728,100.424l7.121,4.54,7.119-4.54,7.12,4.54,7.121-4.54" transform="translate(131.423 5.41)"/><path class="o" d="M130.644,99.293l7.121,4.54,7.119-4.54,7.12,4.54,7.121-4.54" transform="translate(166.763 1.748)"/><path class="o" d="M130.644,100.364l7.121,4.54,7.119-4.54L152,104.9l7.121-4.54" transform="translate(166.763 5.217)"/><path class="o" d="M27.012,95.978l7.121,4.54,7.119-4.54,7.12,4.54,7.121-4.54" transform="translate(-168.754 -8.984)"/><path class="o" d="M27.012,97.05l7.121,4.54,7.119-4.54,7.12,4.54,7.121-4.54" transform="translate(-168.754 -5.515)"/><path class="o" d="M37.928,95.919l7.121,4.54,7.119-4.54,7.12,4.54,7.121-4.54" transform="translate(-133.414 -9.177)"/><path class="o" d="M37.928,96.99l7.121,4.54,7.119-4.54,7.12,4.54,7.121-4.54" transform="translate(-133.414 -5.708)"/><path class="o" d="M48.844,95.859l7.121,4.54,7.119-4.54,7.12,4.54,7.121-4.54" transform="translate(-98.073 -9.369)"/><path class="o" d="M48.844,96.93l7.121,4.54,7.119-4.54,7.12,4.54,7.121-4.54" transform="translate(-98.073 -5.901)"/><path class="o" d="M59.759,95.8l7.121,4.54L74,95.8l7.12,4.54L88.24,95.8" transform="translate(-62.732 -9.562)"/><path class="o" d="M59.759,96.871l7.121,4.54L74,96.871l7.12,4.54,7.121-4.54" transform="translate(-62.732 -6.093)"/><path class="o" d="M70.675,95.74l7.121,4.54,7.119-4.54,7.12,4.54,7.121-4.54" transform="translate(-27.391 -9.755)"/><path class="o" d="M70.675,96.811l7.121,4.54,7.119-4.54,7.12,4.54,7.121-4.54" transform="translate(-27.391 -6.286)"/><path class="o" d="M81.591,95.681l7.121,4.54,7.119-4.54,7.12,4.54,7.121-4.54" transform="translate(7.949 -9.948)"/><path class="o" d="M81.591,96.752l7.121,4.54,7.119-4.54,7.12,4.54,7.121-4.54" transform="translate(7.949 -6.479)"/><path class="o" d="M92.507,95.621l7.121,4.54,7.119-4.54,7.12,4.54,7.121-4.54" transform="translate(43.29 -10.14)"/><path class="o" d="M92.507,96.692l7.121,4.54,7.119-4.54,7.12,4.54,7.121-4.54" transform="translate(43.29 -6.672)"/><path class="o" d="M103.422,95.562l7.121,4.54,7.119-4.54,7.12,4.54,7.121-4.54" transform="translate(78.631 -10.333)"/><path class="o" d="M103.422,96.633l7.121,4.54,7.119-4.54,7.12,4.54,7.121-4.54" transform="translate(78.631 -6.864)"/><path class="o" d="M114.338,95.5l7.121,4.54,7.119-4.54,7.12,4.54,7.121-4.54" transform="translate(113.971 -10.526)"/><path class="o" d="M114.338,96.573l7.121,4.54,7.119-4.54,7.12,4.54,7.121-4.54" transform="translate(113.971 -7.057)"/><path class="o" d="M125.254,95.442l7.121,4.54,7.119-4.54,7.12,4.54,7.121-4.54" transform="translate(149.312 -10.718)"/><path class="o" d="M125.254,96.514l7.121,4.54,7.119-4.54,7.12,4.54,7.121-4.54" transform="translate(149.312 -7.25)"/><path class="o" d="M32.4,91.788l7.121,4.54,7.119-4.54,7.12,4.54,7.121-4.54" transform="translate(-151.303 -22.549)"/><path class="o" d="M32.4,92.86l7.121,4.54,7.119-4.54,7.12,4.54,7.121-4.54" transform="translate(-151.303 -19.08)"/><path class="o" d="M43.318,91.729l7.121,4.54,7.119-4.54,7.12,4.54,7.121-4.54" transform="translate(-115.962 -22.741)"/><path class="o" d="M43.318,92.8l7.121,4.54,7.119-4.54,7.12,4.54L71.8,92.8" transform="translate(-115.962 -19.273)"/><path class="o" d="M54.234,91.669l7.121,4.54,7.119-4.54,7.12,4.54,7.121-4.54" transform="translate(-80.622 -22.934)"/><path class="o" d="M54.234,92.741l7.121,4.54,7.119-4.54,7.12,4.54,7.121-4.54" transform="translate(-80.622 -19.465)"/><path class="o" d="M65.15,91.61l7.121,4.54,7.119-4.54,7.12,4.54,7.121-4.54" transform="translate(-45.281 -23.127)"/><path class="o" d="M65.15,92.681l7.121,4.54,7.119-4.54,7.12,4.54,7.121-4.54" transform="translate(-45.281 -19.658)"/><path class="o" d="M76.065,91.55l7.121,4.54L90.3,91.55l7.12,4.54,7.121-4.54" transform="translate(-9.94 -23.319)"/><path class="o" d="M76.065,92.622l7.121,4.54,7.119-4.54,7.12,4.54,7.121-4.54" transform="translate(-9.94 -19.851)"/><path class="o" d="M86.981,91.491l7.121,4.54,7.119-4.54,7.12,4.54,7.121-4.54" transform="translate(25.4 -23.512)"/><path class="o" d="M86.981,92.562,94.1,97.1l7.119-4.54,7.12,4.54,7.121-4.54" transform="translate(25.4 -20.043)"/><path class="o" d="M97.9,91.431l7.121,4.54,7.119-4.54,7.12,4.54,7.121-4.54" transform="translate(60.741 -23.705)"/><path class="o" d="M97.9,92.5l7.121,4.54,7.119-4.54,7.12,4.54,7.121-4.54" transform="translate(60.741 -20.236)"/><path class="o" d="M108.813,91.372l7.121,4.54,7.119-4.54,7.12,4.54,7.121-4.54" transform="translate(96.082 -23.897)"/><path class="o" d="M108.813,92.443l7.121,4.54,7.119-4.54,7.12,4.54,7.121-4.54" transform="translate(96.082 -20.429)"/><path class="o" d="M119.728,91.312l7.121,4.54,7.119-4.54,7.12,4.54,7.121-4.54" transform="translate(131.423 -24.09)"/><path class="o" d="M119.728,92.384l7.121,4.54,7.119-4.54,7.12,4.54,7.121-4.54" transform="translate(131.423 -20.621)"/><path class="o" d="M130.644,91.253l7.121,4.54,7.119-4.54,7.12,4.54,7.121-4.54" transform="translate(166.763 -24.283)"/><path class="o" d="M130.644,92.324l7.121,4.54,7.119-4.54,7.12,4.54,7.121-4.54" transform="translate(166.763 -20.814)"/><path class="o" d="M27.012,87.938l7.121,4.54,7.119-4.54,7.12,4.54,7.121-4.54" transform="translate(-168.754 -35.015)"/><path class="o" d="M27.012,89.009l7.121,4.54,7.119-4.54,7.12,4.54,7.121-4.54" transform="translate(-168.754 -31.546)"/><path class="o" d="M37.928,87.878l7.121,4.54,7.119-4.54,7.12,4.54,7.121-4.54" transform="translate(-133.414 -35.208)"/><path class="o" d="M37.928,88.95l7.121,4.54,7.119-4.54,7.12,4.54,7.121-4.54" transform="translate(-133.414 -31.739)"/><path class="o" d="M48.844,87.819l7.121,4.54,7.119-4.54,7.12,4.54,7.121-4.54" transform="translate(-98.073 -35.401)"/><path class="o" d="M48.844,88.89l7.121,4.54,7.119-4.54,7.12,4.54,7.121-4.54" transform="translate(-98.073 -31.932)"/><path class="o" d="M59.759,87.759,66.88,92.3,74,87.759l7.12,4.54,7.121-4.54" transform="translate(-62.732 -35.593)"/><path class="o" d="M59.759,88.831l7.121,4.54L74,88.831l7.12,4.54,7.121-4.54" transform="translate(-62.732 -32.125)"/><path class="o" d="M70.675,87.7,77.8,92.24l7.119-4.54,7.12,4.54,7.121-4.54" transform="translate(-27.391 -35.786)"/><path class="o" d="M70.675,88.771l7.121,4.54,7.119-4.54,7.12,4.54,7.121-4.54" transform="translate(-27.391 -32.317)"/><path class="o" d="M81.591,87.64l7.121,4.54,7.119-4.54,7.12,4.54,7.121-4.54" transform="translate(7.949 -35.979)"/><path class="o" d="M81.591,88.712l7.121,4.54,7.119-4.54,7.12,4.54,7.121-4.54" transform="translate(7.949 -32.51)"/><path class="o" d="M92.507,87.581l7.121,4.54,7.119-4.54,7.12,4.54,7.121-4.54" transform="translate(43.29 -36.171)"/><path class="o" d="M92.507,88.652l7.121,4.54,7.119-4.54,7.12,4.54,7.121-4.54" transform="translate(43.29 -32.703)"/><path class="o" d="M103.422,87.521l7.121,4.54,7.119-4.54,7.12,4.54,7.121-4.54" transform="translate(78.631 -36.364)"/><path class="o" d="M103.422,88.593l7.121,4.54,7.119-4.54,7.12,4.54,7.121-4.54" transform="translate(78.631 -32.895)"/><path class="o" d="M114.338,87.462,121.459,92l7.119-4.54L135.7,92l7.121-4.54" transform="translate(113.971 -36.557)"/><path class="o" d="M114.338,88.533l7.121,4.54,7.119-4.54,7.12,4.54,7.121-4.54" transform="translate(113.971 -33.088)"/><path class="o" d="M125.254,87.4l7.121,4.54,7.119-4.54,7.12,4.54,7.121-4.54" transform="translate(149.312 -36.749)"/><path class="o" d="M125.254,88.474l7.121,4.54,7.119-4.54,7.12,4.54,7.121-4.54" transform="translate(149.312 -33.281)"/><path class="o" d="M32.4,83.748l7.121,4.54,7.119-4.54,7.12,4.54,7.121-4.54" transform="translate(-151.303 -48.58)"/><path class="o" d="M32.4,84.82l7.121,4.54,7.119-4.54,7.12,4.54,7.121-4.54" transform="translate(-151.303 -45.111)"/><path class="o" d="M43.318,83.689l7.121,4.54,7.119-4.54,7.12,4.54,7.121-4.54" transform="translate(-115.962 -48.772)"/><path class="o" d="M43.318,84.76l7.121,4.54,7.119-4.54,7.12,4.54L71.8,84.76" transform="translate(-115.962 -45.304)"/><path class="o" d="M54.234,83.629l7.121,4.54,7.119-4.54,7.12,4.54,7.121-4.54" transform="translate(-80.622 -48.965)"/><path class="o" d="M54.234,84.7l7.121,4.54,7.119-4.54,7.12,4.54,7.121-4.54" transform="translate(-80.622 -45.496)"/><path class="o" d="M65.15,83.57l7.121,4.54,7.119-4.54,7.12,4.54,7.121-4.54" transform="translate(-45.281 -49.158)"/><path class="o" d="M65.15,84.641l7.121,4.54,7.119-4.54,7.12,4.54,7.121-4.54" transform="translate(-45.281 -45.689)"/><path class="o" d="M76.065,83.51l7.121,4.54L90.3,83.51l7.12,4.54,7.121-4.54" transform="translate(-9.94 -49.35)"/><path class="o" d="M76.065,84.582l7.121,4.54,7.119-4.54,7.12,4.54,7.121-4.54" transform="translate(-9.94 -45.882)"/><path class="o" d="M86.981,83.451l7.121,4.54,7.119-4.54,7.12,4.54,7.121-4.54" transform="translate(25.4 -49.543)"/><path class="o" d="M86.981,84.522l7.121,4.54,7.119-4.54,7.12,4.54,7.121-4.54" transform="translate(25.4 -46.074)"/><path class="o" d="M97.9,83.391l7.121,4.54,7.119-4.54,7.12,4.54,7.121-4.54" transform="translate(60.741 -49.736)"/><path class="o" d="M97.9,84.462,105.017,89l7.119-4.54,7.12,4.54,7.121-4.54" transform="translate(60.741 -46.267)"/><path class="o" d="M108.813,83.332l7.121,4.54,7.119-4.54,7.12,4.54,7.121-4.54" transform="translate(96.082 -49.929)"/><path class="o" d="M108.813,84.4l7.121,4.54,7.119-4.54,7.12,4.54,7.121-4.54" transform="translate(96.082 -46.46)"/><path class="o" d="M119.728,83.272l7.121,4.54,7.119-4.54,7.12,4.54,7.121-4.54" transform="translate(131.423 -50.121)"/><path class="o" d="M119.728,84.343l7.121,4.54,7.119-4.54,7.12,4.54,7.121-4.54" transform="translate(131.423 -46.653)"/><path class="o" d="M130.644,83.212l7.121,4.54,7.119-4.54,7.12,4.54,7.121-4.54" transform="translate(166.763 -50.314)"/><path class="o" d="M130.644,84.284l7.121,4.54,7.119-4.54,7.12,4.54,7.121-4.54" transform="translate(166.763 -46.845)"/><path class="o" d="M27.012,79.9l7.121,4.54,7.119-4.54,7.12,4.54,7.121-4.54" transform="translate(-168.754 -61.046)"/><path class="o" d="M27.012,80.969l7.121,4.54,7.119-4.54,7.12,4.54,7.121-4.54" transform="translate(-168.754 -57.578)"/><path class="o" d="M37.928,79.838l7.121,4.54,7.119-4.54,7.12,4.54,7.121-4.54" transform="translate(-133.414 -61.239)"/><path class="o" d="M37.928,80.909l7.121,4.54,7.119-4.54,7.12,4.54,7.121-4.54" transform="translate(-133.414 -57.77)"/><path class="o" d="M48.844,79.779l7.121,4.54,7.119-4.54,7.12,4.54,7.121-4.54" transform="translate(-98.073 -61.432)"/><path class="o" d="M48.844,80.85l7.121,4.54,7.119-4.54,7.12,4.54,7.121-4.54" transform="translate(-98.073 -57.963)"/><path class="o" d="M59.759,79.719l7.121,4.54L74,79.719l7.12,4.54,7.121-4.54" transform="translate(-62.732 -61.624)"/><path class="o" d="M59.759,80.79l7.121,4.54L74,80.79l7.12,4.54,7.121-4.54" transform="translate(-62.732 -58.156)"/><path class="o" d="M70.675,79.66,77.8,84.2l7.119-4.54,7.12,4.54,7.121-4.54" transform="translate(-27.391 -61.817)"/><path class="o" d="M70.675,80.731l7.121,4.54,7.119-4.54,7.12,4.54,7.121-4.54" transform="translate(-27.391 -58.348)"/><path class="o" d="M81.591,79.6l7.121,4.54L95.83,79.6l7.12,4.54,7.121-4.54" transform="translate(7.949 -62.01)"/><path class="o" d="M81.591,80.671l7.121,4.54,7.119-4.54,7.12,4.54,7.121-4.54" transform="translate(7.949 -58.541)"/><path class="o" d="M92.507,79.54l7.121,4.54,7.119-4.54,7.12,4.54,7.121-4.54" transform="translate(43.29 -62.202)"/><path class="o" d="M92.507,80.612l7.121,4.54,7.119-4.54,7.12,4.54,7.121-4.54" transform="translate(43.29 -58.734)"/><path class="o" d="M103.422,79.481l7.121,4.54,7.119-4.54,7.12,4.54,7.121-4.54" transform="translate(78.631 -62.395)"/><path class="o" d="M103.422,80.552l7.121,4.54,7.119-4.54,7.12,4.54,7.121-4.54" transform="translate(78.631 -58.927)"/><path class="o" d="M114.338,79.421l7.121,4.54,7.119-4.54,7.12,4.54,7.121-4.54" transform="translate(113.971 -62.588)"/><path class="o" d="M114.338,80.493l7.121,4.54,7.119-4.54,7.12,4.54,7.121-4.54" transform="translate(113.971 -59.119)"/><path class="o" d="M125.254,79.362l7.121,4.54,7.119-4.54,7.12,4.54,7.121-4.54" transform="translate(149.312 -62.781)"/><path class="o" d="M125.254,80.433l7.121,4.54,7.119-4.54,7.12,4.54,7.121-4.54" transform="translate(149.312 -59.312)"/><path class="o" d="M32.4,75.708l7.121,4.54,7.119-4.54,7.12,4.54,7.121-4.54" transform="translate(-151.303 -74.611)"/><path class="o" d="M32.4,76.779l7.121,4.54,7.119-4.54,7.12,4.54,7.121-4.54" transform="translate(-151.303 -71.142)"/><path class="o" d="M43.318,75.648l7.121,4.54,7.119-4.54,7.12,4.54,7.121-4.54" transform="translate(-115.962 -74.803)"/><path class="o" d="M43.318,76.72l7.121,4.54,7.119-4.54,7.12,4.54L71.8,76.72" transform="translate(-115.962 -71.335)"/><path class="o" d="M54.234,75.589l7.121,4.54,7.119-4.54,7.12,4.54,7.121-4.54" transform="translate(-80.622 -74.996)"/><path class="o" d="M54.234,76.66l7.121,4.54,7.119-4.54,7.12,4.54,7.121-4.54" transform="translate(-80.622 -71.527)"/><path class="o" d="M65.15,75.529l7.121,4.54,7.119-4.54,7.12,4.54,7.121-4.54" transform="translate(-45.281 -75.189)"/><path class="o" d="M65.15,76.6l7.121,4.54,7.119-4.54,7.12,4.54L93.63,76.6" transform="translate(-45.281 -71.72)"/><path class="o" d="M76.065,75.47l7.121,4.54L90.3,75.47l7.12,4.54,7.121-4.54" transform="translate(-9.94 -75.382)"/><path class="o" d="M76.065,76.541l7.121,4.54,7.119-4.54,7.12,4.54,7.121-4.54" transform="translate(-9.94 -71.913)"/><path class="o" d="M86.981,75.41,94.1,79.95l7.119-4.54,7.12,4.54,7.121-4.54" transform="translate(25.4 -75.574)"/><path class="o" d="M86.981,76.482l7.121,4.54,7.119-4.54,7.12,4.54,7.121-4.54" transform="translate(25.4 -72.106)"/><path class="o" d="M97.9,75.351l7.121,4.54,7.119-4.54,7.12,4.54,7.121-4.54" transform="translate(60.741 -75.767)"/><path class="o" d="M97.9,76.422l7.121,4.54,7.119-4.54,7.12,4.54,7.121-4.54" transform="translate(60.741 -72.298)"/><path class="o" d="M108.813,75.291l7.121,4.54,7.119-4.54,7.12,4.54,7.121-4.54" transform="translate(96.082 -75.96)"/><path class="o" d="M108.813,76.363l7.121,4.54,7.119-4.54,7.12,4.54,7.121-4.54" transform="translate(96.082 -72.491)"/><path class="o" d="M119.728,75.232l7.121,4.54,7.119-4.54,7.12,4.54,7.121-4.54" transform="translate(131.423 -76.152)"/><path class="o" d="M119.728,76.3l7.121,4.54,7.119-4.54,7.12,4.54,7.121-4.54" transform="translate(131.423 -72.684)"/><path class="o" d="M130.644,75.172l7.121,4.54,7.119-4.54,7.12,4.54,7.121-4.54" transform="translate(166.763 -76.345)"/><path class="o" d="M130.644,76.244l7.121,4.54,7.119-4.54,7.12,4.54,7.121-4.54" transform="translate(166.763 -72.876)"/><path class="o" d="M27.012,71.857l7.121,4.54,7.119-4.54,7.12,4.54,7.121-4.54" transform="translate(-168.754 -87.077)"/><path class="o" d="M27.012,72.929l7.121,4.54,7.119-4.54,7.12,4.54,7.121-4.54" transform="translate(-168.754 -83.609)"/><path class="o" d="M37.928,71.8l7.121,4.54,7.119-4.54,7.12,4.54,7.121-4.54" transform="translate(-133.414 -87.27)"/><path class="o" d="M37.928,72.869l7.121,4.54,7.119-4.54,7.12,4.54,7.121-4.54" transform="translate(-133.414 -83.801)"/><path class="o" d="M48.844,71.738l7.121,4.54,7.119-4.54,7.12,4.54,7.121-4.54" transform="translate(-98.073 -87.463)"/><path class="o" d="M48.844,72.81l7.121,4.54,7.119-4.54,7.12,4.54,7.121-4.54" transform="translate(-98.073 -83.994)"/><path class="o" d="M59.759,71.679l7.121,4.54L74,71.679l7.12,4.54,7.121-4.54" transform="translate(-62.732 -87.655)"/><path class="o" d="M59.759,72.75l7.121,4.54L74,72.75l7.12,4.54,7.121-4.54" transform="translate(-62.732 -84.187)"/><path class="o" d="M70.675,71.619l7.121,4.54,7.119-4.54,7.12,4.54,7.121-4.54" transform="translate(-27.391 -87.848)"/><path class="o" d="M70.675,72.691l7.121,4.54,7.119-4.54,7.12,4.54,7.121-4.54" transform="translate(-27.391 -84.38)"/><path class="o" d="M81.591,71.56l7.121,4.54,7.119-4.54,7.12,4.54,7.121-4.54" transform="translate(7.949 -88.041)"/><path class="o" d="M81.591,72.631l7.121,4.54,7.119-4.54,7.12,4.54,7.121-4.54" transform="translate(7.949 -84.572)"/><path class="o" d="M92.507,71.5l7.121,4.54,7.119-4.54,7.12,4.54,7.121-4.54" transform="translate(43.29 -88.234)"/><path class="o" d="M92.507,72.572l7.121,4.54,7.119-4.54,7.12,4.54,7.121-4.54" transform="translate(43.29 -84.765)"/><path class="o" d="M103.422,71.441l7.121,4.54,7.119-4.54,7.12,4.54,7.121-4.54" transform="translate(78.631 -88.426)"/><path class="o" d="M103.422,72.512l7.121,4.54,7.119-4.54,7.12,4.54,7.121-4.54" transform="translate(78.631 -84.958)"/><path class="o" d="M114.338,71.381l7.121,4.54,7.119-4.54,7.12,4.54,7.121-4.54" transform="translate(113.971 -88.619)"/><path class="o" d="M114.338,72.453l7.121,4.54,7.119-4.54,7.12,4.54,7.121-4.54" transform="translate(113.971 -85.15)"/><path class="o" d="M125.254,71.322l7.121,4.54,7.119-4.54,7.12,4.54,7.121-4.54" transform="translate(149.312 -88.812)"/><path class="o" d="M125.254,72.393l7.121,4.54,7.119-4.54,7.12,4.54,7.121-4.54" transform="translate(149.312 -85.343)"/><path class="o" d="M32.4,67.668l7.121,4.54,7.119-4.54,7.12,4.54,7.121-4.54" transform="translate(-151.303 -100.642)"/><path class="o" d="M32.4,68.739l7.121,4.54,7.119-4.54,7.12,4.54,7.121-4.54" transform="translate(-151.303 -97.173)"/><path class="o" d="M43.318,67.608l7.121,4.54,7.119-4.54,7.12,4.54,7.121-4.54" transform="translate(-115.962 -100.835)"/><path class="o" d="M43.318,68.68l7.121,4.54,7.119-4.54,7.12,4.54L71.8,68.68" transform="translate(-115.962 -97.366)"/><path class="o" d="M54.234,67.549l7.121,4.54,7.119-4.54,7.12,4.54,7.121-4.54" transform="translate(-80.622 -101.027)"/><path class="o" d="M54.234,68.62l7.121,4.54,7.119-4.54,7.12,4.54,7.121-4.54" transform="translate(-80.622 -97.559)"/><path class="o" d="M65.15,67.489l7.121,4.54,7.119-4.54,7.12,4.54,7.121-4.54" transform="translate(-45.281 -101.22)"/><path class="o" d="M65.15,68.56,72.27,73.1l7.119-4.54,7.12,4.54,7.121-4.54" transform="translate(-45.281 -97.751)"/><path class="o" d="M76.065,67.43l7.121,4.54L90.3,67.43l7.12,4.54,7.121-4.54" transform="translate(-9.94 -101.413)"/><path class="o" d="M76.065,68.5l7.121,4.54L90.3,68.5l7.12,4.54,7.121-4.54" transform="translate(-9.94 -97.944)"/><path class="o" d="M86.981,67.37,94.1,71.91l7.119-4.54,7.12,4.54,7.121-4.54" transform="translate(25.4 -101.605)"/><path class="o" d="M86.981,68.441l7.121,4.54,7.119-4.54,7.12,4.54,7.121-4.54" transform="translate(25.4 -98.137)"/><path class="o" d="M97.9,67.311l7.121,4.54,7.119-4.54,7.12,4.54,7.121-4.54" transform="translate(60.741 -101.798)"/><path class="o" d="M97.9,68.382l7.121,4.54,7.119-4.54,7.12,4.54,7.121-4.54" transform="translate(60.741 -98.329)"/><path class="o" d="M108.813,67.251l7.121,4.54,7.119-4.54,7.12,4.54,7.121-4.54" transform="translate(96.082 -101.991)"/><path class="o" d="M108.813,68.322l7.121,4.54,7.119-4.54,7.12,4.54,7.121-4.54" transform="translate(96.082 -98.522)"/><path class="o" d="M119.728,67.191l7.121,4.54,7.119-4.54,7.12,4.54,7.121-4.54" transform="translate(131.423 -102.183)"/><path class="o" d="M119.728,68.263l7.121,4.54,7.119-4.54,7.12,4.54,7.121-4.54" transform="translate(131.423 -98.715)"/><path class="o" d="M130.644,67.132l7.121,4.54,7.119-4.54,7.12,4.54,7.121-4.54" transform="translate(166.763 -102.376)"/><path class="o" d="M130.644,68.2l7.121,4.54,7.119-4.54,7.12,4.54,7.121-4.54" transform="translate(166.763 -98.908)"/><path class="o" d="M27.012,63.817l7.121,4.54,7.119-4.54,7.12,4.54,7.121-4.54" transform="translate(-168.754 -113.108)"/><path class="o" d="M27.012,64.888l7.121,4.54,7.119-4.54,7.12,4.54,7.121-4.54" transform="translate(-168.754 -109.64)"/><path class="o" d="M37.928,63.758l7.121,4.54,7.119-4.54,7.12,4.54,7.121-4.54" transform="translate(-133.414 -113.301)"/><path class="o" d="M37.928,64.829l7.121,4.54,7.119-4.54,7.12,4.54,7.121-4.54" transform="translate(-133.414 -109.833)"/><path class="o" d="M48.844,63.7l7.121,4.54,7.119-4.54,7.12,4.54,7.121-4.54" transform="translate(-98.073 -113.494)"/><path class="o" d="M48.844,64.769l7.121,4.54,7.119-4.54,7.12,4.54,7.121-4.54" transform="translate(-98.073 -110.025)"/><path class="o" d="M59.759,63.639l7.121,4.54L74,63.639l7.12,4.54,7.121-4.54" transform="translate(-62.732 -113.687)"/><path class="o" d="M59.759,64.71l7.121,4.54L74,64.71l7.12,4.54,7.121-4.54" transform="translate(-62.732 -110.218)"/><path class="o" d="M70.675,63.579l7.121,4.54,7.119-4.54,7.12,4.54,7.121-4.54" transform="translate(-27.391 -113.879)"/><path class="o" d="M70.675,64.65,77.8,69.19l7.119-4.54,7.12,4.54,7.121-4.54" transform="translate(-27.391 -110.411)"/><path class="o" d="M81.591,63.519l7.121,4.54,7.119-4.54,7.12,4.54,7.121-4.54" transform="translate(7.949 -114.072)"/><path class="o" d="M81.591,64.591l7.121,4.54,7.119-4.54,7.12,4.54,7.121-4.54" transform="translate(7.949 -110.603)"/><path class="o" d="M92.507,63.46,99.627,68l7.119-4.54,7.12,4.54,7.121-4.54" transform="translate(43.29 -114.265)"/><path class="o" d="M92.507,64.531l7.121,4.54,7.119-4.54,7.12,4.54,7.121-4.54" transform="translate(43.29 -110.796)"/><path class="o" d="M103.422,63.4l7.121,4.54,7.119-4.54,7.12,4.54L131.9,63.4" transform="translate(78.631 -114.457)"/><path class="o" d="M103.422,64.472l7.121,4.54,7.119-4.54,7.12,4.54,7.121-4.54" transform="translate(78.631 -110.989)"/><path class="o" d="M114.338,63.341l7.121,4.54,7.119-4.54,7.12,4.54,7.121-4.54" transform="translate(113.971 -114.65)"/><path class="o" d="M114.338,64.412l7.121,4.54,7.119-4.54,7.12,4.54,7.121-4.54" transform="translate(113.971 -111.181)"/><path class="o" d="M125.254,63.281l7.121,4.54,7.119-4.54,7.12,4.54,7.121-4.54" transform="translate(149.312 -114.843)"/><path class="o" d="M125.254,64.353l7.121,4.54,7.119-4.54,7.12,4.54,7.121-4.54" transform="translate(149.312 -111.374)"/></g></g><path class="f" d="M82.271,80.033s-4.619,10.3,0,24.5,15.306,19.2,23.074,14.912c7.827-4.318,15.9-26.565,7.814-37.278C105.536,72.074,90.081,70.8,82.271,80.033Z" transform="translate(125.202 74.822)"/><path class="f" d="M108.028,86.8s-.11,1.475-.22,3.691c-.242,4.75-.509,12.9.22,17.256,1.064,6.39-.712,16.688-11.717,14.912s-19.883-9.585-17.044-14.2,5.886-8.39,9.361-13.916a42.5,42.5,0,0,0,4.886-11.649l14.4,5.382Z" transform="translate(120.392 104.269)"/><path class="g" d="M100.016,79.751S96.558,91.79,88.867,96.227l-7.691,4.437s-3.462-15.387,2.449-21.273c6.106-6.081,23.086-10,29.646,1.449,6.034,10.535,3.31,17.124,3.31,17.124s-9.306-4.2-12.933-11.208Z" transform="translate(125.039 73.888)"/><path class="e" d="M118.609,78.581s-2.4,13.569,5.3,15.361c6.823,1.589,8.878-9.7,8.878-9.7" transform="translate(248.35 90.309)"/><path class="e" d="M122.385,108.677c10.547.792,20.616,1.754,30.1,2.865" transform="translate(261.719 187.747)"/><line class="e" x2="60.353" transform="translate(61.707 329.601)"/><line class="e" x2="38.701" transform="translate(101.373 314.345)"/><line class="e" x2="7.795" transform="translate(41.547 329.601)"/><line class="e" x2="42.541" transform="translate(49.343 333.972)"/><path class="g" d="M64.147,89.528l6.615,9.9L83.134,86.12Z" transform="translate(73.168 114.718)"/><path class="e" d="M130.533,87.593a94.1,94.1,0,0,1-12.653,14.162" transform="translate(247.134 119.486)"/><path class="e" d="M129.439,73.72a91.583,91.583,0,0,1-5.967,41.2" transform="translate(265.239 74.571)"/><path class="g" d="M127.011,62.647l-4.58,27.559,22.143-2.463Z" transform="translate(261.867 38.722)"/><line class="e" x1="4.483" y1="19.923" transform="translate(390.543 118.771)"/><path class="e" d="M125.464,67.894a101.762,101.762,0,0,1,3.6,46.219" transform="translate(271.688 55.709)"/><path class="e" d="M58.268,152.38S53.1,110.712,75.7,90.935" transform="translate(52.49 130.306)"/><path class="e" d="M64.089,93.049s5.3-4.238,7.149-5.03" transform="translate(72.981 120.865)"/><path class="e" d="M71.034,89.979A60.141,60.141,0,0,0,57.41,109.858" transform="translate(51.357 127.211)"/><path class="e" d="M113.33,155.934s-13.8-27.544-8.84-50.5" transform="translate(200.303 177.251)"/></g></svg>