<svg xmlns="http://www.w3.org/2000/svg" xmlns:xlink="http://www.w3.org/1999/xlink" width="441.747" height="373.644" viewBox="0 0 441.747 373.644"><defs><style>.a,.i,.o{fill:none;}.b{fill:#f8f9ff;}.c{fill:#f39684;}.d{fill:#606060;}.e{fill:#e9e8ef;}.f{fill:#e897a3;}.g{fill:#8057a7;}.h{clip-path:url(#a);}.i{stroke:#fff;}.i,.n{stroke-miterlimit:10;}.i,.n,.o{stroke-width:0.25px;}.j{fill:#ffc529;}.k{fill:#d63c30;}.l,.n{fill:#fff;}.m{clip-path:url(#b);}.n{stroke:#45a0d4;}.o{stroke:#600;stroke-linejoin:round;}.p{fill:#45a0d4;}</style><clipPath id="a"><path class="a" d="M222.238,86.918c-9.373-3.013-17.378-5.586-24.338-7.778-4.6,4.886-23.416,23.841-29.448,13.931-3.7-6.073,1.439-16.518,4.265-21.4A111.06,111.06,0,0,0,151.9,67.942c-17.352-1.486-27.693-10.206-27.693-10.206L91.461,74.125s1.128,3.518,3.252,9.656c5.689,16.453,18.6,27.342,18.6,27.342S94.134,174.9,94.072,205.486l152.155-9.066c-2.709-28.842-1.1-60.763-1.1-60.763s15.139-2.585,31.755-6.277a53.082,53.082,0,0,0,12.761-4.6l-12.69-28.966C265.3,96.385,246.794,94.811,222.238,86.918Z" transform="translate(-91.461 -57.736)"/></clipPath><clipPath id="b"><path class="a" d="M122.555,124.879C108,128.6,79.54,130.654,61.426,126.338l-1.442.378L41.162,152.028s37.09,5.991,72.655-1.639c48.205-10.342,80.575-31.974,80.575-31.974L179.941,95.679C173.517,102.387,156.933,116.082,122.555,124.879Z" transform="translate(-41.162 -95.679)"/></clipPath></defs><g transform="translate(-23.834 -26.309)"><path class="b" d="M124.273,70.417c-7.385,14.539-16.784,12.988-54.453,28.033S24.353,172.472,41.013,204.083c19.2,36.434-1.436,41.178,9.352,69.53s61.758,55.183,108.422,48.459,133.312-63.294,181.558-49.78,60.258-16,72.147-55.7c14.994-50.063-31.938-120.264-66.239-136.354-52.678-24.71-59.933,2.735-99.282-34.679C225.874,25.5,148.661,22.415,124.273,70.417Z" transform="translate(17.332 10.516)"/><path class="c" d="M157.968,146.2v5.908l-61.519,2.706s7.92-8.85,16.628-10.457S157.968,146.2,157.968,146.2Z" transform="translate(141.886 229.631)"/><path class="d" d="M96.54,152.852h63.684a6.06,6.06,0,0,0,.984-2.461c0-.987-1.846-3.692-1.846-3.692l-60.99,2.147s-2.18.558-2.41,1.253C95.22,152.32,96.54,152.852,96.54,152.852Z" transform="translate(140.492 235.04)"/><path class="c" d="M160.7,160.251s-2.706,10.776-2.954,13.511-6.153-.957-9.107,2.735-3.2,6.153-3.2,6.153l18.707-1.477,28.8-46.031s-3.692-3.447-6.646-3.692S160.7,160.251,160.7,160.251Z" transform="translate(237.615 205.241)"/><path class="d" d="M198.5,135.334l-27.678,45.612-26.834,1.97s.493-2.094,1.6-2.709,3.692-1.6,3.692-1.6l17.6-.614L195.8,132.7Z" transform="translate(234.765 207.685)"/><path class="e" d="M92.271,142.141c-1.131,25.354,14.909,55.768,23.635,70.322.88,1.468-1.811,2.18-.334,5.5,1.433,3.223,3,3.834,3,3.834l47.674,6.005s5.908,0,.245-25.109c-2.8-12.418,4.561-38.992,4.561-38.992s3.193,10.93,16.117,22.376c9.355,8.286,44.791,22.677,63.649,29.994,2.387.928,3.066,4.93,4.478,6.191,4.245,3.79,6.646,2.5,6.646,2.5l29.043-40.912s-20.367-17.709-35.876-38.756c-5.719-7.76-8.77-23.561-10.351-40.41L92.6,113.751C92.6,114.982,92.318,141.1,92.271,142.141Z" transform="translate(133.61 152.947)"/><path class="f" d="M178.964,86.534c-1.477,0,3.938-6.587,3.568-10.492s-3.976.387-4.714-.493,1.811-3.648.334-6.971-5.589,3.119-9.934,5.01c-1.489.647-5.991,2.484-13.96,2.874l12.69,28.966c8.95-4.6,14.368-10.658,15.688-13.656C184.5,87.544,180.441,86.534,178.964,86.534Z" transform="translate(254.84 80.563)"/><path class="g" d="M222.238,86.918c-9.373-3.013-17.378-5.586-24.338-7.778-4.6,4.886-23.416,23.841-29.448,13.931-3.7-6.073,1.439-16.518,4.265-21.4A111.06,111.06,0,0,0,151.9,67.942c-17.352-1.486-27.693-10.206-27.693-10.206L91.461,74.125s1.128,3.518,3.252,9.656c5.689,16.453,18.6,27.342,18.6,27.342S94.134,174.9,94.072,205.486l152.155-9.066c-2.709-28.842-1.1-60.763-1.1-60.763s15.139-2.585,31.755-6.277a53.082,53.082,0,0,0,12.761-4.6l-12.69-28.966C265.3,96.385,246.794,94.811,222.238,86.918Z" transform="translate(132.14 61.211)"/><path class="f" d="M131.657,56.617s-8.123-.369-9.97,6.277.186,9.848,4.248,12.309,10.891.88,13.845-5.069S137.934,56.987,131.657,56.617Z" transform="translate(189.858 59.018)"/><path class="f" d="M123.517,61.553s-3.323,7.016-1.477,10.708,7.568,4.614,10.339,2.029,0-10.522,0-10.522Z" transform="translate(190.799 68.669)"/><path class="f" d="M92.189,52.906c2.177-.928,2.774,3.849,4,1.507,1.347-2.576,4.463-6.369,6.088-4.339s.789,3.14,2.443,2.933c4.124-.514,4.517-5.19,6.791-4.939,4.062.452,2.434,8.1,5.725,16.406,3.876,9.786,7.754,13.11,7.754,13.11L96,91.922s-5.7-16-5.7-33.477C90.3,54.873,90.3,53.7,92.189,52.906Z" transform="translate(129.879 42.3)"/><path class="f" d="M118.379,83.852c6.032,9.911,24.846-9.045,29.448-13.931-9.453-2.981-16.962-5.261-23.248-6.96-.668-.18-1.294-.34-1.935-.508C119.818,67.334,114.681,77.779,118.379,83.852Z" transform="translate(182.213 70.43)"/><path class="g" d="M144.1,71.137c-.319-4.133-2.732-11.5-7.518-14.77-4.206-2.877-9.509-3.571-10.735-.617s-4.8-4.307-6.274-.614,2.5,4.3,4.047,6.561-4.313,3.654.806,3.9,9.3-2.215,12.87-.124.863,5.293,2.954,5.663.969,2.7,1.022,3.775,1.332,1.7,1.332,1.7A7.827,7.827,0,0,0,144.1,71.137Z" transform="translate(186.435 53.608)"/><g transform="translate(223.601 118.947)"><g class="h"><g transform="translate(-62.464 -45.745)"><rect class="i" width="7.965" height="7.965" transform="matrix(0.973, -0.232, 0.232, 0.973, 267.132, 87.539)"/><rect class="i" width="7.965" height="7.965" transform="matrix(0.973, -0.232, 0.232, 0.973, 255.281, 106.815)"/><rect class="i" width="7.965" height="7.965" transform="matrix(0.973, -0.232, 0.232, 0.973, 243.429, 126.091)"/><rect class="i" width="7.965" height="7.965" transform="matrix(0.973, -0.232, 0.232, 0.973, 231.577, 145.367)"/><rect class="i" width="7.965" height="7.965" transform="matrix(0.973, -0.232, 0.232, 0.973, 219.725, 164.643)"/><rect class="i" width="7.965" height="7.965" transform="matrix(0.973, -0.232, 0.232, 0.973, 207.873, 183.919)"/><rect class="i" width="7.965" height="7.965" transform="matrix(0.973, -0.232, 0.232, 0.973, 196.022, 203.195)"/><rect class="i" width="7.965" height="7.965" transform="matrix(0.973, -0.232, 0.232, 0.973, 184.17, 222.471)"/><rect class="i" width="7.965" height="7.965" transform="matrix(0.973, -0.232, 0.232, 0.973, 172.318, 241.747)"/><rect class="i" width="7.965" height="7.965" transform="matrix(0.973, -0.232, 0.232, 0.973, 160.466, 261.023)"/><rect class="i" width="7.965" height="7.965" transform="matrix(0.973, -0.232, 0.232, 0.973, 244.816, 86.789)"/><rect class="i" width="7.965" height="7.965" transform="matrix(0.973, -0.232, 0.232, 0.973, 232.964, 106.065)"/><rect class="i" width="7.965" height="7.965" transform="matrix(0.973, -0.232, 0.232, 0.973, 221.112, 125.341)"/><rect class="i" width="7.965" height="7.965" transform="matrix(0.973, -0.232, 0.232, 0.973, 209.26, 144.617)"/><rect class="i" width="7.965" height="7.965" transform="matrix(0.973, -0.232, 0.232, 0.973, 197.409, 163.893)"/><rect class="i" width="7.965" height="7.965" transform="matrix(0.973, -0.232, 0.232, 0.973, 185.557, 183.169)"/><rect class="i" width="7.965" height="7.965" transform="matrix(0.973, -0.232, 0.232, 0.973, 173.705, 202.445)"/><rect class="i" width="7.965" height="7.965" transform="matrix(0.973, -0.232, 0.232, 0.973, 161.853, 221.721)"/><rect class="i" width="7.965" height="7.965" transform="matrix(0.973, -0.232, 0.232, 0.973, 150.001, 240.997)"/><rect class="i" width="7.965" height="7.965" transform="matrix(0.973, -0.232, 0.232, 0.973, 138.15, 260.273)"/><rect class="i" width="7.965" height="7.965" transform="matrix(0.973, -0.232, 0.232, 0.973, 232.595, 66.304)"/><rect class="i" width="7.965" height="7.965" transform="matrix(0.973, -0.232, 0.232, 0.973, 220.743, 85.58)"/><rect class="i" width="7.965" height="7.965" transform="matrix(0.973, -0.232, 0.232, 0.973, 208.891, 104.856)"/><rect class="i" width="7.965" height="7.965" transform="matrix(0.973, -0.232, 0.232, 0.973, 197.04, 124.132)"/><rect class="i" width="7.965" height="7.965" transform="matrix(0.973, -0.232, 0.232, 0.973, 185.188, 143.408)"/><rect class="i" width="7.965" height="7.965" transform="matrix(0.973, -0.232, 0.232, 0.973, 173.336, 162.684)"/><rect class="i" width="7.965" height="7.965" transform="matrix(0.973, -0.232, 0.232, 0.973, 161.484, 181.96)"/><rect class="i" width="7.965" height="7.965" transform="matrix(0.973, -0.232, 0.232, 0.973, 149.632, 201.236)"/><rect class="i" width="7.965" height="7.965" transform="matrix(0.973, -0.232, 0.232, 0.973, 137.781, 220.512)"/><rect class="i" width="7.965" height="7.965" transform="matrix(0.973, -0.232, 0.232, 0.973, 125.929, 239.788)"/><rect class="i" width="7.965" height="7.965" transform="matrix(0.973, -0.232, 0.232, 0.973, 210.278, 65.554)"/><rect class="i" width="7.965" height="7.965" transform="matrix(0.973, -0.232, 0.232, 0.973, 198.427, 84.83)"/><rect class="i" width="7.965" height="7.965" transform="matrix(0.973, -0.232, 0.232, 0.973, 186.575, 104.106)"/><rect class="i" width="7.965" height="7.965" transform="matrix(0.973, -0.232, 0.232, 0.973, 174.723, 123.382)"/><rect class="i" width="7.965" height="7.965" transform="matrix(0.973, -0.232, 0.232, 0.973, 162.871, 142.658)"/><rect class="i" width="7.965" height="7.965" transform="matrix(0.973, -0.232, 0.232, 0.973, 151.019, 161.934)"/><rect class="i" width="7.965" height="7.965" transform="matrix(0.973, -0.232, 0.232, 0.973, 139.168, 181.21)"/><rect class="i" width="7.965" height="7.965" transform="matrix(0.973, -0.232, 0.232, 0.973, 127.316, 200.485)"/><rect class="i" width="7.965" height="7.965" transform="matrix(0.973, -0.232, 0.232, 0.973, 115.464, 219.761)"/><rect class="i" width="7.965" height="7.965" transform="matrix(0.973, -0.232, 0.232, 0.973, 103.612, 239.037)"/><rect class="i" width="7.965" height="7.965" transform="matrix(0.973, -0.232, 0.232, 0.973, 198.058, 45.069)"/><rect class="i" width="7.965" height="7.965" transform="matrix(0.973, -0.232, 0.232, 0.973, 186.206, 64.345)"/><rect class="i" width="7.965" height="7.965" transform="matrix(0.973, -0.232, 0.232, 0.973, 174.354, 83.621)"/><rect class="i" width="7.965" height="7.965" transform="matrix(0.973, -0.232, 0.232, 0.973, 162.502, 102.897)"/><rect class="i" width="7.965" height="7.965" transform="matrix(0.973, -0.232, 0.232, 0.973, 150.65, 122.173)"/><rect class="i" width="7.965" height="7.965" transform="matrix(0.973, -0.232, 0.232, 0.973, 138.799, 141.449)"/><rect class="i" width="7.965" height="7.965" transform="matrix(0.973, -0.232, 0.232, 0.973, 126.947, 160.725)"/><rect class="i" width="7.965" height="7.965" transform="matrix(0.973, -0.232, 0.232, 0.973, 115.095, 180.001)"/><rect class="i" width="7.965" height="7.965" transform="matrix(0.973, -0.232, 0.232, 0.973, 103.243, 199.277)"/><rect class="i" width="7.965" height="7.965" transform="matrix(0.973, -0.232, 0.232, 0.973, 91.391, 218.552)"/><rect class="i" width="7.965" height="7.965" transform="matrix(0.973, -0.232, 0.232, 0.973, 175.741, 44.319)"/><rect class="i" width="7.965" height="7.965" transform="matrix(0.973, -0.232, 0.232, 0.973, 163.889, 63.594)"/><rect class="i" width="7.965" height="7.965" transform="matrix(0.973, -0.232, 0.232, 0.973, 152.037, 82.87)"/><rect class="i" width="7.965" height="7.965" transform="matrix(0.973, -0.232, 0.232, 0.973, 140.186, 102.146)"/><rect class="i" width="7.965" height="7.965" transform="matrix(0.973, -0.232, 0.232, 0.973, 128.334, 121.422)"/><rect class="i" width="7.965" height="7.965" transform="matrix(0.973, -0.232, 0.232, 0.973, 116.482, 140.698)"/><rect class="i" width="7.965" height="7.965" transform="matrix(0.973, -0.232, 0.232, 0.973, 104.63, 159.974)"/><rect class="i" width="7.965" height="7.965" transform="matrix(0.973, -0.232, 0.232, 0.973, 92.778, 179.25)"/><rect class="i" width="7.965" height="7.965" transform="matrix(0.973, -0.232, 0.232, 0.973, 80.927, 198.526)"/><rect class="i" width="7.965" height="7.965" transform="matrix(0.973, -0.232, 0.232, 0.973, 69.075, 217.802)"/><rect class="i" width="7.965" height="7.965" transform="matrix(0.973, -0.232, 0.232, 0.973, 163.52, 23.834)"/><rect class="i" width="7.965" height="7.965" transform="matrix(0.973, -0.232, 0.232, 0.973, 151.668, 43.11)"/><rect class="i" width="7.965" height="7.965" transform="matrix(0.973, -0.232, 0.232, 0.973, 139.817, 62.386)"/><rect class="i" width="7.965" height="7.965" transform="matrix(0.973, -0.232, 0.232, 0.973, 127.965, 81.662)"/><rect class="i" width="7.965" height="7.965" transform="matrix(0.973, -0.232, 0.232, 0.973, 116.113, 100.937)"/><rect class="i" width="7.965" height="7.965" transform="matrix(0.973, -0.232, 0.232, 0.973, 104.261, 120.213)"/><rect class="i" width="7.965" height="7.965" transform="matrix(0.973, -0.232, 0.232, 0.973, 92.409, 139.489)"/><rect class="i" width="7.965" height="7.965" transform="matrix(0.973, -0.232, 0.232, 0.973, 80.558, 158.765)"/><rect class="i" width="7.965" height="7.965" transform="matrix(0.973, -0.232, 0.232, 0.973, 68.706, 178.041)"/><rect class="i" width="7.965" height="7.965" transform="matrix(0.973, -0.232, 0.232, 0.973, 56.854, 197.317)"/><rect class="i" width="7.965" height="7.965" transform="matrix(0.973, -0.232, 0.232, 0.973, 141.204, 23.083)"/><rect class="i" width="7.965" height="7.965" transform="matrix(0.973, -0.232, 0.232, 0.973, 129.352, 42.359)"/><rect class="i" width="7.965" height="7.965" transform="matrix(0.973, -0.232, 0.232, 0.973, 117.5, 61.635)"/><rect class="i" width="7.965" height="7.965" transform="matrix(0.973, -0.232, 0.232, 0.973, 105.648, 80.911)"/><rect class="i" width="7.965" height="7.965" transform="matrix(0.973, -0.232, 0.232, 0.973, 93.796, 100.187)"/><rect class="i" width="7.965" height="7.965" transform="matrix(0.973, -0.232, 0.232, 0.973, 81.945, 119.463)"/><rect class="i" width="7.965" height="7.965" transform="matrix(0.973, -0.232, 0.232, 0.973, 70.093, 138.739)"/><rect class="i" width="7.965" height="7.965" transform="matrix(0.973, -0.232, 0.232, 0.973, 58.241, 158.015)"/><rect class="i" width="7.965" height="7.965" transform="matrix(0.973, -0.232, 0.232, 0.973, 46.389, 177.291)"/><rect class="i" width="7.965" height="7.965" transform="matrix(0.973, -0.232, 0.232, 0.973, 34.537, 196.567)"/><rect class="i" width="7.965" height="7.965" transform="matrix(0.973, -0.232, 0.232, 0.973, 128.983, 2.598)"/><rect class="i" width="7.965" height="7.965" transform="matrix(0.973, -0.232, 0.232, 0.973, 117.131, 21.874)"/><rect class="i" width="7.965" height="7.965" transform="matrix(0.973, -0.232, 0.232, 0.973, 105.279, 41.15)"/><rect class="i" width="7.965" height="7.965" transform="matrix(0.973, -0.232, 0.232, 0.973, 93.427, 60.426)"/><rect class="i" width="7.965" height="7.965" transform="matrix(0.973, -0.232, 0.232, 0.973, 81.576, 79.702)"/><rect class="i" width="7.965" height="7.965" transform="matrix(0.973, -0.232, 0.232, 0.973, 69.724, 98.978)"/><rect class="i" width="7.965" height="7.965" transform="matrix(0.973, -0.232, 0.232, 0.973, 57.872, 118.254)"/><rect class="i" width="7.965" height="7.965" transform="matrix(0.973, -0.232, 0.232, 0.973, 46.02, 137.53)"/><rect class="i" width="7.965" height="7.965" transform="matrix(0.973, -0.232, 0.232, 0.973, 34.168, 156.806)"/><rect class="i" width="7.965" height="7.965" transform="matrix(0.973, -0.232, 0.232, 0.973, 22.317, 176.082)"/><rect class="i" width="7.965" height="7.965" transform="matrix(0.973, -0.232, 0.232, 0.973, 106.666, 1.848)"/><rect class="i" width="7.965" height="7.965" transform="matrix(0.973, -0.232, 0.232, 0.973, 94.814, 21.124)"/><rect class="i" width="7.965" height="7.965" transform="matrix(0.973, -0.232, 0.232, 0.973, 82.963, 40.4)"/><rect class="i" width="7.965" height="7.965" transform="matrix(0.973, -0.232, 0.232, 0.973, 71.111, 59.676)"/><rect class="i" width="7.965" height="7.965" transform="matrix(0.973, -0.232, 0.232, 0.973, 59.259, 78.952)"/><rect class="i" width="7.965" height="7.965" transform="matrix(0.973, -0.232, 0.232, 0.973, 47.407, 98.228)"/><rect class="i" width="7.965" height="7.965" transform="matrix(0.973, -0.232, 0.232, 0.973, 35.555, 117.504)"/><rect class="i" width="7.965" height="7.965" transform="matrix(0.973, -0.232, 0.232, 0.973, 23.704, 136.78)"/><rect class="i" width="7.965" height="7.965" transform="matrix(0.973, -0.232, 0.232, 0.973, 11.852, 156.056)"/><rect class="i" width="7.965" height="7.965" transform="matrix(0.973, -0.232, 0.232, 0.973, 0, 175.332)"/></g></g></g><path class="i" d="M122.291,62.653s2.434,2.31,6.883,1.125" transform="translate(192.38 70.819)"/><path class="i" d="M115.964,114.333a196.743,196.743,0,0,0,7.234,24.813" transform="translate(180.017 171.799)"/><path class="i" d="M114.954,109.242s.774,4.915,2.307,12" transform="translate(178.044 161.851)"/><path class="f" d="M147.28,151.381a103.7,103.7,0,0,0-4.156-15.074l-.012,0c-3.119-13.907-7.27-25.685-9.264-31.9-9.051,5.725-25.549,13.4-47.042,20.471-5.435,1.787-11.447,3.861-17.038,5.288,2.895,1.9,8.478,6.437,17.62,16.474,8.608,9.453,13.127,27.026,15.5,43.326h41.733c.4-2.174.815-4.463,1.235-6.892.375-2.159.629-4.357.824-6.567l.062.006S149.1,161.486,147.28,151.381Z" transform="translate(89.753 152.392)"/><path class="f" d="M59.805,124l-3.929-.316a115.852,115.852,0,0,1-6.841,14.336A50.76,50.76,0,0,1,44.61,144.6l23.561,36.617c3.48-1.885,6.96-3.819,10.351-5.787,38.4-22.308,54.353-56.8,57.442-64.1-13.807,4.54-29.412,9.355-42.977,10.661C77.9,123.442,74.658,124.13,59.805,124Z" transform="translate(40.595 165.933)"/><path class="c" d="M39.407,130.375a12.728,12.728,0,0,0-7.016,1.846c-4.062,2.215,2.954,61.664,11.447,62.4s9.231-29.539,9.231-29.539l.694-.307L40.485,129.982C39.794,130.245,39.407,130.375,39.407,130.375Z" transform="translate(14.406 202.376)"/><path class="j" d="M34.348,144.416,47.626,179.21c3.58-1.6,22-9.937,40.6-20L64.661,122.6C54.033,136.174,38.534,142.812,34.348,144.416Z" transform="translate(20.544 187.942)"/><path class="c" d="M81.393,158.174c-.245,5.908.248,5.169,3.941,6.646s56.615,1.722,56.615,1.722,2.464-3.938-2.215-8.369-27.324-12.309-27.324-12.309H82.87Z" transform="translate(112.364 233.41)"/><path class="f" d="M34.338,96.866c-12.064,2.461-11.447,7.754-9.231,8.493s8.493,2.585,5.908,5.539-.369,3.692,2.954,5.539.245,2.461,2.461,5.415,23.265-4.236,36.626-10.191L58.487,86.731C50.635,91.224,41.968,95.309,34.338,96.866Z" transform="translate(0 117.866)"/><path class="f" d="M96.485,85.266l33.468,29.861c.86-.886,3.235-3.341,3.619-3.905,7.14-10.466,7.606-13.892,4.647-20.246a40.241,40.241,0,0,0-11.9-14.917l.009,0-.065-.041a51.1,51.1,0,0,0-6.809-4.537c-5.42-3.689-12.51-8.717-15.31-11.591-4.794-4.918-15.836-5.2-23.564.933,0,0-10.906,5.884-7.63,8.679s4.372,5.258,9.775,6.534c4.93,1.164,8.54,2.871,10.714,6.522l.027.024Z" transform="translate(94.779 58.222)"/><path class="e" d="M195.648,112.062c9.6-4.062,14.61-8.623,14.61-8.623l-4.443-3.964L172.348,69.614l-3.016-2.688L169.3,66.9l-1.917-1.766S136.2,58.188,100.717,82.516c-8.448,5.79-31.123,20.432-48.279,29.631a156.476,156.476,0,0,1-18.923,8.218l6.056,10.357L54.139,155.65l1.713,2.93a162.624,162.624,0,0,0,16.433-4.062c10.708-3.323,13.508-8.8,15.015-6.584,5.577,8.191-21.233,36.484-16.578,38.224a48.6,48.6,0,0,0,5.645,1.654c18.114,4.316,46.569,2.266,61.129-1.459,34.378-8.8,50.961-22.491,57.386-29.2a31.753,31.753,0,0,0,3.35-3.982s-5.908-12.59-12.9-31.117C183.307,116.7,188.4,115.128,195.648,112.062Z" transform="translate(18.916 73.875)"/><path class="f" d="M59.594,60.561c.446.032.975.083,1.509.16A12.033,12.033,0,0,0,59.594,60.561Z" transform="translate(69.873 66.731)"/><path class="f" d="M74.94,68.839a12.171,12.171,0,0,0-7.606-8.055c1.273.736-2.21,6.738-4.579,9.594-2.4,2.892-2.156,3.506-3.078,3.568s-2.771-.062-2.153,1.477,2.029,1.663,3.754,3.879A6.155,6.155,0,0,1,62.69,82.54c.384.157.777.3,1.176.419l-.8.089a2.624,2.624,0,0,1,1.365,3.822c-1.371,2.771-.449,4.986,5.459,5.169,5.438.171,3.548-8.519,3.211-9.91C77.717,79.341,76.169,73.146,74.94,68.839Z" transform="translate(65.586 67.167)"/><path class="k" d="M62.016,61.067a8.009,8.009,0,0,0-1.911-.452,11.718,11.718,0,0,1,1.944.5C62.031,61.105,62.034,61.073,62.016,61.067Z" transform="translate(70.872 66.837)"/><path class="k" d="M59.176,60.575a12.2,12.2,0,0,1,1.436.024c-.656-.047-1.125-.056-1.125-.056l-.414.033h.1Z" transform="translate(68.855 66.694)"/><path class="g" d="M118.728,83.432A12.329,12.329,0,0,1,117.514,83a6.155,6.155,0,0,0-1.412-3.238c-1.725-2.215-3.14-2.34-3.754-3.879s1.229-1.415,2.153-1.477.676-.676,3.078-3.568c2.369-2.856,5.852-8.859,4.579-9.594a11.718,11.718,0,0,0-1.944-.5c-.535-.077-1.063-.127-1.509-.16a12.2,12.2,0,0,0-1.436-.024h-.1c-1.046.024-10.868.5-21.8,9.783-9.473,8.044-19.939-8.862-30.771,0s.818,11.9-15.836,13.7-23.059,19.529-17.4,24.2c2.121,1.755,3.568,4.186,6.4,2.2,6.126-4.307,0,5.187,8.369,6.912s9.6-5.169,16.74-1.725,15.541,4.511,19.975-.73c8.123-9.6,30.5-26.346,35.542-28.81C120.149,85.24,119.857,84.4,118.728,83.432Z" transform="translate(10.762 66.706)"/><path class="j" d="M103.927,62.2,88.838,49.316,70.648,85.484l-1.43-1.291-1.486,1.642,1.885,1.7,1.371,1.235,1.929,1.74L74.4,88.869l-1.666-1.5,1.173-.945a6.024,6.024,0,0,0,5.036,2.561l.148-.012c3.232-.352,21.014-14.9,22.453-17.183,1.56-2.478-.292-5.545-1.146-6.735Zm-3.01,9.19C99.564,73.538,82,87.912,79.007,88.234l-.118.012a5.377,5.377,0,0,1-4.407-2.292L99.818,65.515C100.595,66.62,102.21,69.341,100.917,71.394Z" transform="translate(85.774 44.759)"/><path class="c" d="M72.386,123.154C67.4,124.391,65,127.46,57.073,137.43s-.546,15.815,11.269,8.094S97.232,116.989,72.386,123.154Z" transform="translate(58.496 186.834)"/><path class="i" d="M36.2,141.576l9.354,3.077L36.2,146.376l8.493,2.462" transform="translate(24.171 225.029)"/><path class="i" d="M90.517,151.584l8.677-5.811L97.9,153.068l6.174-4.561" transform="translate(130.295 233.23)"/><path class="i" d="M32.561,130.326s3,37.9,5.279,48.365,5.483,14.731,5.483,14.731" transform="translate(17.052 203.048)"/><line class="i" x2="59.694" y2="2.585" transform="translate(194.41 393.683)"/><path class="f" d="M92.311,58.136s-.786-2.41-4.109-1.477c-6.974,1.961-15.555,9.76-15.555,9.76s4.26,3.731,7.63,3.134a4.424,4.424,0,0,0,3.678-3.8,2.11,2.11,0,0,0,2.921.446c1.7-1.161,2.924-4.263,2.924-4.263s-.2.136,1.967-.195S92.311,58.136,92.311,58.136Z" transform="translate(95.378 58.687)"/><path class="f" d="M68.692,112.856l.346-.154A.5.5,0,0,0,68.692,112.856Z" transform="translate(87.65 168.612)"/><path class="c" d="M98.806,115.261S92.65,113.35,92.464,127.2c-.145,10.868.771,18.314,3.8,23.283s6.156,4.983,6.156,4.983,2.363-15.021.541-25.126A103.7,103.7,0,0,0,98.806,115.261Z" transform="translate(134.07 173.437)"/><path class="j" d="M83.576,170.289h29.539s3.87-6.023,9.6-36.924H80.979c1.415,9.739,2.065,19.023,2.36,25.847C83.632,165.953,83.576,170.289,83.576,170.289Z" transform="translate(111.658 208.986)"/><g transform="translate(75.02 231.029)"><path class="l" d="M122.555,124.879C108,128.6,79.54,130.654,61.426,126.338l-1.442.378L41.162,152.028s37.09,5.991,72.655-1.639c48.205-10.342,80.575-31.974,80.575-31.974L179.941,95.679C173.517,102.387,156.933,116.082,122.555,124.879Z" transform="translate(-41.162 -95.679)"/><g class="m"><line class="n" y1="84.586" x2="259.739" transform="translate(-70.232 -47.634)"/><line class="n" y1="84.586" x2="259.739" transform="translate(-69.053 -44.014)"/><line class="n" y1="84.586" x2="259.739" transform="translate(-67.874 -40.395)"/><line class="n" y1="84.586" x2="259.739" transform="translate(-66.695 -36.775)"/><line class="n" y1="84.586" x2="259.739" transform="translate(-65.516 -33.155)"/><line class="n" y1="84.586" x2="259.739" transform="translate(-64.338 -29.535)"/><line class="n" y1="84.586" x2="259.739" transform="translate(-63.159 -25.915)"/><line class="n" y1="84.586" x2="259.739" transform="translate(-61.98 -22.296)"/><line class="n" y1="84.586" x2="259.739" transform="translate(-60.801 -18.676)"/><line class="n" y1="84.586" x2="259.739" transform="translate(-59.622 -15.056)"/><line class="n" y1="84.586" x2="259.739" transform="translate(-58.688 -11.436)"/><line class="n" y1="84.586" x2="259.739" transform="translate(-57.509 -7.816)"/><line class="n" y1="84.586" x2="259.739" transform="translate(-56.33 -4.196)"/><line class="n" y1="84.586" x2="259.739" transform="translate(-55.151 -0.576)"/><line class="n" y1="84.586" x2="259.739" transform="translate(-53.972 3.043)"/><line class="n" y1="84.586" x2="259.739" transform="translate(-52.794 6.663)"/><line class="n" y1="84.586" x2="259.739" transform="translate(-51.615 10.283)"/><line class="n" y1="84.586" x2="259.739" transform="translate(-50.436 13.903)"/><line class="n" y1="84.586" x2="259.739" transform="translate(-49.257 17.523)"/><line class="n" y1="84.586" x2="259.739" transform="translate(-48.078 21.142)"/></g></g><path class="i" d="M60.585,67.638s1.276,1.908,5.952.987" transform="translate(71.809 80.559)"/><path class="i" d="M58.3,81.357s2.245,3.8,6.924,1.152a4.091,4.091,0,0,0,1.985-4.983" transform="translate(67.353 99.88)"/><path class="i" d="M69.663,77.339s2.983,2.032,5.66,0a3.541,3.541,0,0,0,1.2-4.744" transform="translate(89.547 90.245)"/><path class="o" d="M47.318,140.623c-2.913,1.2-4.614,1.828-4.614,1.828" transform="translate(36.871 223.168)"/><path class="o" d="M101.323,128.36c-3.468,3.1-7.273,6.262-11.444,9.438-15.756,11.993-34.05,20.772-44.389,25.253" transform="translate(42.315 199.207)"/><path class="o" d="M94.392,111.088s-3.681,19.552-27.416,43.733" transform="translate(84.297 165.458)"/><path class="i" d="M59.155,126.607s-3.642,3.6-1.108,7.878,7.736.275,7.736.275" transform="translate(65.098 195.781)"/><path class="i" d="M94.548,122s0,4.59,3.6,4.313S101.286,122,101.286,122" transform="translate(138.171 186.782)"/><path class="i" d="M73.6,67.565s2.771,2.275,5.725,1.415a3.637,3.637,0,0,0,2.768-3.63s.738,1.477,3.261.307a4.9,4.9,0,0,0,2.585-4.124,2.732,2.732,0,0,0,2.623-.455c1.9-1.947-.9-4.425-.9-4.425" transform="translate(97.24 59.095)"/><path class="o" d="M47.7,116.824a199.223,199.223,0,0,0,42.454-2.044" transform="translate(46.639 172.672)"/><path class="o" d="M42.7,114.909s3.477.691,9.609,1.264" transform="translate(36.871 172.924)"/><path class="o" d="M129.867,95.726l14.1,22.45s-15.756,13.08-64.987,27.85q-6.11,1.834-12,3.187" transform="translate(84.295 135.442)"/><line class="o" y1="1.969" x2="20.141" transform="translate(421.785 101.735)"/><line class="o" x2="6.026" y2="14.277" transform="translate(248.935 48.564)"/><line class="o" x1="16.985" y2="12.8" transform="translate(276.013 26.409)"/><line class="o" y1="15.754" x2="4.431" transform="translate(371.032 62.841)"/><line class="o" y1="11.384" x2="9.32" transform="translate(428.634 107.454)"/><line class="o" y1="4.057" x2="21.662" transform="translate(443.896 121.428)"/><line class="o" x1="10.819" y1="16.493" transform="translate(220.183 39.209)"/><circle class="g" cx="5.292" cy="5.292" r="5.292" transform="translate(388.756 55.702)"/><circle class="g" cx="2.215" cy="2.215" r="2.215" transform="translate(254.105 74.165)"/><circle class="p" cx="2.339" cy="2.339" r="2.339" transform="translate(437.954 76.38)"/><circle class="o" cx="3.203" cy="3.203" r="3.203" transform="translate(448.45 134.222)"/><line class="o" y1="4.8" x2="19.878" transform="translate(198.164 87.95)"/><circle class="p" cx="2.846" cy="2.846" r="2.846" transform="translate(413.741 113.146)"/><circle class="p" cx="1.569" cy="1.569" r="1.569" transform="translate(234.264 71.026)"/><circle class="p" cx="1.354" cy="1.354" r="1.354" transform="translate(200.36 68.01)"/><circle class="g" cx="2.954" cy="2.954" r="2.954" transform="translate(231.31 26.901)"/><path class="o" d="M184.785,177.183s-25.652-25.779-30.461-33.932c-8.306-14.087-8.306-39.2-8.306-39.2" transform="translate(238.739 151.716)"/><path class="g" d="M176.232,68.126,164.811,83.9l14.583,5.342Z" transform="translate(275.462 81.514)"/><path class="o" d="M157.2,102.29s11.16-3.3,17.762-9.568c10.5-9.97,12.885-19.98,12.885-19.98" transform="translate(260.598 90.532)"/><line class="o" y1="20.062" x2="5.991" transform="translate(185.549 60.995)"/><line class="o" y1="13.231" x2="17.641" transform="translate(191.54 71.026)"/></g></svg>