<svg xmlns="http://www.w3.org/2000/svg" xmlns:xlink="http://www.w3.org/1999/xlink" width="338.889" height="286.662" viewBox="0 0 338.889 286.662"><defs><style>.a,.i,.o{fill:none;}.b{fill:#f8f9ff;}.c{fill:#f39684;}.d{fill:#606060;}.e{fill:#e9e8ef;}.f{fill:#e897a3;}.g{fill:#8057a7;}.h{clip-path:url(#a);}.i{stroke:#fff;}.i,.n{stroke-miterlimit:10;}.i,.n,.o{stroke-width:0.25px;}.j{fill:#ffc529;}.k{fill:#d63c30;}.l,.n{fill:#fff;}.m{clip-path:url(#b);}.n{stroke:#45a0d4;}.o{stroke:#600;stroke-linejoin:round;}.p{fill:#45a0d4;}</style><clipPath id="a"><path class="a" d="M191.786,80.123c-7.19-2.311-13.331-4.285-18.67-5.967-3.531,3.748-17.963,18.29-22.591,10.687-2.837-4.659,1.1-12.672,3.272-16.416a85.2,85.2,0,0,0-15.971-2.862c-13.311-1.14-21.245-7.829-21.245-7.829L91.461,70.308s.866,2.7,2.495,7.408c4.365,12.622,14.267,20.975,14.267,20.975s-14.712,48.925-14.759,72.391l116.725-6.955c-2.078-22.126-.841-46.614-.841-46.614s11.614-1.983,24.361-4.815a40.722,40.722,0,0,0,9.79-3.531l-9.735-22.221C224.823,87.386,210.624,86.178,191.786,80.123Z" transform="translate(-91.461 -57.736)"/></clipPath><clipPath id="b"><path class="a" d="M103.6,118.079c-11.17,2.858-33,4.43-46.895,1.119l-1.106.29-14.44,19.418s28.453,4.6,55.737-1.258c36.981-7.934,61.813-24.528,61.813-24.528L147.626,95.679C142.7,100.825,129.975,111.331,103.6,118.079Z" transform="translate(-41.162 -95.679)"/></clipPath></defs><g transform="translate(-23.834 -26.309)"><path class="b" d="M102.951,61.422c-5.665,11.154-12.876,9.964-41.773,21.505s-34.88,56.786-22.1,81.036c14.73,27.95-1.1,31.589,7.174,53.34s47.377,42.333,83.175,37.175S231.7,205.923,268.709,216.29s46.226-12.275,55.347-42.732c11.5-38.406-24.5-92.26-50.815-104.6-40.411-18.956-45.977,2.1-76.164-26.6C180.893,26.962,121.66,24.6,102.951,61.422Z" transform="translate(11.231 6.814)"/><path class="c" d="M143.643,145.671V150.2l-47.194,2.076s6.075-6.789,12.756-8.022S143.643,145.671,143.643,145.671Z" transform="translate(91.938 148.795)"/><path class="d" d="M96.353,151.419h48.855a4.649,4.649,0,0,0,.755-1.888c0-.757-1.416-2.833-1.416-2.833l-46.788,1.647s-1.672.428-1.849.961C95.34,151.011,96.353,151.419,96.353,151.419Z" transform="translate(91.035 152.3)"/><path class="c" d="M157.149,153.544s-2.076,8.267-2.266,10.365-4.72-.734-6.986,2.1-2.454,4.72-2.454,4.72l14.351-1.133,22.095-35.313s-2.833-2.645-5.1-2.833S157.149,153.544,157.149,153.544Z" transform="translate(153.968 132.991)"/><path class="d" d="M185.8,134.72l-21.233,34.991-20.585,1.512s.378-1.607,1.228-2.078,2.833-1.228,2.833-1.228l13.5-.471,22.19-34.746Z" transform="translate(152.121 134.574)"/><path class="e" d="M92.257,133.419c-.868,19.45,11.437,42.782,18.131,53.947.675,1.126-1.389,1.672-.256,4.222,1.1,2.472,2.3,2.941,2.3,2.941l36.573,4.607s4.532,0,.188-19.262c-2.148-9.527,3.5-29.913,3.5-29.913s2.45,8.385,12.364,17.166c7.177,6.356,34.361,17.4,48.828,23.01,1.831.712,2.352,3.782,3.435,4.75,3.256,2.907,5.1,1.915,5.1,1.915l22.28-31.386s-15.625-13.585-27.522-29.731c-4.387-5.953-6.728-18.074-7.94-31L92.511,111.64C92.509,112.585,92.294,132.619,92.257,133.419Z" transform="translate(86.576 99.105)"/><path class="f" d="M173.211,82.134c-1.133,0,3.021-5.053,2.737-8.049s-3.05.3-3.617-.378,1.389-2.8.256-5.348-4.287,2.393-7.621,3.843a29.951,29.951,0,0,1-10.71,2.2l9.735,22.221c6.866-3.526,11.022-8.176,12.035-10.476C177.455,82.909,174.344,82.134,173.211,82.134Z" transform="translate(165.129 52.203)"/><path class="g" d="M191.786,80.123c-7.19-2.311-13.331-4.285-18.67-5.967-3.531,3.748-17.963,18.29-22.591,10.687-2.837-4.659,1.1-12.672,3.272-16.416a85.2,85.2,0,0,0-15.971-2.862c-13.311-1.14-21.245-7.829-21.245-7.829L91.461,70.308s.866,2.7,2.495,7.408c4.365,12.622,14.267,20.975,14.267,20.975s-14.712,48.925-14.759,72.391l116.725-6.955c-2.078-22.126-.841-46.614-.841-46.614s11.614-1.983,24.361-4.815a40.722,40.722,0,0,0,9.79-3.531l-9.735-22.221C224.823,87.386,210.624,86.178,191.786,80.123Z" transform="translate(85.623 39.663)"/><path class="f" d="M129.175,56.617s-6.232-.283-7.648,4.815.143,7.555,3.259,9.443,8.355.675,10.621-3.889S133.991,56.9,129.175,56.617Z" transform="translate(123.023 38.242)"/><path class="f" d="M123.043,61.553s-2.549,5.382-1.133,8.215,5.806,3.54,7.931,1.557,0-8.072,0-8.072Z" transform="translate(123.632 44.496)"/><path class="f" d="M91.75,51.777c1.67-.712,2.128,2.953,3.068,1.156,1.033-1.976,3.424-4.886,4.67-3.329s.605,2.409,1.874,2.25c3.163-.394,3.465-3.982,5.21-3.789,3.116.347,1.867,6.216,4.392,12.586,2.973,7.508,5.949,10.057,5.949,10.057l-22.237,11A86.568,86.568,0,0,1,90.3,56.026C90.3,53.286,90.3,52.389,91.75,51.777Z" transform="translate(84.158 27.409)"/><path class="f" d="M118.079,78.87c4.627,7.6,19.06-6.939,22.591-10.687-7.252-2.287-13.012-4.036-17.834-5.339-.512-.138-.993-.261-1.484-.39C119.182,66.2,115.241,74.211,118.079,78.87Z" transform="translate(118.069 45.637)"/><path class="g" d="M138.312,67.111c-.245-3.17-2.1-8.824-5.767-11.331-3.227-2.207-7.295-2.74-8.235-.474s-3.68-3.3-4.813-.471,1.917,3.3,3.1,5.033-3.308,2.8.619,2.994,7.136-1.7,9.873-.1.662,4.061,2.266,4.344.743,2.071.784,2.9,1.022,1.305,1.022,1.305A6,6,0,0,0,138.312,67.111Z" transform="translate(120.805 34.737)"/><g transform="translate(177.084 97.399)"><g class="h"><g transform="translate(-47.919 -35.093)"><rect class="i" width="6.111" height="6.111" transform="matrix(0.973, -0.232, 0.232, 0.973, 204.929, 67.155)"/><rect class="i" width="6.111" height="6.111" transform="matrix(0.973, -0.232, 0.232, 0.973, 195.837, 81.943)"/><rect class="i" width="6.111" height="6.111" transform="matrix(0.973, -0.232, 0.232, 0.973, 186.745, 96.73)"/><rect class="i" width="6.111" height="6.111" transform="matrix(0.973, -0.232, 0.232, 0.973, 177.653, 111.518)"/><rect class="i" width="6.111" height="6.111" transform="matrix(0.973, -0.232, 0.232, 0.973, 168.561, 126.305)"/><rect class="i" width="6.111" height="6.111" transform="matrix(0.973, -0.232, 0.232, 0.973, 159.469, 141.093)"/><rect class="i" width="6.111" height="6.111" transform="matrix(0.973, -0.232, 0.232, 0.973, 150.377, 155.88)"/><rect class="i" width="6.111" height="6.111" transform="matrix(0.973, -0.232, 0.232, 0.973, 141.285, 170.668)"/><rect class="i" width="6.111" height="6.111" transform="matrix(0.973, -0.232, 0.232, 0.973, 132.193, 185.455)"/><rect class="i" width="6.111" height="6.111" transform="matrix(0.973, -0.232, 0.232, 0.973, 123.101, 200.242)"/><rect class="i" width="6.111" height="6.111" transform="matrix(0.973, -0.232, 0.232, 0.973, 187.809, 66.58)"/><rect class="i" width="6.111" height="6.111" transform="matrix(0.973, -0.232, 0.232, 0.973, 178.717, 81.367)"/><rect class="i" width="6.111" height="6.111" transform="matrix(0.973, -0.232, 0.232, 0.973, 169.625, 96.155)"/><rect class="i" width="6.111" height="6.111" transform="matrix(0.973, -0.232, 0.232, 0.973, 160.533, 110.942)"/><rect class="i" width="6.111" height="6.111" transform="matrix(0.973, -0.232, 0.232, 0.973, 151.441, 125.73)"/><rect class="i" width="6.111" height="6.111" transform="matrix(0.973, -0.232, 0.232, 0.973, 142.349, 140.517)"/><rect class="i" width="6.111" height="6.111" transform="matrix(0.973, -0.232, 0.232, 0.973, 133.257, 155.304)"/><rect class="i" width="6.111" height="6.111" transform="matrix(0.973, -0.232, 0.232, 0.973, 124.165, 170.092)"/><rect class="i" width="6.111" height="6.111" transform="matrix(0.973, -0.232, 0.232, 0.973, 115.073, 184.879)"/><rect class="i" width="6.111" height="6.111" transform="matrix(0.973, -0.232, 0.232, 0.973, 105.981, 199.667)"/><rect class="i" width="6.111" height="6.111" transform="matrix(0.973, -0.232, 0.232, 0.973, 178.434, 50.865)"/><rect class="i" width="6.111" height="6.111" transform="matrix(0.973, -0.232, 0.232, 0.973, 169.342, 65.652)"/><rect class="i" width="6.111" height="6.111" transform="matrix(0.973, -0.232, 0.232, 0.973, 160.25, 80.44)"/><rect class="i" width="6.111" height="6.111" transform="matrix(0.973, -0.232, 0.232, 0.973, 151.158, 95.227)"/><rect class="i" width="6.111" height="6.111" transform="matrix(0.973, -0.232, 0.232, 0.973, 142.066, 110.015)"/><rect class="i" width="6.111" height="6.111" transform="matrix(0.973, -0.232, 0.232, 0.973, 132.974, 124.802)"/><rect class="i" width="6.111" height="6.111" transform="matrix(0.973, -0.232, 0.232, 0.973, 123.882, 139.59)"/><rect class="i" width="6.111" height="6.111" transform="matrix(0.973, -0.232, 0.232, 0.973, 114.79, 154.377)"/><rect class="i" width="6.111" height="6.111" transform="matrix(0.973, -0.232, 0.232, 0.973, 105.698, 169.164)"/><rect class="i" width="6.111" height="6.111" transform="matrix(0.973, -0.232, 0.232, 0.973, 96.606, 183.952)"/><rect class="i" width="6.111" height="6.111" transform="matrix(0.973, -0.232, 0.232, 0.973, 161.314, 50.289)"/><rect class="i" width="6.111" height="6.111" transform="matrix(0.973, -0.232, 0.232, 0.973, 152.222, 65.077)"/><rect class="i" width="6.111" height="6.111" transform="matrix(0.973, -0.232, 0.232, 0.973, 143.13, 79.864)"/><rect class="i" width="6.111" height="6.111" transform="matrix(0.973, -0.232, 0.232, 0.973, 134.038, 94.652)"/><rect class="i" width="6.111" height="6.111" transform="matrix(0.973, -0.232, 0.232, 0.973, 124.946, 109.439)"/><rect class="i" width="6.111" height="6.111" transform="matrix(0.973, -0.232, 0.232, 0.973, 115.854, 124.226)"/><rect class="i" width="6.111" height="6.111" transform="matrix(0.973, -0.232, 0.232, 0.973, 106.762, 139.014)"/><rect class="i" width="6.111" height="6.111" transform="matrix(0.973, -0.232, 0.232, 0.973, 97.67, 153.801)"/><rect class="i" width="6.111" height="6.111" transform="matrix(0.973, -0.232, 0.232, 0.973, 88.578, 168.589)"/><rect class="i" width="6.111" height="6.111" transform="matrix(0.973, -0.232, 0.232, 0.973, 79.486, 183.376)"/><rect class="i" width="6.111" height="6.111" transform="matrix(0.973, -0.232, 0.232, 0.973, 151.939, 34.574)"/><rect class="i" width="6.111" height="6.111" transform="matrix(0.973, -0.232, 0.232, 0.973, 142.847, 49.362)"/><rect class="i" width="6.111" height="6.111" transform="matrix(0.973, -0.232, 0.232, 0.973, 133.755, 64.149)"/><rect class="i" width="6.111" height="6.111" transform="matrix(0.973, -0.232, 0.232, 0.973, 124.663, 78.937)"/><rect class="i" width="6.111" height="6.111" transform="matrix(0.973, -0.232, 0.232, 0.973, 115.571, 93.724)"/><rect class="i" width="6.111" height="6.111" transform="matrix(0.973, -0.232, 0.232, 0.973, 106.479, 108.512)"/><rect class="i" width="6.111" height="6.111" transform="matrix(0.973, -0.232, 0.232, 0.973, 97.387, 123.299)"/><rect class="i" width="6.111" height="6.111" transform="matrix(0.973, -0.232, 0.232, 0.973, 88.295, 138.087)"/><rect class="i" width="6.111" height="6.111" transform="matrix(0.973, -0.232, 0.232, 0.973, 79.202, 152.874)"/><rect class="i" width="6.111" height="6.111" transform="matrix(0.973, -0.232, 0.232, 0.973, 70.11, 167.661)"/><rect class="i" width="6.111" height="6.111" transform="matrix(0.973, -0.232, 0.232, 0.973, 134.819, 33.999)"/><rect class="i" width="6.111" height="6.111" transform="matrix(0.973, -0.232, 0.232, 0.973, 125.727, 48.786)"/><rect class="i" width="6.111" height="6.111" transform="matrix(0.973, -0.232, 0.232, 0.973, 116.635, 63.574)"/><rect class="i" width="6.111" height="6.111" transform="matrix(0.973, -0.232, 0.232, 0.973, 107.543, 78.361)"/><rect class="i" width="6.111" height="6.111" transform="matrix(0.973, -0.232, 0.232, 0.973, 98.451, 93.149)"/><rect class="i" width="6.111" height="6.111" transform="matrix(0.973, -0.232, 0.232, 0.973, 89.359, 107.936)"/><rect class="i" width="6.111" height="6.111" transform="matrix(0.973, -0.232, 0.232, 0.973, 80.267, 122.723)"/><rect class="i" width="6.111" height="6.111" transform="matrix(0.973, -0.232, 0.232, 0.973, 71.174, 137.511)"/><rect class="i" width="6.111" height="6.111" transform="matrix(0.973, -0.232, 0.232, 0.973, 62.082, 152.298)"/><rect class="i" width="6.111" height="6.111" transform="matrix(0.973, -0.232, 0.232, 0.973, 52.99, 167.086)"/><rect class="i" width="6.111" height="6.111" transform="matrix(0.973, -0.232, 0.232, 0.973, 125.444, 18.284)"/><rect class="i" width="6.111" height="6.111" transform="matrix(0.973, -0.232, 0.232, 0.973, 116.352, 33.071)"/><rect class="i" width="6.111" height="6.111" transform="matrix(0.973, -0.232, 0.232, 0.973, 107.26, 47.859)"/><rect class="i" width="6.111" height="6.111" transform="matrix(0.973, -0.232, 0.232, 0.973, 98.168, 62.646)"/><rect class="i" width="6.111" height="6.111" transform="matrix(0.973, -0.232, 0.232, 0.973, 89.075, 77.434)"/><rect class="i" width="6.111" height="6.111" transform="matrix(0.973, -0.232, 0.232, 0.973, 79.983, 92.221)"/><rect class="i" width="6.111" height="6.111" transform="matrix(0.973, -0.232, 0.232, 0.973, 70.891, 107.009)"/><rect class="i" width="6.111" height="6.111" transform="matrix(0.973, -0.232, 0.232, 0.973, 61.799, 121.796)"/><rect class="i" width="6.111" height="6.111" transform="matrix(0.973, -0.232, 0.232, 0.973, 52.707, 136.583)"/><rect class="i" width="6.111" height="6.111" transform="matrix(0.973, -0.232, 0.232, 0.973, 43.615, 151.371)"/><rect class="i" width="6.111" height="6.111" transform="matrix(0.973, -0.232, 0.232, 0.973, 108.324, 17.708)"/><rect class="i" width="6.111" height="6.111" transform="matrix(0.973, -0.232, 0.232, 0.973, 99.231, 32.496)"/><rect class="i" width="6.111" height="6.111" transform="matrix(0.973, -0.232, 0.232, 0.973, 90.139, 47.283)"/><rect class="i" width="6.111" height="6.111" transform="matrix(0.973, -0.232, 0.232, 0.973, 81.047, 62.071)"/><rect class="i" width="6.111" height="6.111" transform="matrix(0.973, -0.232, 0.232, 0.973, 71.955, 76.858)"/><rect class="i" width="6.111" height="6.111" transform="matrix(0.973, -0.232, 0.232, 0.973, 62.863, 91.645)"/><rect class="i" width="6.111" height="6.111" transform="matrix(0.973, -0.232, 0.232, 0.973, 53.771, 106.433)"/><rect class="i" width="6.111" height="6.111" transform="matrix(0.973, -0.232, 0.232, 0.973, 44.679, 121.22)"/><rect class="i" width="6.111" height="6.111" transform="matrix(0.973, -0.232, 0.232, 0.973, 35.587, 136.008)"/><rect class="i" width="6.111" height="6.111" transform="matrix(0.973, -0.232, 0.232, 0.973, 26.495, 150.795)"/><rect class="i" width="6.111" height="6.111" transform="matrix(0.973, -0.232, 0.232, 0.973, 98.948, 1.993)"/><rect class="i" width="6.111" height="6.111" transform="matrix(0.973, -0.232, 0.232, 0.973, 89.856, 16.781)"/><rect class="i" width="6.111" height="6.111" transform="matrix(0.973, -0.232, 0.232, 0.973, 80.764, 31.568)"/><rect class="i" width="6.111" height="6.111" transform="matrix(0.973, -0.232, 0.232, 0.973, 71.672, 46.356)"/><rect class="i" width="6.111" height="6.111" transform="matrix(0.973, -0.232, 0.232, 0.973, 62.58, 61.143)"/><rect class="i" width="6.111" height="6.111" transform="matrix(0.973, -0.232, 0.232, 0.973, 53.488, 75.931)"/><rect class="i" width="6.111" height="6.111" transform="matrix(0.973, -0.232, 0.232, 0.973, 44.396, 90.718)"/><rect class="i" width="6.111" height="6.111" transform="matrix(0.973, -0.232, 0.232, 0.973, 35.304, 105.505)"/><rect class="i" width="6.111" height="6.111" transform="matrix(0.973, -0.232, 0.232, 0.973, 26.212, 120.293)"/><rect class="i" width="6.111" height="6.111" transform="matrix(0.973, -0.232, 0.232, 0.973, 17.12, 135.08)"/><rect class="i" width="6.111" height="6.111" transform="matrix(0.973, -0.232, 0.232, 0.973, 81.828, 1.418)"/><rect class="i" width="6.111" height="6.111" transform="matrix(0.973, -0.232, 0.232, 0.973, 72.736, 16.205)"/><rect class="i" width="6.111" height="6.111" transform="matrix(0.973, -0.232, 0.232, 0.973, 63.644, 30.993)"/><rect class="i" width="6.111" height="6.111" transform="matrix(0.973, -0.232, 0.232, 0.973, 54.552, 45.78)"/><rect class="i" width="6.111" height="6.111" transform="matrix(0.973, -0.232, 0.232, 0.973, 45.46, 60.567)"/><rect class="i" width="6.111" height="6.111" transform="matrix(0.973, -0.232, 0.232, 0.973, 36.368, 75.355)"/><rect class="i" width="6.111" height="6.111" transform="matrix(0.973, -0.232, 0.232, 0.973, 27.276, 90.142)"/><rect class="i" width="6.111" height="6.111" transform="matrix(0.973, -0.232, 0.232, 0.973, 18.184, 104.93)"/><rect class="i" width="6.111" height="6.111" transform="matrix(0.973, -0.232, 0.232, 0.973, 9.092, 119.717)"/><rect class="i" width="6.111" height="6.111" transform="matrix(0.973, -0.232, 0.232, 0.973, 0, 134.505)"/></g></g></g><path class="i" d="M122.291,62.653a5.649,5.649,0,0,0,5.28.863" transform="translate(124.657 45.889)"/><path class="i" d="M115.964,114.333a150.93,150.93,0,0,0,5.55,19.035" transform="translate(116.646 111.321)"/><path class="i" d="M114.954,109.242s.594,3.771,1.77,9.2" transform="translate(115.367 104.875)"/><path class="f" d="M129.231,140.441a79.554,79.554,0,0,0-3.188-11.564l-.009,0c-2.393-10.669-5.577-19.7-7.106-24.474-6.943,4.392-19.6,10.279-36.088,15.7-4.17,1.371-8.781,2.962-13.071,4.056,2.221,1.457,6.5,4.938,13.517,12.638,6.6,7.252,10.071,20.733,11.888,33.237h32.016c.308-1.668.625-3.424.947-5.287.288-1.657.483-3.342.632-5.038l.048,0S130.629,148.193,129.231,140.441Z" transform="translate(58.157 98.746)"/><path class="f" d="M56.267,121.048l-3.014-.242A88.875,88.875,0,0,1,48,131.8a38.94,38.94,0,0,1-3.395,5.053l18.074,28.091c2.669-1.446,5.339-2.93,7.94-4.439a108.51,108.51,0,0,0,44.067-49.177c-10.592,3.483-22.564,7.177-32.97,8.178C70.147,120.622,67.661,121.15,56.267,121.048Z" transform="translate(26.305 107.52)"/><path class="c" d="M37.5,130.283a9.765,9.765,0,0,0-5.382,1.416C29,133.4,34.382,179,40.9,179.571s7.082-22.661,7.082-22.661l.533-.236L38.325,129.982C37.795,130.184,37.5,130.283,37.5,130.283Z" transform="translate(9.335 131.134)"/><path class="j" d="M34.348,139.335l10.186,26.692c2.747-1.23,16.88-7.623,31.143-15.342L57.6,122.6C49.449,133.012,37.559,138.1,34.348,139.335Z" transform="translate(13.312 121.781)"/><path class="c" d="M81.381,155.308c-.188,4.532.19,3.966,3.023,5.1s43.432,1.321,43.432,1.321,1.89-3.021-1.7-6.42-20.961-9.443-20.961-9.443H82.514Z" transform="translate(72.809 151.244)"/><path class="f" d="M31.892,94.506c-9.255,1.888-8.781,5.949-7.082,6.515s6.515,1.983,4.532,4.249-.283,2.833,2.266,4.249.188,1.888,1.888,4.154,17.848-3.25,28.1-7.818L50.418,86.731C44.394,90.178,37.746,93.312,31.892,94.506Z" transform="translate(0 76.374)"/><path class="f" d="M90.863,78.5l25.675,22.908c.659-.68,2.481-2.563,2.776-3,5.477-8.029,5.835-10.657,3.565-15.532a30.871,30.871,0,0,0-9.126-11.444l.007,0-.05-.032a39.2,39.2,0,0,0-5.223-3.481c-4.158-2.83-9.6-6.687-11.745-8.892-3.678-3.773-12.149-3.986-18.077.716,0,0-8.366,4.514-5.853,6.658s3.354,4.034,7.5,5.013c3.782.893,6.551,2.2,8.219,5l.02.018Z" transform="translate(61.414 37.726)"/><path class="e" d="M157.895,100.921A42.46,42.46,0,0,0,169.1,94.306l-3.408-3.041L140.02,68.357l-2.314-2.062-.02-.018-1.471-1.355s-23.928-5.33-51.146,13.334C78.588,82.7,61.193,93.93,48.032,100.987a120.04,120.04,0,0,1-14.517,6.3l4.646,7.945,11.176,19.124,1.314,2.248a124.758,124.758,0,0,0,12.606-3.116c8.215-2.549,10.363-6.748,11.519-5.051,4.278,6.284-16.289,27.989-12.717,29.323a37.284,37.284,0,0,0,4.331,1.269c13.9,3.311,35.725,1.738,46.895-1.119,26.373-6.748,39.095-17.254,44.024-22.4a24.361,24.361,0,0,0,2.57-3.055s-4.532-9.658-9.9-23.871C148.427,104.481,152.336,103.273,157.895,100.921Z" transform="translate(12.257 47.869)"/><path class="f" d="M59.594,60.561c.342.025.748.063,1.158.122A9.231,9.231,0,0,0,59.594,60.561Z" transform="translate(45.276 43.24)"/><path class="f" d="M70.856,66.964a9.337,9.337,0,0,0-5.835-6.18c.977.564-1.7,5.169-3.512,7.36-1.842,2.219-1.654,2.69-2.361,2.737s-2.126-.048-1.652,1.133,1.557,1.276,2.88,2.975a4.721,4.721,0,0,1,1.083,2.484c.295.12.6.229.9.322l-.612.068A2.013,2.013,0,0,1,62.8,80.8c-1.051,2.126-.344,3.825,4.188,3.966,4.172.131,2.722-6.535,2.463-7.6C72.986,75.02,71.8,70.268,70.856,66.964Z" transform="translate(42.498 43.522)"/><path class="k" d="M61.571,60.962a6.144,6.144,0,0,0-1.466-.347A8.99,8.99,0,0,1,61.6,61C61.583,60.991,61.585,60.966,61.571,60.962Z" transform="translate(45.923 43.308)"/><path class="k" d="M59.152,60.567a9.362,9.362,0,0,1,1.1.018c-.5-.036-.863-.043-.863-.043l-.317.025h.079Z" transform="translate(44.616 43.216)"/><path class="g" d="M97.914,78.1a9.455,9.455,0,0,1-.931-.331A4.721,4.721,0,0,0,95.9,75.289c-1.323-1.7-2.409-1.795-2.88-2.975s.943-1.085,1.652-1.133.519-.519,2.361-2.737c1.817-2.191,4.489-6.8,3.512-7.36a8.989,8.989,0,0,0-1.491-.383c-.41-.059-.816-.1-1.158-.122a9.36,9.36,0,0,0-1.1-.018h-.079c-.8.018-8.337.381-16.726,7.505-7.267,6.171-15.3-6.8-23.606,0s.628,9.128-12.149,10.512S26.546,93.558,30.89,97.145c1.627,1.346,2.737,3.211,4.911,1.686,4.7-3.3,0,3.979,6.42,5.3s7.365-3.966,12.842-1.323,11.922,3.46,15.323-.56c6.232-7.365,23.4-20.211,27.266-22.1C99,79.49,98.78,78.849,97.914,78.1Z" transform="translate(6.974 43.224)"/><path class="j" d="M95.5,59.2,83.923,49.316,69.969,77.062l-1.1-.99-1.14,1.26,1.446,1.305,1.051.947,1.48,1.335,1.138-1.26-1.278-1.153.9-.725a4.622,4.622,0,0,0,3.864,1.965l.113-.009c2.479-.27,16.121-11.433,17.225-13.182,1.2-1.9-.224-4.253-.879-5.167Zm-2.309,7.05C92.152,67.9,78.68,78.925,76.382,79.172l-.091.009a4.125,4.125,0,0,1-3.381-1.758L92.346,61.743C92.942,62.591,94.182,64.678,93.189,66.253Z" transform="translate(55.579 29.003)"/><path class="c" d="M68.052,122.891c-3.825.95-5.663,3.3-11.747,10.952s-.419,12.133,8.645,6.209S87.112,118.162,68.052,122.891Z" transform="translate(37.904 121.064)"/><path class="i" d="M36.2,141.576l7.176,2.361L36.2,145.258l6.515,1.888" transform="translate(15.662 145.813)"/><path class="i" d="M90.517,150.231l6.657-4.458-.991,5.6,4.736-3.5" transform="translate(84.427 151.127)"/><path class="i" d="M32.561,130.326s2.3,29.072,4.05,37.1,4.206,11.3,4.206,11.3" transform="translate(11.049 131.57)"/><line class="i" x2="45.794" y2="1.983" transform="translate(154.691 308.161)"/><path class="f" d="M87.732,57.742s-.6-1.849-3.152-1.133c-5.35,1.5-11.933,7.487-11.933,7.487s3.268,2.862,5.853,2.4a3.394,3.394,0,0,0,2.821-2.912,1.619,1.619,0,0,0,2.241.342,8.543,8.543,0,0,0,2.243-3.27s-.154.1,1.509-.15S87.732,57.742,87.732,57.742Z" transform="translate(61.802 38.028)"/><path class="f" d="M68.692,112.82l.265-.118A.384.384,0,0,0,68.692,112.82Z" transform="translate(56.795 109.256)"/><path class="c" d="M97.326,115.24S92.6,113.774,92.46,124.4c-.111,8.337.591,14.05,2.916,17.861s4.723,3.823,4.723,3.823,1.813-11.523.415-19.275A79.554,79.554,0,0,0,97.326,115.24Z" transform="translate(86.874 112.383)"/><path class="j" d="M82.971,161.691h22.661s2.969-4.621,7.363-28.326H80.979c1.085,7.471,1.584,14.594,1.811,19.828C83.014,158.365,82.971,161.691,82.971,161.691Z" transform="translate(72.352 135.417)"/><g transform="translate(63.101 183.382)"><path class="l" d="M103.6,118.079c-11.17,2.858-33,4.43-46.895,1.119l-1.106.29-14.44,19.418s28.453,4.6,55.737-1.258c36.981-7.934,61.813-24.528,61.813-24.528L147.626,95.679C142.7,100.825,129.975,111.331,103.6,118.079Z" transform="translate(-41.162 -95.679)"/><g class="m"><line class="n" y1="64.89" x2="199.258" transform="translate(-53.878 -36.542)"/><line class="n" y1="64.89" x2="199.258" transform="translate(-52.974 -33.765)"/><line class="n" y1="64.89" x2="199.258" transform="translate(-52.069 -30.988)"/><line class="n" y1="64.89" x2="199.258" transform="translate(-51.165 -28.212)"/><line class="n" y1="64.89" x2="199.258" transform="translate(-50.261 -25.435)"/><line class="n" y1="64.89" x2="199.258" transform="translate(-49.356 -22.658)"/><line class="n" y1="64.89" x2="199.258" transform="translate(-48.452 -19.881)"/><line class="n" y1="64.89" x2="199.258" transform="translate(-47.548 -17.104)"/><line class="n" y1="64.89" x2="199.258" transform="translate(-46.643 -14.327)"/><line class="n" y1="64.89" x2="199.258" transform="translate(-45.739 -11.55)"/><line class="n" y1="64.89" x2="199.258" transform="translate(-45.022 -8.773)"/><line class="n" y1="64.89" x2="199.258" transform="translate(-44.118 -5.996)"/><line class="n" y1="64.89" x2="199.258" transform="translate(-43.213 -3.219)"/><line class="n" y1="64.89" x2="199.258" transform="translate(-42.309 -0.442)"/><line class="n" y1="64.89" x2="199.258" transform="translate(-41.405 2.335)"/><line class="n" y1="64.89" x2="199.258" transform="translate(-40.5 5.112)"/><line class="n" y1="64.89" x2="199.258" transform="translate(-39.596 7.889)"/><line class="n" y1="64.89" x2="199.258" transform="translate(-38.692 10.665)"/><line class="n" y1="64.89" x2="199.258" transform="translate(-37.787 13.442)"/><line class="n" y1="64.89" x2="199.258" transform="translate(-36.883 16.219)"/></g></g><path class="i" d="M60.585,67.638s.979,1.464,4.566.757" transform="translate(46.531 52.2)"/><path class="i" d="M58.3,80.465s1.722,2.914,5.312.884a3.139,3.139,0,0,0,1.523-3.823" transform="translate(43.643 64.719)"/><path class="i" d="M69.663,76.234a3.893,3.893,0,0,0,4.342,0,2.717,2.717,0,0,0,.922-3.639" transform="translate(58.024 58.476)"/><path class="o" d="M46.244,140.623c-2.234.922-3.54,1.4-3.54,1.4" transform="translate(23.891 144.607)"/><path class="o" d="M88.322,128.36c-2.66,2.382-5.579,4.8-8.779,7.24-12.087,9.2-26.121,15.935-34.053,19.373" transform="translate(27.419 129.08)"/><path class="o" d="M88.008,111.088s-2.824,15-21.032,33.55" transform="translate(54.622 107.212)"/><path class="i" d="M58.688,126.607s-2.794,2.762-.85,6.044,5.935.211,5.935.211" transform="translate(42.182 126.861)"/><path class="i" d="M94.548,122s0,3.522,2.762,3.309S99.717,122,99.717,122" transform="translate(89.531 121.029)"/><path class="i" d="M73.6,65.024s2.126,1.745,4.392,1.085a2.79,2.79,0,0,0,2.123-2.785s.567,1.133,2.5.236A3.758,3.758,0,0,0,84.6,60.4a2.1,2.1,0,0,0,2.012-.349c1.457-1.493-.693-3.395-.693-3.395" transform="translate(63.009 38.292)"/><path class="o" d="M47.7,116.348a152.834,152.834,0,0,0,32.568-1.568" transform="translate(30.221 111.887)"/><path class="o" d="M42.7,114.909s2.667.53,7.372.97" transform="translate(23.891 112.05)"/><path class="o" d="M115.223,95.726l10.814,17.222s-12.087,10.034-49.854,21.365q-4.687,1.407-9.207,2.445" transform="translate(54.621 87.762)"/><line class="o" y1="1.511" x2="15.451" transform="translate(329.12 84.195)"/><line class="o" x2="4.623" y2="10.953" transform="translate(196.519 43.405)"/><line class="o" x1="13.03" y2="9.82" transform="translate(217.292 26.409)"/><line class="o" y1="12.086" x2="3.399" transform="translate(290.185 54.358)"/><line class="o" y1="8.733" x2="7.15" transform="translate(334.374 88.582)"/><line class="o" y1="3.112" x2="16.618" transform="translate(346.082 99.302)"/><line class="o" x1="8.3" y1="12.652" transform="translate(174.462 36.229)"/><circle class="g" cx="4.06" cy="4.06" r="4.06" transform="translate(303.782 48.881)"/><circle class="g" cx="1.7" cy="1.7" r="1.7" transform="translate(200.485 63.044)"/><circle class="p" cx="1.794" cy="1.794" r="1.794" transform="translate(341.524 64.744)"/><circle class="o" cx="2.457" cy="2.457" r="2.457" transform="translate(349.576 109.117)"/><line class="o" y1="3.682" x2="15.249" transform="translate(157.57 73.62)"/><circle class="p" cx="2.183" cy="2.183" r="2.183" transform="translate(322.949 92.949)"/><circle class="p" cx="1.204" cy="1.204" r="1.204" transform="translate(185.264 60.637)"/><circle class="p" cx="1.039" cy="1.039" r="1.039" transform="translate(159.255 58.323)"/><circle class="g" cx="2.266" cy="2.266" r="2.266" transform="translate(182.998 26.787)"/><path class="o" d="M175.757,160.155s-19.679-19.776-23.368-26.031c-6.372-10.807-6.372-30.069-6.372-30.069" transform="translate(154.696 98.308)"/><path class="g" d="M173.573,68.126l-8.761,12.1L176,84.326Z" transform="translate(178.492 52.819)"/><path class="o" d="M157.2,95.41s8.561-2.529,13.626-7.34c8.051-7.648,9.885-15.328,9.885-15.328" transform="translate(168.86 58.662)"/><line class="o" y1="15.391" x2="4.596" transform="translate(147.893 52.941)"/><line class="o" y1="10.15" x2="13.533" transform="translate(152.488 60.637)"/></g></svg>