<svg xmlns="http://www.w3.org/2000/svg" xmlns:xlink="http://www.w3.org/1999/xlink" width="500.48" height="507.641" viewBox="0 0 500.48 507.641"><defs><style>.a,.c,.e,.g,.h,.j,.n,.p,.q{fill:none;}.b{fill:#f8f9ff;}.c,.h,.j,.p{stroke:#9ecbe3;}.c,.e,.g,.h,.n,.p{stroke-miterlimit:10;}.c,.p{stroke-width:2px;}.d{clip-path:url(#a);}.e{stroke:#45a0d4;}.e,.n,.q{stroke-width:0.25px;}.f{fill:#8057a7;}.g{stroke:#8057a7;}.i{fill:#b292d1;}.k{fill:#ffc529;}.l{fill:#b99dd4;}.m{clip-path:url(#b);}.n{stroke:#d4ebf9;}.o{clip-path:url(#c);}.p{stroke-linecap:round;}.q{stroke:#30384f;stroke-linejoin:round;}</style><clipPath id="a"><path class="a" d="M65.408,188.917,54.761,137.211l17.4,2.1,8.343,48.981-8.683,3.729Z" transform="translate(-54.761 -137.211)"/></clipPath><clipPath id="b"><path class="a" d="M145.476,69.765c-2.821-14.474,16.2-35.388,16.2-35.388H83.967S67.231,75.742,92.116,93.284c11.661,8.219,35.4,21.766,36.165,22.2L162.072,94.8C155.664,87.328,146.614,75.585,145.476,69.765Z" transform="translate(-78.461 -34.377)"/></clipPath><clipPath id="c"><path class="a" d="M186.292,53.591a94.487,94.487,0,0,0-1.775-19.441h-80.21s21.137,8.968,21.137,17.175c0,7.305-10.705,16.078-15.553,19.681l27.665,25.869,2.908-1.361S186.292,83.664,186.292,53.591Z" transform="translate(-104.307 -34.15)"/></clipPath></defs><g transform="translate(-39.504 -32.877)"><g transform="translate(39.504 35.294)"><path class="b" d="M192.958,48.976C16.624,112.835,176.2,200.176,110.89,267.154S16.9,400.018,59.966,476.91c43.048,76.86,136.475,78.324,288.585,29.113C474.317,465.337,517.365,380.617,533.683,316.73,579.185,138.555,369.292-14.887,192.958,48.976Z" transform="translate(-39.504 -34.22)"/></g><g transform="translate(101.86 33.877)"><line class="c" x2="24.819" y2="21.544" transform="translate(7.605 402.184)"/><g transform="translate(0.754 427.435)"><g class="d"><g transform="translate(-89.847 -50.293)"><line class="e" x2="133.993" y2="72.658" transform="translate(36.461 61.52)"/><line class="e" x2="133.993" y2="72.658" transform="translate(32.409 67.678)"/><line class="e" x2="133.993" y2="72.658" transform="translate(28.358 73.836)"/><line class="e" x2="133.993" y2="72.658" transform="translate(24.307 79.994)"/><line class="e" x2="133.993" y2="72.658" transform="translate(20.256 86.153)"/><line class="e" x2="133.993" y2="72.658" transform="translate(16.205 92.311)"/><line class="e" x2="133.993" y2="72.658" transform="translate(12.154 98.469)"/><line class="e" x2="133.993" y2="72.658" transform="translate(8.102 104.627)"/><line class="e" x2="133.993" y2="72.658" transform="translate(4.051 110.786)"/><line class="e" x2="133.993" y2="72.658" transform="translate(0 116.944)"/><line class="e" x2="133.993" y2="72.658" transform="translate(76.876)"/><line class="e" x2="133.993" y2="72.658" transform="translate(72.825 6.158)"/><line class="e" x2="133.993" y2="72.658" transform="translate(68.774 12.317)"/><line class="e" x2="133.993" y2="72.658" transform="translate(64.722 18.475)"/><line class="e" x2="133.993" y2="72.658" transform="translate(60.671 24.633)"/><line class="e" x2="133.993" y2="72.658" transform="translate(56.62 30.791)"/><line class="e" x2="133.993" y2="72.658" transform="translate(52.569 36.95)"/><line class="e" x2="133.993" y2="72.658" transform="translate(48.518 43.108)"/><line class="e" x2="133.993" y2="72.658" transform="translate(44.467 49.266)"/><line class="e" x2="133.993" y2="72.658" transform="translate(40.415 55.424)"/></g></g></g><path class="f" d="M97.223,189.585l17.092-57.34,24.021,9.688,55.379,20.935-12.236,27.954s-15.839.484-19.512,2.333c-7.6,3.835-12.625,5.535-20.765,4.935-14.937-1.1-17.907-8.062-31.024-8.864A68.64,68.64,0,0,0,97.223,189.585Z" transform="translate(79.173 274.65)"/><path class="g" d="M106.466,146.806l5.709-14.2,33.445,13.472-5.854,13.315" transform="translate(108.164 275.786)"/><path class="f" d="M67.237,208.783l-8.451-49.609,101.521-28.3v72.388s-9.055,4.037-23.355,4.141c-8.364.058-18.519-2.676-29.712-4.513C91.646,200.333,67.237,208.783,67.237,208.783Z" transform="translate(-41.384 270.36)"/><path class="h" d="M66.123,153.643l-3.706-12.237,47.894-12.237,2.413,12.237" transform="translate(-29.994 265.001)"/><path class="i" d="M173.5,130.877H143.513l-88.934,26.2,17.4,2.1L173.5,132.6" transform="translate(-54.579 270.361)"/><path class="j" d="M0,464.175,24.244,0" transform="translate(199.815 2.068)"/><line class="h" x1="84.587" y2="477.464" transform="translate(87.853)"/><line class="h" x2="105.627" transform="translate(95.57 433.903)"/><line class="h" x2="98.629" transform="translate(105.55 377.566)"/><line class="h" y1="1.621" x2="92.453" transform="translate(114.481 325.532)"/><line class="h" x2="85.44" y2="3.373" transform="translate(124.106 272.826)"/><line class="h" x2="78.233" y2="2.066" transform="translate(133.417 220.27)"/><line class="h" y1="1.604" x2="73.465" transform="translate(141.56 172.698)"/><path class="h" d="M90.6,65.837" transform="translate(58.413 66.364)"/><line class="h" x1="66.007" y1="2.938" transform="translate(149.018 129.265)"/><line class="h" y1="1.634" x2="62.453" transform="translate(156.239 89.809)"/><line class="h" x2="54.468" transform="translate(166.826 54.291)"/><line class="h" x2="52.097" y2="2.898" transform="translate(169.197 18.301)"/><g transform="translate(67.019 366.052)"><path class="h" d="M70.781,165.211l7.782-33.13,2.106-9.135" transform="translate(-70.781 -120.567)"/><line class="c" x1="5.032" y2="21.828" transform="translate(5.405)"/></g><path class="k" d="M145.476,69.765c-2.821-14.474,16.2-35.388,16.2-35.388H83.967S67.231,75.742,92.116,93.284c11.661,8.219,35.4,21.766,36.165,22.2L162.072,94.8C155.664,87.328,146.614,75.585,145.476,69.765Z" transform="translate(20.326 -32.31)"/><path class="k" d="M186.292,53.591a94.487,94.487,0,0,0-1.775-19.441h-80.21s21.137,8.968,21.137,17.175c0,7.305-10.705,16.078-15.553,19.681l27.665,25.869,2.908-1.361S186.292,83.664,186.292,53.591Z" transform="translate(101.392 -33.022)"/><path class="f" d="M129.946,48.985,96.155,69.671l.07.041s-.583,1.369-4.571,6.589c-3.053,4-3.421,7.342-2.523,9.655l44.678-32.281C132.6,52.174,131.241,50.495,129.946,48.985Z" transform="translate(52.452 13.508)"/><path class="l" d="M92.625,85.672c3.814.637,44.467-31.284,44.467-31.284a44.405,44.405,0,0,1-3.607-4.269L88.807,82.4A5.028,5.028,0,0,0,92.625,85.672Z" transform="translate(52.776 17.064)"/><path class="f" d="M142.043,79.635c.19-6.3-1.729-8.546-3.276-10.705L111.1,43.06c-1.411,1.047-2.35,1.679-2.35,1.679l-2.362.786a7.193,7.193,0,0,0-2.469,1.841l37.6,34.105A3.922,3.922,0,0,0,142.043,79.635Z" transform="translate(100.181 -5.076)"/><path class="l" d="M140.1,80.891a6.378,6.378,0,0,0,3.876-2.685L106.383,44.1a32.17,32.17,0,0,0-3.247,4.087Z" transform="translate(97.719 -1.811)"/><path class="k" d="M106.648,128.36A129.872,129.872,0,0,0,84.423,132a128.013,128.013,0,0,0-21.75,7.09l1.613,6.651a127.374,127.374,0,0,0,22.581-3.661,129.255,129.255,0,0,0,21.427-6.945Z" transform="translate(-29.192 262.465)"/><g transform="translate(98.787 2.067)"><g class="m"><path class="n" d="M77.167,24.986,84.479,32.3V24.986Z" transform="translate(-82.52 -63.832)"/><path class="n" d="M77.167,31.307l7.312,7.312V31.307Z" transform="translate(-82.52 -44.007)"/><path class="n" d="M77.167,37.627l7.312,7.312V37.627Z" transform="translate(-82.52 -24.182)"/><path class="n" d="M77.167,43.948l7.312,7.312V43.948Z" transform="translate(-82.52 -4.358)"/><path class="n" d="M77.167,50.269l7.312,7.312V50.269Z" transform="translate(-82.52 15.467)"/><path class="n" d="M77.167,56.589,84.479,63.9V56.589Z" transform="translate(-82.52 35.292)"/><path class="n" d="M77.167,62.91l7.312,7.312V62.91Z" transform="translate(-82.52 55.116)"/><path class="n" d="M77.167,69.231l7.312,7.312V69.231Z" transform="translate(-82.52 74.941)"/><path class="n" d="M77.167,75.551l7.312,7.312V75.551Z" transform="translate(-82.52 94.766)"/><path class="n" d="M77.167,81.872l7.312,7.312V81.872Z" transform="translate(-82.52 114.59)"/><path class="n" d="M82.235,22.335l7.312,7.312V22.335Z" transform="translate(-66.622 -72.146)"/><path class="n" d="M82.235,28.656l7.312,7.312V28.656Z" transform="translate(-66.622 -52.321)"/><path class="n" d="M82.235,34.977l7.312,7.312V34.977Z" transform="translate(-66.622 -32.497)"/><path class="n" d="M82.235,41.3l7.312,7.312V41.3Z" transform="translate(-66.622 -12.672)"/><path class="n" d="M82.235,47.618l7.312,7.312V47.618Z" transform="translate(-66.622 7.153)"/><path class="n" d="M82.235,53.939l7.312,7.312V53.939Z" transform="translate(-66.622 26.977)"/><path class="n" d="M82.235,60.259l7.312,7.312V60.259Z" transform="translate(-66.622 46.802)"/><path class="n" d="M82.235,66.58l7.312,7.312V66.58Z" transform="translate(-66.622 66.627)"/><path class="n" d="M82.235,72.9l7.312,7.312V72.9Z" transform="translate(-66.622 86.451)"/><path class="n" d="M82.235,79.221l7.312,7.312V79.221Z" transform="translate(-66.622 106.276)"/><path class="n" d="M87.505,24.977l7.312,7.312V24.977Z" transform="translate(-50.094 -63.861)"/><path class="n" d="M87.505,31.3l7.312,7.312V31.3Z" transform="translate(-50.094 -44.036)"/><path class="n" d="M87.505,37.618l7.312,7.312V37.618Z" transform="translate(-50.094 -24.211)"/><path class="n" d="M87.505,43.939l7.312,7.312V43.939Z" transform="translate(-50.094 -4.387)"/><path class="n" d="M87.505,50.26l7.312,7.312V50.26Z" transform="translate(-50.094 15.438)"/><path class="n" d="M87.505,56.58l7.312,7.312V56.58Z" transform="translate(-50.094 35.263)"/><path class="n" d="M87.505,62.9l7.312,7.312V62.9Z" transform="translate(-50.094 55.087)"/><path class="n" d="M87.505,69.222l7.312,7.312V69.222Z" transform="translate(-50.094 74.912)"/><path class="n" d="M87.505,75.542l7.312,7.312V75.542Z" transform="translate(-50.094 94.737)"/><path class="n" d="M87.505,81.863l7.312,7.312V81.863Z" transform="translate(-50.094 114.561)"/><path class="n" d="M92.574,22.326l7.312,7.312V22.326Z" transform="translate(-34.196 -72.175)"/><path class="n" d="M92.574,28.647l7.312,7.312V28.647Z" transform="translate(-34.196 -52.35)"/><path class="n" d="M92.574,34.967l7.312,7.312V34.967Z" transform="translate(-34.196 -32.526)"/><path class="n" d="M92.574,41.288,99.886,48.6V41.288Z" transform="translate(-34.196 -12.701)"/><path class="n" d="M92.574,47.609l7.312,7.312V47.609Z" transform="translate(-34.196 7.124)"/><path class="n" d="M92.574,53.929l7.312,7.312V53.929Z" transform="translate(-34.196 26.948)"/><path class="n" d="M92.574,60.25l7.312,7.312V60.25Z" transform="translate(-34.196 46.773)"/><path class="n" d="M92.574,66.571l7.312,7.312V66.571Z" transform="translate(-34.196 66.598)"/><path class="n" d="M92.574,72.891,99.886,80.2V72.891Z" transform="translate(-34.196 86.422)"/><path class="n" d="M92.574,79.212l7.312,7.312V79.212Z" transform="translate(-34.196 106.247)"/></g></g><g transform="translate(205.699 1.128)"><g class="o"><path class="n" d="M104.474,30.093l7.312,7.312V30.093Z" transform="translate(-103.784 -46.874)"/><path class="n" d="M104.474,36.414l7.312,7.312V36.414Z" transform="translate(-103.784 -27.049)"/><path class="n" d="M104.474,42.735l7.312,7.312V42.735Z" transform="translate(-103.784 -7.225)"/><path class="n" d="M104.474,49.055l7.312,7.312V49.055Z" transform="translate(-103.784 12.6)"/><path class="n" d="M104.474,55.376l7.312,7.312V55.376Z" transform="translate(-103.784 32.425)"/><path class="n" d="M104.474,61.7l7.312,7.312V61.7Z" transform="translate(-103.784 52.249)"/><path class="n" d="M104.474,68.017l7.312,7.312V68.017Z" transform="translate(-103.784 72.074)"/><path class="n" d="M104.474,74.338l7.312,7.312V74.338Z" transform="translate(-103.784 91.898)"/><path class="n" d="M104.474,80.659l7.312,7.312V80.659Z" transform="translate(-103.784 111.723)"/><path class="n" d="M104.474,86.979l7.312,7.312V86.979Z" transform="translate(-103.784 131.548)"/><path class="n" d="M109.542,27.442l7.312,7.312V27.442Z" transform="translate(-87.886 -55.188)"/><path class="n" d="M109.542,33.763l7.312,7.312V33.763Z" transform="translate(-87.886 -35.364)"/><path class="n" d="M109.542,40.084l7.312,7.312V40.084Z" transform="translate(-87.886 -15.539)"/><path class="n" d="M109.542,46.4l7.312,7.312V46.4Z" transform="translate(-87.886 4.285)"/><path class="n" d="M109.542,52.725l7.312,7.312V52.725Z" transform="translate(-87.886 24.11)"/><path class="n" d="M109.542,59.046l7.312,7.312V59.046Z" transform="translate(-87.886 43.935)"/><path class="n" d="M109.542,65.366l7.312,7.312V65.366Z" transform="translate(-87.886 63.759)"/><path class="n" d="M109.542,71.687,116.855,79V71.687Z" transform="translate(-87.886 83.584)"/><path class="n" d="M109.542,78.008l7.312,7.312V78.008Z" transform="translate(-87.886 103.409)"/><path class="n" d="M109.542,84.328l7.312,7.312V84.328Z" transform="translate(-87.886 123.233)"/><path class="n" d="M114.812,30.084l7.312,7.312V30.084Z" transform="translate(-71.358 -46.903)"/><path class="n" d="M114.812,36.4l7.312,7.312V36.4Z" transform="translate(-71.358 -27.078)"/><path class="n" d="M114.812,42.725l7.312,7.312V42.725Z" transform="translate(-71.358 -7.254)"/><path class="n" d="M114.812,49.046l7.312,7.312V49.046Z" transform="translate(-71.358 12.571)"/><path class="n" d="M114.812,55.367l7.312,7.312V55.367Z" transform="translate(-71.358 32.396)"/><path class="n" d="M114.812,61.687,122.125,69V61.687Z" transform="translate(-71.358 52.22)"/><path class="n" d="M114.812,68.008l7.312,7.312V68.008Z" transform="translate(-71.358 72.045)"/><path class="n" d="M114.812,74.329l7.312,7.312V74.329Z" transform="translate(-71.358 91.87)"/><path class="n" d="M114.812,80.649l7.312,7.312V80.649Z" transform="translate(-71.358 111.694)"/><path class="n" d="M114.812,86.97l7.312,7.312V86.97Z" transform="translate(-71.358 131.519)"/><path class="n" d="M119.881,27.433l7.312,7.312V27.433Z" transform="translate(-55.46 -55.217)"/><path class="n" d="M119.881,33.754l7.312,7.312V33.754Z" transform="translate(-55.46 -35.393)"/><path class="n" d="M119.881,40.074l7.312,7.312V40.074Z" transform="translate(-55.46 -15.568)"/><path class="n" d="M119.881,46.4l7.312,7.312V46.4Z" transform="translate(-55.46 4.257)"/><path class="n" d="M119.881,52.716l7.312,7.312V52.716Z" transform="translate(-55.46 24.081)"/><path class="n" d="M119.881,59.037l7.312,7.312V59.037Z" transform="translate(-55.46 43.906)"/><path class="n" d="M119.881,65.357l7.312,7.312V65.357Z" transform="translate(-55.46 63.731)"/><path class="n" d="M119.881,71.678l7.312,7.312V71.678Z" transform="translate(-55.46 83.555)"/><path class="n" d="M119.881,78l7.312,7.312V78Z" transform="translate(-55.46 103.38)"/><path class="n" d="M119.881,84.319l7.312,7.312V84.319Z" transform="translate(-55.46 123.205)"/></g></g><line class="p" x2="210.271" transform="translate(87.555)"/><line class="p" x2="21.372" transform="translate(314.869)"/></g><g transform="translate(52.914 133.341)"><line class="q" x1="31.071" y2="154.428" transform="translate(145.605 55.426)"/><line class="q" x1="7.441" y2="31.713" transform="translate(141.94 128.697)"/><line class="q" x1="6.046" y2="27.237" transform="translate(127.143 197.298)"/><line class="q" x1="0.894" y2="63.552" transform="translate(282.26)"/><line class="q" x2="0.894" y2="108.028" transform="translate(282.26 227.689)"/><path class="f" d="M119.61,88.066l-11.832,24.569,21.422,3.75Z" transform="translate(161.223 36.62)"/><line class="q" y1="19.895" x2="1.251" transform="translate(276.381 141.446)"/><line class="q" y1="64.115" transform="translate(282.26 144.558)"/><path class="f" d="M72.8,122.715l17.723,2.91L88.6,98.284Z" transform="translate(51.525 68.669)"/><path class="q" d="M42.746,161.785s12.86-13.506,29.146-13.506c18.875,0,27.214,4.2,36.864,9.026s21.563,3.243,21.563,3.243" transform="translate(-42.746 225.477)"/><path class="q" d="M89.515,154.826s4.769-6.5,33.547-8.732c6.9-.534,15.177-.223,28.877,5.146s15.934,3.876,20.761,3.586,15.168-6.941,27.061-7.231,33.092,7.64,33.092,7.64" transform="translate(103.944 218.041)"/><path class="q" d="M170.786,152.461a44.632,44.632,0,0,0-30.333,0c-16.476,5.936-27.578,4.48-27.578,4.48" transform="translate(177.212 230.32)"/><path class="q" d="M156.461,155.666a64.017,64.017,0,0,0-29.865-5.919c-17.472.658-21.865,4.1-21.865,4.1" transform="translate(151.665 229.933)"/><path class="q" d="M58.886,159.44S74,150.174,97.347,150.058s30.482,9.861,60.628.662c18.407-5.617,25.8-2.329,36.835,1.464a69.408,69.408,0,0,0,20.335,3.793" transform="translate(7.877 223.701)"/></g></g></svg>