<svg xmlns="http://www.w3.org/2000/svg" xmlns:xlink="http://www.w3.org/1999/xlink" width="456.98" height="502.4" viewBox="0 0 456.98 502.4"><defs><style>.a,.l,.m,.o{fill:none;}.b{fill:#f8f9ff;}.c{fill:#30384f;}.d{fill:#ffc529;}.e{fill:#624182;}.f{fill:#fff;}.g{fill:#e9e8ef;}.h{fill:#9ecbe3;}.i{fill:#8057a7;}.j{fill:#e897a3;}.k{clip-path:url(#a);}.l{stroke:#45a0d4;stroke-miterlimit:10;}.l,.m,.o{stroke-width:0.25px;}.m{stroke:#600;}.m,.o{stroke-linejoin:round;}.n{clip-path:url(#b);}.o{stroke:#9ecbe3;}</style><clipPath id="a"><path class="a" d="M64.816,168.809c20.652,14.546,32.545,17.047,43.781,27.9s13.616,20.351,22.915,26.163,17.633,4.376,22.295.161c5.936-5.368,2.176-12.668-4.538-25.4-14.267-27.05-56.576-57.6-72.83-60.2-15.662-2.5-18.479,3.053-20.286,10.284C54.265,155.267,59.177,164.836,64.816,168.809Z" transform="translate(-55.741 -136.818)"/></clipPath><clipPath id="b"><path class="a" d="M227.942,59.95s-4.507-11.623-16.517-9.686-16.66,6.2-25.959,6.586-39.519,1.162-51.142,6.974-14.335,14.723-27.9,18.985S77.76,85.7,68.846,108.38,71.4,150.171,75.4,159.754c5.058,12.119,11.992,20.358,27.143,18.126,14.723-2.17,38.133,25.664,38.133,25.664l10.662-3.422a10.476,10.476,0,0,0,3.93-17.646c-8.059-7.535-17.937-17.943-24.818-29.154-13.56-22.084-14.9-47.7-13.948-51.142,5.8-20.968,26.492-21.263,33.853-21.65s8.852-.505,8.852-.505-11.323,2.4-3.961,31.841,25.184,63.928,34.482,69.352,22.05,1.937,24.009,1.7c37.969-4.649,43.316,14.028,45.731,12.72,40.024-21.7,19.18-54.022,19.18-54.022s-15.705,15.343-42.039-4.953C225.493,128.1,210.442,112.79,210.649,80.1,210.767,61.161,227.942,59.95,227.942,59.95Z" transform="translate(-65.533 -50.046)"/></clipPath></defs><g transform="translate(-36.584 -9.769)"><g transform="translate(36.584 9.769)"><path class="b" d="M143.077,45.609c-61.544,54.13-40.461,146.6-83.855,205.031S38.837,360.431,94.172,405.1s6.81,111.366,100.611,106.856,65.908-47.655,152.7-88.076S499.355,316.548,493.156,232.219,473.2,58.007,399.492,30.111,195.939-.884,143.077,45.609Z" transform="translate(-36.584 -9.769)"/></g><g transform="translate(89.733 126.222)"><path class="c" d="M138.7,106.519s4.339-5.709,7.826-4.547,12.011,22.084,15.11,33.707,6.828,22.927,5.31,34.833c-2.222,17.426-11.812,22.174-17.277,17.038-2.25-2.114-2.442-8.028-3.344-11.335a23.945,23.945,0,0,0-2.9-7.113s3.487-33.422,1.937-40.784S138.7,106.519,138.7,106.519Z" transform="translate(124.666 67.032)"/><path class="d" d="M131.559,108.684c-4.885,4.488-9.249,5.4-11.515,5.526q-1.948,1.757-3.859,3.568a63.845,63.845,0,0,1-14.273,15.553,60.1,60.1,0,0,0-6.115,9.621c-9.249,18.792-18.132,28.85-19.36,40.446a27.865,27.865,0,0,0,1.15,11.084c1.528,5.133,2.5,2.861,2.362,18.548a72.436,72.436,0,0,1-3.816,21.464,4.072,4.072,0,0,1,1.959.366c3.874,1.807,31.253,13.43,45.2,36.9,4.29,7.219,8.7,12.091,10.222,16.824a197.324,197.324,0,0,0,19.236-23.975c8.679-12.736,12.225-30.611,11.964-44.952a65.12,65.12,0,0,0-.936-10.3c-1.463-8.1,8.39-13.653,11.443-18.359,9.3-14.335,6.354-15.423,29.821-31.817a69.834,69.834,0,0,0,21.216-23.935,92.882,92.882,0,0,0,10.954-40.185S160.487,82.078,131.559,108.684Z" transform="translate(-6.7 46.198)"/><path class="e" d="M136.874,191.993c-1.525-4.733-5.932-9.605-10.222-16.824-13.948-23.47-41.326-35.093-45.2-36.9a4.072,4.072,0,0,0-1.959-.366c-2.886.1-4.959,3.174-4.959,3.174l2.926,2.43c6.469,5.381,21.746,18.129,24.359,20.643,18.21,17.531,23.383,29.108,24.319,36.041.784,5.84-1.435,8.384-1.435,8.384s5.437,1.627,10.861-7.237A10.514,10.514,0,0,0,136.874,191.993Z" transform="translate(-10.059 142.789)"/><path class="d" d="M221.4,138.956c-.775-11.958-10.148-39.37-16.734-37.046s-1.925,9.454-8.9,11.391-16.66,12.011-23.634,8.911c-3.533-1.568-4.773-4.851-5.142-7.709a69.834,69.834,0,0,1-21.216,23.935c-23.467,16.393-20.522,17.481-29.821,31.817-3.053,4.705-12.906,10.259-11.443,18.359a65.118,65.118,0,0,1,.936,10.3c5.619,3.881,14.273,6.277,27.555,3.5,33.32-6.974,75.939-32.933,75.939-32.933s.208.738,6.794,1.125S222.174,150.914,221.4,138.956Z" transform="translate(52.569 66.939)"/><path class="c" d="M62.582,138.612c7.349-5.514,16.992-7.095,34.039,1.429s41.961,31.172,52.422,43.183,17.15,22.974,15.987,27.236-11.279,15.036-11.279,15.036,2.477-18.907-12.975-35.713c-13.908-15.129-51.492-45.926-63.348-47.851C63.859,139.728,57.1,147.4,57.1,147.4A16.049,16.049,0,0,1,62.582,138.612Z" transform="translate(-46.656 134.735)"/><path class="f" d="M65.751,167.41c20.652,14.549,32.545,17.047,43.781,27.9s13.613,20.352,22.912,26.163,17.633,4.376,22.295.161c5.936-5.365,2.179-12.665-4.538-25.4-14.264-27.05-56.573-57.6-72.827-60.2-15.665-2.5-18.479,3.053-20.29,10.287C55.2,153.869,60.109,163.44,65.751,167.41Z" transform="translate(-47.556 137.585)"/><path class="a" d="M91.274,99.078s-.784,1.441-2.219,3.614q1.911-1.813,3.859-3.568A7.884,7.884,0,0,1,91.274,99.078Z" transform="translate(20.43 61.285)"/><path class="g" d="M292.368,52.362c-6.19-.75-28.922.66-39.649,3.146-15.426,3.577-32.777,4.578-49.983,8.524-23.634,5.424-65.09,22.084-93.373,40.294S62.148,158.36,62.148,158.36c-13.867,23.99-10.38,49.682,8.858,63.943,15.151,11.23,51.1,5.294,67.548,0a35.814,35.814,0,0,0,10.39-5.554A133.812,133.812,0,0,1,163.217,201.2c1.435-2.173,2.219-3.614,2.219-3.614a7.884,7.884,0,0,0,1.64.047c2.266-.127,6.63-1.038,11.515-5.526,28.928-26.606,105.654-13.626,105.654-13.626s-.294-11.639-.787-15.433c-.707-5.446-4.008-21.523-4.008-21.523l7.47.905s5.22,3.369,15-4.094c18.731-14.292,33.283-22.5,36.6-43.567C343.123,65.5,323.233,56.11,292.368,52.362Z" transform="translate(-53.732 -37.219)"/><path class="h" d="M98.723,100.244A133.812,133.812,0,0,0,84.45,115.8,63.845,63.845,0,0,0,98.723,100.244Z" transform="translate(10.762 63.733)"/><path class="i" d="M227.942,59.95s-4.507-11.623-16.517-9.686-16.66,6.2-25.959,6.586-39.519,1.162-51.142,6.974-14.335,14.723-27.9,18.985S77.76,85.7,68.846,108.38,71.4,150.171,75.4,159.754c5.058,12.119,11.992,20.358,27.143,18.126,14.723-2.17,38.133,25.664,38.133,25.664l10.662-3.422a10.476,10.476,0,0,0,3.93-17.646c-8.059-7.535-17.937-17.943-24.818-29.154-13.56-22.084-14.9-47.7-13.948-51.142,5.8-20.968,26.492-21.263,33.853-21.65s8.852-.505,8.852-.505-11.323,2.4-3.961,31.841,25.184,63.928,34.482,69.352,22.05,1.937,24.009,1.7c37.969-4.649,43.316,14.028,45.731,12.72,40.024-21.7,19.18-54.022,19.18-54.022s-15.705,15.343-42.039-4.953C225.493,128.1,210.442,112.79,210.649,80.1,210.767,61.161,227.942,59.95,227.942,59.95Z" transform="translate(-28.954 -41.66)"/><path class="j" d="M89.163,98.153s2.635-4.113,6.509-4.888,5.747-1.035,7.175,1.816c1.373,2.734-.071,4.383-.071,4.383s1.925-2.771,3.667,1.491-.828,5.548-.828,5.548,2.532-.387,2.532,3.679a6.622,6.622,0,0,1-3.047,5.746s3.614,1.68-3.347,8.378c-4.773,4.594-20.246,12.345-20.246,12.345s7.448-13.852,6.881-28.618A38.962,38.962,0,0,1,89.163,98.153Z" transform="translate(4.583 47.992)"/><g transform="translate(6.229 277.337)"><g class="k"><line class="l" y1="71.671" x2="56.351" transform="translate(20.464 4.129)"/><line class="l" y1="71.671" x2="56.351" transform="translate(27.439 8.291)"/><line class="l" y1="71.671" x2="56.351" transform="translate(34.414 12.453)"/><line class="l" y1="71.671" x2="56.351" transform="translate(41.39 16.615)"/><line class="l" y1="71.671" x2="56.351" transform="translate(48.365 20.777)"/><line class="l" y1="71.671" x2="56.351" transform="translate(55.34 24.939)"/><line class="l" y1="71.671" x2="56.351" transform="translate(62.315 29.101)"/><line class="l" y1="71.671" x2="56.351" transform="translate(69.29 33.263)"/><line class="l" y1="71.671" x2="56.351" transform="translate(76.266 37.425)"/><line class="l" y1="71.671" x2="56.351" transform="translate(83.241 41.587)"/><g transform="translate(-49.209 -37.412)"><line class="l" y1="71.671" x2="56.351"/><line class="l" y1="71.671" x2="56.351" transform="translate(6.975 4.162)"/><line class="l" y1="71.671" x2="56.351" transform="translate(13.95 8.324)"/><line class="l" y1="71.671" x2="56.351" transform="translate(20.926 12.486)"/><line class="l" y1="71.671" x2="56.351" transform="translate(27.901 16.648)"/><line class="l" y1="71.671" x2="56.351" transform="translate(34.876 20.81)"/><line class="l" y1="71.671" x2="56.351" transform="translate(41.851 24.972)"/><line class="l" y1="71.671" x2="56.351" transform="translate(48.827 29.134)"/><line class="l" y1="71.671" x2="56.351" transform="translate(55.802 33.296)"/><line class="l" y1="71.671" x2="56.351" transform="translate(62.777 37.458)"/></g></g></g><path class="l" d="M164.653,135.867c-3.1-11.623-11.623-32.545-15.11-33.707-2.452-.818-6.478-.412-8.682-.1a2.963,2.963,0,0,1,.933.1c3.487,1.162,12.011,22.084,15.11,33.707s6.828,22.924,5.309,34.832c-1.754,13.759-8.1,19.583-13.381,18.91,10.148,2.514,19.047-2.576,21.129-18.91C171.481,158.791,167.753,147.49,164.653,135.867Z" transform="translate(129.198 66.745)"/><line class="l" y1="3.857" x2="9.023" transform="translate(272.344 228.29)"/><line class="l" x1="17.092" y2="6.644" transform="translate(267.694 232.147)"/><line class="l" x1="15.736" y2="5.608" transform="translate(269.05 237.545)"/><path class="m" d="M138.7,148.069s.97,2.508,2-1.928,1.94-22.258-2-36.206" transform="translate(124.666 84.079)"/><path class="m" d="M141.172,113.848a24.873,24.873,0,0,0-2.08-4.745,8.5,8.5,0,0,0-2.182-2.907" transform="translate(120.903 76.227)"/><g transform="translate(36.579 8.386)"><g class="n"><path class="o" d="M54.774,37.383C58.6,49.936,40.811,55.357,44.635,67.91S66.248,75.045,70.073,87.6,56.11,105.579,59.935,118.135s21.616,7.135,25.441,19.691S71.409,155.8,75.234,168.351s21.616,7.135,25.441,19.688-13.966,17.974-10.142,30.527,21.616,7.135,25.441,19.691-13.963,17.983-10.135,30.543,21.613,7.138,25.441,19.694-13.963,17.987-10.135,30.552,21.619,7.148,25.447,19.713" transform="translate(-110.548 -76.632)"/><path class="o" d="M63.6,34.848C67.422,47.4,49.634,52.822,53.458,65.375S75.071,72.51,78.9,85.063,64.933,103.041,68.758,115.6s21.616,7.135,25.441,19.688-13.966,17.974-10.142,30.527,21.616,7.132,25.441,19.688-13.966,17.971-10.142,30.524,21.616,7.138,25.441,19.694-13.963,17.98-10.135,30.543,21.613,7.138,25.441,19.694-13.963,17.987-10.135,30.552,21.619,7.144,25.447,19.71" transform="translate(-92.024 -81.954)"/><path class="o" d="M72.42,32.312c3.825,12.556-13.963,17.974-10.139,30.527s21.613,7.135,25.438,19.691-13.963,17.977-10.139,30.533S99.2,120.2,103.022,132.755,89.055,150.73,92.88,163.283s21.616,7.132,25.441,19.685-13.966,17.974-10.142,30.527,21.616,7.138,25.441,19.694-13.963,17.98-10.135,30.543,21.613,7.135,25.441,19.694-13.963,17.983-10.135,30.549,21.619,7.148,25.447,19.713" transform="translate(-73.499 -87.278)"/><path class="o" d="M81.243,29.777C85.068,42.33,67.28,47.751,71.1,60.3S92.717,67.439,96.542,80,82.579,97.973,86.4,110.529s21.616,7.135,25.441,19.691S97.878,148.191,101.7,160.744s21.616,7.135,25.441,19.688S113.177,198.407,117,210.96s21.616,7.135,25.441,19.694-13.963,17.98-10.135,30.54,21.613,7.138,25.441,19.694-13.963,17.987-10.135,30.552,21.619,7.147,25.447,19.713" transform="translate(-54.975 -92.601)"/><path class="o" d="M90.066,27.242C93.891,39.8,76.1,45.216,79.927,57.769S101.54,64.9,105.365,77.461,91.4,95.435,95.227,107.994s21.616,7.135,25.441,19.688S106.7,145.656,110.526,158.21s21.616,7.135,25.441,19.688S122,195.869,125.825,208.422s21.616,7.138,25.441,19.694S137.3,246.1,141.131,258.659s21.613,7.138,25.441,19.694-13.963,17.987-10.135,30.552,21.619,7.144,25.447,19.71" transform="translate(-36.451 -97.923)"/><path class="o" d="M98.889,24.707C102.714,37.26,84.926,42.678,88.75,55.231s21.613,7.138,25.438,19.691S100.225,92.9,104.05,105.456s21.616,7.135,25.441,19.691-13.966,17.974-10.142,30.527,21.616,7.132,25.441,19.685-13.966,17.974-10.142,30.527,21.616,7.138,25.441,19.694-13.963,17.98-10.135,30.543,21.613,7.135,25.441,19.694-13.963,17.983-10.135,30.552,21.619,7.144,25.447,19.71" transform="translate(-17.927 -103.245)"/><path class="o" d="M107.712,22.171C111.537,34.724,93.749,40.145,97.573,52.7s21.613,7.135,25.438,19.691-13.963,17.977-10.139,30.533,21.616,7.135,25.441,19.691-13.966,17.971-10.142,30.524,21.616,7.135,25.441,19.688-13.967,17.974-10.142,30.527,21.616,7.135,25.441,19.694-13.963,17.98-10.135,30.54,21.613,7.138,25.441,19.694-13.963,17.987-10.135,30.552,21.619,7.148,25.447,19.713" transform="translate(0.597 -108.57)"/><path class="o" d="M116.535,19.636C120.36,32.189,102.572,37.61,106.4,50.163s21.613,7.135,25.438,19.691S117.871,87.829,121.7,100.388s21.616,7.135,25.441,19.688S133.17,138.05,137,150.6s21.616,7.135,25.441,19.688-13.966,17.971-10.142,30.527,21.616,7.135,25.441,19.691-13.963,17.98-10.135,30.543,21.613,7.138,25.441,19.694-13.963,17.987-10.135,30.552,21.619,7.144,25.447,19.71" transform="translate(19.121 -113.892)"/><path class="o" d="M125.358,17.1c3.825,12.553-13.963,17.971-10.139,30.527s21.613,7.135,25.438,19.688S126.694,85.294,130.519,97.85s21.616,7.135,25.441,19.691-13.966,17.974-10.142,30.527,21.616,7.132,25.441,19.685-13.967,17.974-10.142,30.527,21.616,7.138,25.441,19.694-13.963,17.98-10.135,30.543,21.613,7.135,25.441,19.694S187.9,286.2,191.728,298.764s21.619,7.144,25.447,19.71" transform="translate(37.645 -119.214)"/><path class="o" d="M134.181,14.565c3.825,12.553-13.963,17.974-10.139,30.527s21.613,7.135,25.438,19.691-13.963,17.977-10.139,30.533,21.616,7.135,25.441,19.691-13.966,17.971-10.142,30.524,21.616,7.135,25.441,19.688-13.967,17.974-10.142,30.527,21.616,7.135,25.441,19.694-13.963,17.98-10.135,30.54,21.613,7.138,25.441,19.694-13.963,17.987-10.135,30.552S222.17,303.376,226,315.941" transform="translate(56.17 -124.539)"/></g></g><path class="j" d="M86.622,61.2a20.644,20.644,0,0,0,0,12.011C88.559,80.182,93.547,85,96.7,85.606c3.766.728,9.686-1.742,10.848-8.716s2.52-15.5-4.067-18.985S87.329,57.949,86.622,61.2Z" transform="translate(13.515 -28.185)"/><path class="d" d="M86.03,80.359s2.951-11.515,7.5-18.256c5.058-7.5,5.477,3.146,8.189-2.278s6.834-14.121,8.772-10.634-.375,6.974,3.227,3.487,4.1-5.96,6.583-5.2c3.781,1.162-4.925,12.916-4.036,15.975s4.036-2.318,4.036,1.652c0,4.69-12.5,24.186-12.55,23.026-.2-4.984-2.154-8.232-3.5-1.885-.493,2.34-3.549-7.492-10.331-7.879C86.622,77.953,86.03,80.359,86.03,80.359Z" transform="translate(14.079 -47.34)"/><path class="j" d="M141.5,74.357c-.775-.387-8.536-3.921-12.981,0-3.642,3.217-6.258,2.08-5.774,3.682.828,2.74,5,3.1,5,3.1s-4.243-2.374-7.953-.369c-3.23,1.742-4.705,2.067-4.714,5.1-.012,4.153,2.79,4.956,2.79,4.956s-3.23-2.049-2.4,3.44a7.938,7.938,0,0,0,2.79,4.7s-2.4-.973-1.11,3.31c1.162,3.874,3.679,4.392,3.679,4.392s-2.39,2.712,3.617,5.229,18.027,5.279,26.163-.921,10.848-10.693,10.848-10.693a45.4,45.4,0,0,1-15.7-13.957C142.433,81.362,141.5,74.357,141.5,74.357Z" transform="translate(75.064 5.536)"/><path class="m" d="M125.517,74.435s.629,1.686-2.5,1.807a14,14,0,0,1-5.133-.654" transform="translate(80.962 9.546)"/></g><g transform="translate(68.202 74.85)"><path class="m" d="M78.535,139.056s15.24,2.464,34.625,24.936c11.791,13.672,11.6,20.541,11.6,20.541" transform="translate(19.874 196.592)"/><path class="m" d="M146.751,110.654c-11.044,9.946-25.611,23.262-32.368,30.282-11.651,12.107-9.057,23-9.057,27.378" transform="translate(75.605 136.961)"/><path class="m" d="M127.347,106.874a86.358,86.358,0,0,1-7.07,6.943" transform="translate(107.513 129.025)"/><path class="m" d="M76.6,130.292s2,6.636,8.778,5.393c8.514-1.565,14.456-13.219,14.456-13.219" transform="translate(15.816 161.761)"/><path class="m" d="M60.785,87.017a25.566,25.566,0,0,1,19.18-1.162,12.571,12.571,0,0,1,7.91,6.766" transform="translate(-17.392 82.171)"/><path class="m" d="M139.249,61.185s-8.589,1.289-12.463,12.364c-2.811,8.043-1.885,12.367-1.885,12.367" transform="translate(116.914 33.1)"/><path class="m" d="M126.132,61.414A18.207,18.207,0,0,0,124.1,70.13c-.043,5.942,2.43,9.106,2.43,9.106" transform="translate(115.535 33.58)"/><path class="m" d="M119.542,52.9c49.2-11.722,90.4,9.667,85.8,37.991-3.313,20.382-17.866,28.33-36.6,42.16" transform="translate(105.97 8.827)"/><path class="m" d="M93.016,30.766s-9.3,6.974-17.047,13.948" transform="translate(14.487 -30.766)"/><path class="m" d="M93.514,39.766S70.28,68.437,60.969,85.484" transform="translate(-17.006 -11.87)"/><path class="m" d="M180.439,81.766s2.982,17.571-14.143,60.053c-4.339,10.771-16.077,32.932-16.077,32.932" transform="translate(170.377 76.31)"/><path class="m" d="M148.3,185.438s27.9-17.565,49.075-90.922" transform="translate(166.352 103.079)"/><path class="m" d="M111.8,213.219s93.643-15.5,154.976-89.369" transform="translate(89.719 164.667)"/><path class="m" d="M59.849,122.016S49.274,130.8,47.969,149.4" transform="translate(-44.3 160.816)"/><path class="m" d="M47.95,137.016s3.53,32.511,30.912,53.693" transform="translate(-44.34 192.309)"/><path class="m" d="M74.533,170s15.11,15.5,38.357,12.4a54.137,54.137,0,0,0,35.059-19.635" transform="translate(11.472 246.372)"/><path class="m" d="M126.291,132.1s4.5,8.995-1.509,28.243c-8.177,26.194-28.764,44.419-28.764,44.419" transform="translate(56.58 181.99)"/><path class="m" d="M52.15,147.544q6.016-11.8,12.64-23.532a615.347,615.347,0,0,1,50.321-75.669" transform="translate(-35.522 6.14)"/><path class="i" d="M46.785,108.31,62.046,94.721,48.307,85.958Z" transform="translate(-46.785 85.11)"/><line class="m" x1="6.595" y2="13.403" transform="translate(7.041 169.345)"/><line class="m" x1="7.197" y2="16.21" transform="translate(4.455 161.95)"/></g></g></svg>