<svg xmlns="http://www.w3.org/2000/svg" xmlns:xlink="http://www.w3.org/1999/xlink" width="478.674" height="547.365" viewBox="0 0 478.674 547.365"><defs><style>.a,.f,.g,.j,.l,.m,.n{fill:none;}.b{fill:#f8f9ff;}.c{fill:#e897a3;}.d{fill:#ffc529;}.e{fill:#8057a7;}.f{stroke:#9ecbe3;}.f,.g,.j,.m{stroke-miterlimit:10;}.g{stroke:#ffc529;}.h{fill:#fff;}.i{fill:#ed6f51;}.j{stroke:#fff;}.j,.l,.m,.n{stroke-width:0.25px;}.k{clip-path:url(#a);}.l{stroke:#30384f;}.l,.n{stroke-linejoin:round;}.m{stroke:#45a0d4;}.n{stroke:#600;}</style><clipPath id="a"><path class="a" d="M247.6,102.5c-13.235-15.759-30.71-26.773-41.963-33.238-11.964-6.876-27.416-10.018-27.416-10.018a25.372,25.372,0,0,1-10.836,3.821c-6.045.54-3.239-5.761-3.239-5.761S141,64.325,114.929,63.174c-11.589-.514-22.968-9.8-22.968-9.8L68.524,72.846s9.753,13.781,34.15,17.861c14.958,2.5,30.875-.2,36.975-1.464-4.852,10.244-9.553,21.976-11.861,30.129-4.581,16.163-2.47,26.857-4.49,36.406-.078.359-2.89.682-5.809.6a51.339,51.339,0,0,1-6.161-.6s21.9,38.375,40.373,54.08,50.979,2.722,50.979,2.722-11.534-32.2-18.3-61.279a100.555,100.555,0,0,1-10.513-.375c-3.478-.394-5.318-3.4-4.506-4.477,1.555-2.05-.44-3.656-1.138-5.919-.95-3.065,2.57-4.038,1.474-5.6-1.3-1.849-2.567-5.693,2.732-5.56a56.522,56.522,0,0,0,9.022-.53,101.392,101.392,0,0,1,8.466-40.092s20.272,3.029,29.463,20.217c2.667,4.985-21.882,13.471-21.882,13.471s.352.588,1,1.6c1.073,1.665,3.016,4.548,5.751,8.15.3.4.592.786.912,1.2l.126.162c5.334,6.857,9.924,9.834,12.32,11.036a10.884,10.884,0,0,0,1.772.747s21.759-7.872,29.718-16.432C255.2,122.345,255.111,111.441,247.6,102.5Z" transform="translate(-68.524 -53.369)"/></clipPath></defs><g transform="translate(-15.885 -12.281)"><path class="b" d="M284.833,39.878c-23.873,23.708-18.258,73.194-116.344,105.288-68.145,22.3-94.178,22.512-123.424,59C-6.8,268.885,7.673,418.044,111.119,438.788S230.175,456.729,306.99,503.9s160.8,6.061,179.511-52.638c22.218-69.693-10.018-76.572,3.417-226.74s-49.153-188.957-98.926-206.2C342.013,1.361,301,23.831,284.833,39.878Z" transform="translate(0)"/><path class="c" d="M114.324,44.9s-8.689-1.009-13.134,3.233-4.849,8.689,0,9.9a14.037,14.037,0,0,0,3.427.391c3.976,0,7.988-1.409,9.708-2.816,2.221-1.82,3.433-5.861,2.829-7.274A14.472,14.472,0,0,0,114.324,44.9Z" transform="translate(182.671 72.593)"/><path class="c" d="M106.217,48.452s-5.253,10.306-6.262,15.759-3.944,8.689-1.671,9.9,5.007,2.02,9.8-.608,7.193-2.521,6.385-3.934-5.224-2.328-5.024-9a25.974,25.974,0,0,1,3.815-12.123Z" transform="translate(182.088 80.758)"/><path class="c" d="M98.959,38.391c-8.2,3.818-20.734,15.245-26.67,24.449C65.747,72.981,63,90.722,68.249,101.632s7.678,10.1,7.678,10.1l20.4-17.983S88.249,88.5,90.878,76.375s7.044-19.651,10.506-22.829c4.18-3.84,10.383-6.1,13.535-7.477,3.307-1.442,1.856-2.874-.281-2.774-2.185.1-4.784.556-3.572-1.06s4.6-1.516,3.588-2.728-6.4,1.08-8.082.608c-2.066-.579,1.995-1.681,2.56-2.964C110.277,34.554,102.557,36.716,98.959,38.391Z" transform="translate(110.753 52.835)"/><path class="c" d="M155.659,86.39s-58.515,12.966-79,21.821c-21.278,9.2-29.7,16.364-26.065,28.69s23.14,41.062,23.14,41.062l29.039-13.988s-16.5-21.843-13.991-24.449c5.253-5.454,42.629-11.718,56.772-13.131s37.784,0,37.784,0Z" transform="translate(75.67 165.462)"/><path class="c" d="M93.7,100.452s14.256,38.792,31.1,55.5,26.6,28.351,32.883,38.359a185.032,185.032,0,0,1,9.653,17.246l29.75-10.6A107.045,107.045,0,0,0,182.6,179.116c-14.166-16.5-21.012-18.32-29.634-36.1s-15.624-36.7-15.624-36.7Z" transform="translate(173.731 196.858)"/><path class="d" d="M53.531,136.249l54.678-28.422s15.365,44.045,22.367,58.056,14.854,23.489,19.936,26.938c8.289,5.628,12.472,20.172,12.472,20.172l-3.313,8.922s-4.309-3.233-4.309,0,3.773,23.9,1.076,33.772-5.926,12.41-7.542,6.291,0-6.659-8.622-15.549-17.78-27.746-25.861-36.9-21.549-19.936-31.247-32.867S53.531,136.249,53.531,136.249Z" transform="translate(84.05 213.324)"/><path class="d" d="M111.031,150.549l56.032-19.965s10.238,17.631,16.7,47.663,7.752,53,3.979,70.818-5.6,28.451-6.136,31.008a21.107,21.107,0,0,0-.537,3.831l-9.7,3.039-1.616-6.869s-3.773,2.02-11.314,6.869-18.859,10.238-22.629,8.082,7.387-6.821,9.158-26.938C150.751,202.459,111.031,150.549,111.031,150.549Z" transform="translate(212.43 264.133)"/><path class="e" d="M91.718,53.369s11.379,9.291,22.971,9.8a165.344,165.344,0,0,0,49.218-5.867L142.028,88.66s-20.605,5.224-39.6,2.046c-24.4-4.08-34.15-17.861-34.15-17.861Z" transform="translate(116.982 91.736)"/><path class="d" d="M109.124,45.474c2.741,1.594,2.958,1.982,6.191,11.072s3.857,14.783,12.746,19.832a50.251,50.251,0,0,0,19.024,5.732l-8.3,9.511S115,80.183,106.648,78.573c-4.975-.96-6.989-6.469-5.625-11.521s2.573-11.2,3.381-12.569.2-4,.2-4l3.233-5.657S108.814,45.293,109.124,45.474Z" transform="translate(189.154 72.665)"/><path class="f" d="M104.12,67.006S108,99.814,128.077,115.764c31.115,24.717,64.654,16.933,64.654,16.933" transform="translate(196.999 122.184)"/><path class="d" d="M172.768,85.327s27.549.149,38.64,13.1c11.169,13.034,11.062,24.888.152,32.97s-31.312,12.365-65.058,8.89c-16.125-1.658-30.908-10-30.908-10s35.362,3.873,52.6-10.2C190.218,102.1,172.768,85.327,172.768,85.327Z" transform="translate(222.619 163.088)"/><path class="e" d="M123.56,89.363l14.25,51.994s12.672-2.195,20.935-16.383c9.443-16.215,4.012-26.721,4.012-26.721l-1.3-19.48Z" transform="translate(240.403 148.455)"/><path class="g" d="M103.522,46s7.264,12.32,19.936,15.575a23.874,23.874,0,0,0,18.75-2.664" transform="translate(195.664 75.284)"/><path class="g" d="M105.137,49.36s7.755,13.328,17.841,15.249c8.66,1.649,13.875,0,13.875,0" transform="translate(199.27 82.786)"/><path class="h" d="M53.062,150.687c-.585,2.463-.262,1.846,3.782,1.839,4.778-.006,75.622,1.154,77.035.262s-8.686-2.3-11.111-4.122-5.253-9.7-9.9-9.294-7.6,4.988-7.6,4.988.33-11.188-7.348-12.129-8.89,7.545-8.89,7.545-4.241-4.245-8.082-1.212-3.029,6.061-3.029,6.061-10.005-4.322-13.109-.588c-1.969,2.366-.63,4.225-.63,4.225S54.074,146.442,53.062,150.687Z" transform="translate(82.499 267.648)"/><path class="h" d="M128.094,156.7h77.381s-15.355-1.616-21.012-4.645-16.768-1.82-21.416-2.02-8.809-6.908-13.335-5.657a13.744,13.744,0,0,0-7.07,5.049s-.4-7.678-4.445-4.041S128.094,156.7,128.094,156.7Z" transform="translate(250.526 294.571)"/><g transform="translate(228.067 149.043)"><path class="a" d="M119.264,98s23.851-10.729,21.882-13.471C129.77,68.7,111.68,64.314,111.68,64.314a101.458,101.458,0,0,0-8.466,40.092,63.7,63.7,0,0,0,17.052-4.8C119.613,98.59,119.264,98,119.264,98Z" transform="translate(-33.091 -32.87)"/><path class="a" d="M110.267,77.752c.294.394.592.789.915,1.2C110.862,78.538,110.571,78.15,110.267,77.752Z" transform="translate(-17.344 -2.867)"/><path class="c" d="M127.052,84.742l-.123-.162c-.323-.411-.621-.8-.915-1.2-2.735-3.6-4.678-6.485-5.748-8.15a63.7,63.7,0,0,1-17.052,4.8A82.59,82.59,0,0,0,105,97.4c.359,1.678.744,3.378,1.141,5.088,5.3-.052,11.25-.43,15.352-1.455,6.052-1.513,14.7-4.235,17.877-5.256C136.976,94.575,132.386,91.6,127.052,84.742Z" transform="translate(-33.091 -8.496)"/><path class="e" d="M217.8,99.783c-13.235-15.759-30.71-26.773-41.963-33.238C163.871,59.669,149.2,56.527,149.2,56.527a31.817,31.817,0,0,1-11.622,3.821c-6.045.54-3.239-5.761-3.239-5.761A141.146,141.146,0,0,1,122.5,65.465c-5.964,4.752-19.936,35.023-24.517,51.186s-2.47,26.857-4.49,36.406c-.074.359-2.887.682-5.806.6a51.347,51.347,0,0,1-6.165-.6s21.9,38.375,40.376,54.076,50.976,2.725,50.976,2.725-11.531-32.2-18.3-61.279a99.421,99.421,0,0,1-10.509-.378c-3.478-.391-5.321-3.4-4.506-4.474,1.555-2.05-.44-3.656-1.141-5.919-.947-3.065,2.573-4.038,1.477-5.6-1.3-1.849-2.57-5.693,2.732-5.56a56.461,56.461,0,0,0,9.019-.53,101.458,101.458,0,0,1,8.466-40.092s20.272,3.029,29.466,20.217c2.664,4.985-21.882,13.471-21.882,13.471s.349.588,1,1.6c1.07,1.665,3.013,4.548,5.748,8.15.3.4.595.786.915,1.2l.123.162c5.334,6.857,9.924,9.834,12.32,11.036a10.825,10.825,0,0,0,1.775.747s21.759-7.872,29.718-16.432C225.392,119.625,225.305,108.721,217.8,99.783Z" transform="translate(-81.522 -54.587)"/><path class="c" d="M112.463,76.716a56.462,56.462,0,0,1-9.019.53c-5.3-.133-4.028,3.711-2.732,5.56,1.1,1.558-2.425,2.531-1.477,5.6.7,2.263,2.7,3.869,1.141,5.919-.815,1.073,1.028,4.083,4.506,4.474a99.418,99.418,0,0,0,10.509.378c-.4-1.71-.782-3.41-1.141-5.088A82.59,82.59,0,0,1,112.463,76.716Z" transform="translate(-42.34 -5.18)"/></g><path class="i" d="M106.276,120.623s7.545-5.654,14.259,5.121,7.661,18.72,3.621,16.4c-5.66-3.255-10.193-9.5-15-14.9S106.276,120.623,106.276,120.623Z" transform="translate(200.96 238.583)"/><path class="i" d="M56.594,102.466c.443-1.27,1.539-5.58-1.206-5.58-5.179,4.771-6.76,9.915-4.8,16.561a58.817,58.817,0,0,0,3.967,9.255c.921.032,1.639-2.622,1.461-3.695C54.554,110.117,53.918,110.092,56.594,102.466Z" transform="translate(75.669 188.896)"/><path class="j" d="M108.335,126.391s2.554,2.955,5.153,1.138,1.413-5.075,1.413-5.075" transform="translate(206.41 245.981)"/><path class="j" d="M49.237,100.047s-1.652,4.177,2.476,3.976a8.483,8.483,0,0,0,6.077-2.667" transform="translate(73.735 195.954)"/><path class="j" d="M99.164,81.125s2.929,8.841-4.3,10.962A36.2,36.2,0,0,1,84.888,93.8" transform="translate(154.061 153.707)"/><path class="j" d="M96,60.3s-4.982-.5-5.114,3.268a4.245,4.245,0,0,0,3.5,4.387" transform="translate(167.45 107.165)"/><path class="j" d="M101.7,61.527s-4.972-.886-5.509,3.023c-.692,5,6.33,4.645,6.33,4.645" transform="translate(179.19 109.757)"/><g transform="translate(186.049 145.105)"><g class="k"><path class="j" d="M71.048,105.337l-6.621-1.272L65.7,97.444Z" transform="translate(-77.671 45.037)"/><path class="j" d="M72.245,99.1l-6.621-1.272L66.9,91.21Z" transform="translate(-74.998 31.118)"/><path class="j" d="M73.443,92.869,66.822,91.6l1.272-6.621Z" transform="translate(-72.324 17.199)"/><path class="j" d="M74.641,86.635,68.02,85.363l1.272-6.621Z" transform="translate(-69.65 3.28)"/><path class="j" d="M75.838,80.4l-6.621-1.272,1.272-6.621Z" transform="translate(-66.977 -10.638)"/><path class="j" d="M77.036,74.166l-6.621-1.272,1.272-6.621Z" transform="translate(-64.303 -24.557)"/><path class="j" d="M78.233,67.932l-6.621-1.272,1.272-6.621Z" transform="translate(-61.629 -38.476)"/><path class="j" d="M79.431,61.7,72.81,60.426l1.272-6.621Z" transform="translate(-58.955 -52.394)"/><path class="j" d="M80.628,55.464l-6.621-1.272,1.272-6.621Z" transform="translate(-56.282 -66.313)"/><path class="j" d="M81.826,49.23,75.2,47.958l1.272-6.621Z" transform="translate(-53.608 -80.232)"/><path class="j" d="M76.7,106.422l-6.621-1.272,1.272-6.621Z" transform="translate(-65.063 47.459)"/><path class="j" d="M77.893,100.188l-6.621-1.272,1.272-6.621Z" transform="translate(-62.389 33.54)"/><path class="j" d="M79.09,93.954l-6.621-1.272,1.272-6.621Z" transform="translate(-59.716 19.621)"/><path class="j" d="M80.288,87.719l-6.621-1.272,1.272-6.621Z" transform="translate(-57.042 5.702)"/><path class="j" d="M81.485,81.485l-6.621-1.272,1.272-6.621Z" transform="translate(-54.368 -8.216)"/><path class="j" d="M82.683,75.251l-6.621-1.272,1.272-6.621Z" transform="translate(-51.694 -22.135)"/><path class="j" d="M83.88,69.017l-6.621-1.272,1.272-6.621Z" transform="translate(-49.021 -36.054)"/><path class="j" d="M85.078,62.783l-6.621-1.272,1.272-6.621Z" transform="translate(-46.347 -49.972)"/><path class="j" d="M86.275,56.549l-6.621-1.272,1.272-6.621Z" transform="translate(-43.673 -63.891)"/><path class="j" d="M87.473,50.315l-6.621-1.272,1.272-6.621Z" transform="translate(-41 -77.81)"/><path class="j" d="M82.342,107.506l-6.621-1.272,1.272-6.621Z" transform="translate(-52.455 49.881)"/><path class="j" d="M83.54,101.272,76.919,100l1.272-6.621Z" transform="translate(-49.781 35.962)"/><path class="j" d="M84.737,95.038l-6.621-1.272,1.272-6.621Z" transform="translate(-47.107 22.043)"/><path class="j" d="M85.935,88.8l-6.621-1.272,1.272-6.621Z" transform="translate(-44.433 8.124)"/><path class="j" d="M87.132,82.57,80.512,81.3l1.272-6.621Z" transform="translate(-41.76 -5.794)"/><path class="j" d="M88.33,76.336l-6.621-1.272,1.272-6.621Z" transform="translate(-39.086 -19.713)"/><path class="j" d="M89.528,70.1,82.907,68.83l1.272-6.621Z" transform="translate(-36.412 -33.632)"/><path class="j" d="M90.725,63.868,84.1,62.6l1.272-6.621Z" transform="translate(-33.739 -47.55)"/><path class="j" d="M91.923,57.634,85.3,56.362l1.272-6.621Z" transform="translate(-31.065 -61.469)"/><path class="j" d="M93.12,51.4,86.5,50.128l1.272-6.621Z" transform="translate(-28.391 -75.388)"/><path class="j" d="M87.99,108.591l-6.621-1.272L82.64,100.7Z" transform="translate(-39.846 52.303)"/><path class="j" d="M89.187,102.357l-6.621-1.272,1.272-6.621Z" transform="translate(-37.172 38.384)"/><path class="j" d="M90.385,96.123l-6.621-1.272,1.272-6.621Z" transform="translate(-34.499 24.465)"/><path class="j" d="M91.582,89.889l-6.621-1.272L86.233,82Z" transform="translate(-31.825 10.546)"/><path class="j" d="M92.78,83.655l-6.621-1.272,1.272-6.621Z" transform="translate(-29.151 -3.372)"/><path class="j" d="M93.977,77.421l-6.621-1.272,1.272-6.621Z" transform="translate(-26.478 -17.291)"/><path class="j" d="M95.175,71.187l-6.621-1.272,1.272-6.621Z" transform="translate(-23.804 -31.21)"/><path class="j" d="M96.372,64.953l-6.621-1.272,1.272-6.621Z" transform="translate(-21.13 -45.128)"/><path class="j" d="M97.57,58.719l-6.621-1.272,1.272-6.621Z" transform="translate(-18.456 -59.047)"/><path class="j" d="M98.767,52.485l-6.621-1.272,1.272-6.621Z" transform="translate(-15.783 -72.966)"/><path class="j" d="M93.637,109.676,87.016,108.4l1.272-6.621Z" transform="translate(-27.238 54.725)"/><path class="j" d="M94.834,103.442l-6.621-1.272,1.272-6.621Z" transform="translate(-24.564 40.806)"/><path class="j" d="M96.032,97.208l-6.621-1.272,1.272-6.621Z" transform="translate(-21.89 26.887)"/><path class="j" d="M97.229,90.974,90.608,89.7l1.272-6.621Z" transform="translate(-19.217 12.969)"/><path class="j" d="M98.427,84.74l-6.621-1.272,1.272-6.621Z" transform="translate(-16.543 -0.95)"/><path class="j" d="M99.624,78.506,93,77.234l1.272-6.621Z" transform="translate(-13.869 -14.869)"/><path class="j" d="M100.822,72.272,94.2,71l1.272-6.621Z" transform="translate(-11.195 -28.788)"/><path class="j" d="M102.019,66.038,95.4,64.766l1.272-6.621Z" transform="translate(-8.522 -42.706)"/><path class="j" d="M103.217,59.8,96.6,58.532l1.272-6.621Z" transform="translate(-5.848 -56.625)"/><path class="j" d="M104.415,53.569,97.794,52.3l1.272-6.621Z" transform="translate(-3.174 -70.544)"/><path class="j" d="M99.284,110.761l-6.621-1.272,1.272-6.621Z" transform="translate(-14.629 57.147)"/><path class="j" d="M100.482,104.527l-6.621-1.272,1.272-6.621Z" transform="translate(-11.956 43.228)"/><path class="j" d="M101.679,98.293l-6.621-1.272L96.33,90.4Z" transform="translate(-9.282 29.309)"/><path class="j" d="M102.877,92.059l-6.621-1.272,1.272-6.621Z" transform="translate(-6.608 15.391)"/><path class="j" d="M104.074,85.825l-6.621-1.272,1.272-6.621Z" transform="translate(-3.934 1.472)"/><path class="j" d="M105.272,79.591l-6.621-1.272L99.923,71.7Z" transform="translate(-1.261 -12.447)"/><path class="j" d="M106.469,73.356l-6.621-1.272,1.272-6.621Z" transform="translate(1.413 -26.366)"/><path class="j" d="M107.667,67.122l-6.621-1.272,1.272-6.621Z" transform="translate(4.087 -40.284)"/><path class="j" d="M108.864,60.888l-6.621-1.272L103.515,53Z" transform="translate(6.76 -54.203)"/><path class="j" d="M110.062,54.654l-6.621-1.272,1.272-6.621Z" transform="translate(9.434 -68.122)"/><path class="j" d="M104.931,111.846l-6.621-1.272,1.272-6.621Z" transform="translate(-2.021 59.569)"/><path class="j" d="M106.129,105.612l-6.621-1.272,1.272-6.621Z" transform="translate(0.653 45.65)"/><path class="j" d="M107.326,99.378l-6.621-1.272,1.272-6.621Z" transform="translate(3.327 31.731)"/><path class="j" d="M108.524,93.143,101.9,91.872l1.272-6.621Z" transform="translate(6 17.813)"/><path class="j" d="M109.721,86.909,103.1,85.638l1.272-6.621Z" transform="translate(8.674 3.894)"/><path class="j" d="M110.919,80.675,104.3,79.4l1.272-6.621Z" transform="translate(11.348 -10.025)"/><path class="j" d="M112.116,74.441,105.5,73.169l1.272-6.621Z" transform="translate(14.021 -23.944)"/><path class="j" d="M113.314,68.207l-6.621-1.272,1.272-6.621Z" transform="translate(16.695 -37.862)"/><path class="j" d="M114.511,61.973,107.891,60.7l1.272-6.621Z" transform="translate(19.369 -51.781)"/><path class="j" d="M115.709,55.739l-6.621-1.272,1.272-6.621Z" transform="translate(22.043 -65.7)"/><path class="j" d="M110.578,112.931l-6.621-1.272,1.272-6.621Z" transform="translate(10.587 61.991)"/><path class="j" d="M111.776,106.7l-6.621-1.272,1.272-6.621Z" transform="translate(13.261 48.072)"/><path class="j" d="M112.973,100.462l-6.621-1.272,1.272-6.621Z" transform="translate(15.935 34.153)"/><path class="j" d="M114.171,94.228l-6.621-1.272,1.272-6.621Z" transform="translate(18.609 20.235)"/><path class="j" d="M115.369,87.994l-6.621-1.272,1.272-6.621Z" transform="translate(21.282 6.316)"/><path class="j" d="M116.566,81.76l-6.621-1.272,1.272-6.621Z" transform="translate(23.956 -7.603)"/><path class="j" d="M117.764,75.526l-6.621-1.272,1.272-6.621Z" transform="translate(26.63 -21.522)"/><path class="j" d="M118.961,69.292,112.34,68.02l1.272-6.621Z" transform="translate(29.304 -35.44)"/><path class="j" d="M120.159,63.058l-6.621-1.272,1.272-6.621Z" transform="translate(31.977 -49.359)"/><path class="j" d="M121.356,56.824l-6.621-1.272,1.272-6.621Z" transform="translate(34.651 -63.278)"/><path class="j" d="M116.226,114.015l-6.621-1.272,1.272-6.621Z" transform="translate(23.196 64.413)"/><path class="j" d="M117.423,107.781l-6.621-1.272,1.272-6.621Z" transform="translate(25.87 50.494)"/><path class="j" d="M118.621,101.547,112,100.275l1.272-6.621Z" transform="translate(28.543 36.575)"/><path class="j" d="M119.818,95.313,113.2,94.041l1.272-6.621Z" transform="translate(31.217 22.657)"/><path class="j" d="M121.016,89.079l-6.621-1.272,1.272-6.621Z" transform="translate(33.891 8.738)"/><path class="j" d="M122.213,82.845l-6.621-1.272,1.272-6.621Z" transform="translate(36.564 -5.181)"/><path class="j" d="M123.411,76.611l-6.621-1.272,1.272-6.621Z" transform="translate(39.238 -19.1)"/><path class="j" d="M124.608,70.377,117.987,69.1l1.272-6.621Z" transform="translate(41.912 -33.018)"/><path class="j" d="M125.806,64.143l-6.621-1.272,1.272-6.621Z" transform="translate(44.586 -46.937)"/><path class="j" d="M127,57.909l-6.621-1.272,1.272-6.621Z" transform="translate(47.259 -60.856)"/><path class="j" d="M121.873,115.1l-6.621-1.272,1.272-6.621Z" transform="translate(35.804 66.835)"/><path class="j" d="M123.07,108.866l-6.621-1.272,1.272-6.621Z" transform="translate(38.478 52.916)"/><path class="j" d="M124.268,102.632l-6.621-1.272,1.272-6.621Z" transform="translate(41.152 38.997)"/><path class="j" d="M125.465,96.4l-6.621-1.272,1.272-6.621Z" transform="translate(43.825 25.079)"/><path class="j" d="M126.663,90.164l-6.621-1.272,1.272-6.621Z" transform="translate(46.499 11.16)"/><path class="j" d="M127.86,83.93l-6.621-1.272,1.272-6.621Z" transform="translate(49.173 -2.759)"/><path class="j" d="M129.058,77.7l-6.621-1.272,1.272-6.621Z" transform="translate(51.847 -16.677)"/><path class="j" d="M130.256,71.462l-6.621-1.272,1.272-6.621Z" transform="translate(54.52 -30.596)"/><path class="j" d="M131.453,65.228l-6.621-1.272,1.272-6.621Z" transform="translate(57.194 -44.515)"/><path class="j" d="M132.651,58.993l-6.621-1.272L127.3,51.1Z" transform="translate(59.868 -58.434)"/></g></g><path class="f" d="M109.286,54.218c-5.644-2.02-30.077,28.438-5.706,77.487,34.263,68.956,80.526,72.182,80.526,72.182" transform="translate(172.085 93.421)"/><path class="l" d="M123.56,82.049l28.67,21.984-3.312,24.812" transform="translate(240.402 155.769)"/><path class="m" d="M124.274,115.866s47.249,8.163,72.053-5.783c15.5-8.719,9.032-17.085,9.032-17.085" transform="translate(241.997 180.215)"/><path class="h" d="M88.646,122.247h67.886a41.015,41.015,0,0,1-8.082-3.233c-3.032-1.82-6.281-7.073-12.032-6.465s-10.193,4.645-12.417,3.433-15.96-3.837-20.4-1.413-11.114,3.233-13.335,4.445A2.83,2.83,0,0,0,88.646,122.247Z" transform="translate(162.282 223.757)"/><path class="n" d="M78.966,38.293c.808.272,4.041-1.616,5.117.54s-2.964,2.156-5.117,3.5a12.188,12.188,0,0,1-5.121,1.484" transform="translate(129.405 56.945)"/><path class="m" d="M110.409,83.4a82.421,82.421,0,0,0,42.51,17.586" transform="translate(211.041 158.795)"/><path class="n" d="M67.946,61.281c4.92,4.626,15.255,12.152,32.576,15.048" transform="translate(116.235 109.401)"/><path class="n" d="M71.1,44.111c-6.911,10.716-9.821,29.463-4.27,40.99a58.639,58.639,0,0,0,3.3,6.052" transform="translate(107.227 71.066)"/><path class="n" d="M102.757,25.35c35.618,5.353,66.008,19.923,87.463,43.906a121.046,121.046,0,0,1,10.571,13.681" transform="translate(193.956 29.179)"/><path class="n" d="M61.4,159.146C55.327,148.1,50.653,139.637,48.135,131.1c-3.737-12.666,4.92-20.033,26.786-29.485,10.05-4.345,29.01-9.65,46.079-14.01" transform="translate(70.122 168.172)"/><path class="n" d="M71.679,100.4s54.723-7.875,75.936,0c17.259,6.4,24.53-1.419,24.53-1.419" transform="translate(124.569 188.932)"/><path class="n" d="M91.368,100.806s14.256,38.792,31.1,55.5,26.6,28.351,32.88,38.359c1.439,2.289,2.735,4.461,3.879,6.443" transform="translate(168.528 197.648)"/><path class="n" d="M116.683,25.2A141.2,141.2,0,0,1,162.2,56.032c.588.6,1.17,1.206,1.746,1.82" transform="translate(225.049 28.849)"/><ellipse class="n" cx="3.031" cy="6.542" rx="3.031" ry="6.542" transform="matrix(0.22, -0.975, 0.975, 0.22, 321.37, 51.631)"/><path class="n" d="M143.034,254.541C148.811,188.914,109.091,137,109.091,137" transform="translate(208.098 278.467)"/><path class="n" d="M83.971,132.641c8.289,5.628,12.468,19.008,12.468,19.008" transform="translate(152.013 268.726)"/><path class="n" d="M84.84,131.556c4.364,2.961,7.587,8.072,9.663,12.249" transform="translate(153.953 266.303)"/></g></svg>