<svg xmlns="http://www.w3.org/2000/svg" xmlns:xlink="http://www.w3.org/1999/xlink" width="407.872" height="472.008" viewBox="0 0 407.872 472.008"><defs><style>.a,.g,.i,.k,.l,.o{fill:none;}.b{fill:#f8f9ff;}.c{fill:#e897a3;}.d{fill:#8057a7;}.e{fill:#fff;}.f{fill:#d63c30;}.g{stroke:#fff;}.g,.k,.l,.o{stroke-miterlimit:10;}.g,.i,.k,.l{stroke-width:0.25px;}.h{fill:#ffc529;}.i{stroke:#600;stroke-linejoin:round;}.j{clip-path:url(#a);}.k{stroke:#e5d8f2;}.l{stroke:#45a0d4;}.m{clip-path:url(#b);}.n{clip-path:url(#c);}.o{stroke:#9ecbe3;}</style><clipPath id="a"><path class="a" d="M206.837,76.493a16.149,16.149,0,0,1-3.616-1.745c-5.481-3.341-12.4-9.818-12.4-9.818s-12.23,9.119-18.013,11.563c-4.657,1.969-15.678,8.03-19.8,10.317l.061.08s2.263-.32,3.181.723c3.958,4.5,1.876,14.677-1.035,17.279-.027.027-.061.048-.091.072a5.208,5.208,0,0,1-1.9,1.388,11.888,11.888,0,0,1-12.169.528c-.107-.056-.195-.117-.3-.173a8.462,8.462,0,0,1-3.256-2.583,10.007,10.007,0,0,1-2.276-8.5c.718-2.2,2.26-3.165,3.4-4.318-5.057,1.708-20.372,7.44-32.09,10.322-5.551,1.366-15.79,3.114-15.79,3.114l.064,1.462c.181,4.088.726,15.622,1.27,19.441.475,3.325,1.505,6.527,2.066,9.145a14.417,14.417,0,0,1,.382,2.863c0,.232.016.392.021.606l.424,3.619s14.01.224,16.455,4.449,1.334,15.345-1.777,21.128-6.981,11.555-6.981,11.555,48.9,8.441,59.516,9.57c31.356,3.336,40.643-4.892,40.643-4.892s5.783-18.459,6.9-30.911,1.777-39.141,1.777-39.141,4.449-7.339,7.339-12.454,6.047-12.439,6.047-12.439S212.174,78.052,206.837,76.493Z" transform="translate(-90.751 -64.93)"/></clipPath><clipPath id="b"><path class="a" d="M84.748,151.117c-2.831,4.267-5.527,8.353-7.79,11.657C81.7,173.288,84.742,183.7,90.6,193.263c3.872-2.02,8.58-4.491,13.578-7.157C95.38,175.778,91.716,164.116,84.748,151.117Z" transform="translate(-76.958 -151.117)"/></clipPath><clipPath id="c"><ellipse class="a" cx="15.678" cy="22.35" rx="15.678" ry="22.35" transform="matrix(0.8, -0.6, 0.6, 0.8, 0, 18.822)"/></clipPath></defs><g transform="translate(-20.337 -9.997)"><g transform="translate(20.337 35.439)"><path class="b" d="M344.662,21.983C212.431,1.968,233.1,112.628,154.447,188.383,96.2,244.491,53.447,254.589,34.1,301.81-15.87,423.767,76.91,467.786,204.655,466.124s261.953-56.46,213.373-184.573c-52.049-137.25-7.734-66.049,4.8-172.882C431.411,35.521,375.8,26.7,344.662,21.983Z" transform="translate(-20.337 -19.603)"/></g><g transform="translate(114.384 42.74)"><path class="a" d="M92.391,93.994a14.224,14.224,0,0,0-.382-2.863l.406,3.469C92.409,94.387,92.391,94.227,92.391,93.994Z" transform="translate(5.211 92.45)"/><path class="c" d="M152.8,115c-.558-2.621-1.588-5.82-2.063-9.145-.547-3.819-1.091-15.353-1.273-19.441l-.061-.542s-29.857,6.805-40.865,6.973S93.79,93.6,90.787,91.1s-2.615-2.615-3.712-5.441a7.848,7.848,0,0,1-.889-3.894c.128-3.12,1.852-4.94-.075-4.94s-2.759,0-4.262,2.5-.165,5.337-3,4.337-7.5-1.5-10.84-3.587S62,77.163,61.5,78.83s1.043,2.5,1.377,3.584c.5,1.644.707,2.586-1.446,3.453-.83.334-4.6-.7-5.268,1.049S57.333,90.338,58,91s1,2.468.334,2.986-2.826-.318-2.754,2.186c.048,1.588,2.332,1.863,2.754,3,.833,2.25-.5,1.166-1.169,2.5s.883,3.349,2.722,3.218c2.228-.157,5.436-1.42,8.94,1.911s10.354,4.878,14.859,5.046,21.683,6.672,33.691,8.339,36.248,1.889,36.248,1.889a15.006,15.006,0,0,1-.422-3.619Z" transform="translate(-55.578 68.585)"/><path class="d" d="M206.822,76.517a16.111,16.111,0,0,1-3.619-1.745c-5.481-3.341-12.393-9.818-12.393-9.818S178.577,74.07,172.8,76.517c-4.657,1.969-15.678,8.03-19.8,10.317l.061.08s2.266-.32,3.184.723c3.958,4.5,1.876,14.677-1.038,17.279-.027.024-.061.048-.088.072a5.217,5.217,0,0,1-1.905,1.388,11.889,11.889,0,0,1-12.166.528c-.107-.056-.2-.117-.3-.173a8.472,8.472,0,0,1-3.258-2.583,10.007,10.007,0,0,1-2.276-8.5c.718-2.2,2.263-3.168,3.405-4.318-5.06,1.705-20.372,7.437-32.093,10.322-5.551,1.366-15.788,3.112-15.788,3.112s.021.552.061,1.465c.181,4.088.726,15.622,1.273,19.441.475,3.325,1.505,6.525,2.063,9.145a14.224,14.224,0,0,1,.382,2.863c0,.232.019.392.024.606l.422,3.619s14.01.222,16.457,4.449,1.334,15.345-1.78,21.125-6.981,11.558-6.981,11.558,48.9,8.441,59.516,9.57c31.356,3.336,40.646-4.892,40.646-4.892s5.78-18.459,6.893-30.913,1.78-39.138,1.78-39.138,4.446-7.339,7.339-12.455,6.044-12.439,6.044-12.439S212.159,78.073,206.822,76.517Z" transform="translate(3.087 48.77)"/><path class="c" d="M92.583,96.05l-.422-3.619A15.006,15.006,0,0,0,92.583,96.05Z" transform="translate(5.465 94.619)"/><path class="d" d="M148.913,38.339c-3.17,4.67,1.334,6.471-1.961,11.171-2.263,3.226-5.6,4.5-10.715,3.162s-10.619.334-12.844,5.9,1.318,6.88-4.176,11.675c-3.44,3,1.452,6.672-1.217,9.562s-4.409,1.027-8.449,5.337c-3.336,3.557-3.336,8.452,0,14.232,1.753,3.042,2.554,7.835.088,9.45-4.593,3-.088,6.007-.088,6.007a7.227,7.227,0,0,1,4.673-4.537c2.386-.907.523-4.926,2.7-5.321,4.892-.889,7.664,3.405,9.442-1.711S123,94.7,129.007,94.7s7.784,2.335,11.12-2.335-5.225-11.451-1.446-15.233,7.117-.221,12.454.667,7.662-.683,7.662-5.577-.576-6.642,3.29-7.571c4.171-1,7.923-5.839,7.923-11.176s.027-9.255-3.976-12.815S154.338,30.346,148.913,38.339Z" transform="translate(30.306 -1.885)"/><path class="e" d="M83.137,188.852c-2-9.007,4.337-19.348,4.337-19.348s10.341-6.338,15.011-11.675c0,0-15.345,2.335-18.013,6.672S76.8,177.844,73.463,183.515,60.41,203.4,59.471,207.842c-.9,4.243-1.353,6.362,3.651,7.363s11.742-4.337,17.88-9.34l6.138-5,4.425-4.1a14.842,14.842,0,0,1-2.423.766C85.472,198.192,85.138,197.859,83.137,188.852Z" transform="translate(-50.025 203.744)"/><path class="c" d="M92.06,121.592c-2.754,5.1-9.949,19.161-9.949,26.985,0,9.674,4.337,15.678,9.34,17.68,1.07.427,4.825,1.655,10.063,3.346,6.1-4.758,12.028-8.6,14.288-11.686,3.034-4.139,13.8-18.745,17.448-23.681-3.1-.494-5.631-.955-7.44-1.337C116.347,130.906,99.831,124.642,92.06,121.592Z" transform="translate(-11.305 143.278)"/><path class="c" d="M207.478,129.676c-28.034,1.953-55.814-1.014-70.5-3.346-3.643,4.937-14.413,19.542-17.448,23.681-2.26,3.082-8.193,6.928-14.288,11.686a69.02,69.02,0,0,0-10.731,10c-3.971,4.8-9.5,13.039-14.635,20.783,6.968,13,10.632,24.661,19.43,34.988,13.463-7.181,29.013-15.772,35.9-20.746,11.27-8.139,20.178-17.143,28.125-24.84.52-.5,1.051-1.022,1.564-1.513,6.445-6.189,19.441-18.931,27.332-27.951a67.8,67.8,0,0,0,5.359-6.741c5-7.672,10.007-15.99,10.007-15.99Z" transform="translate(-15.033 151.184)"/><path class="d" d="M87.578,161.74c-4.67,5.337-15.011,11.675-15.011,11.675s-6.338,10.341-4.337,19.348,2.335,9.34,6,8.673a14.845,14.845,0,0,0,2.423-.766c5-1.937,14.184-6.9,20.594-10.242,1.639-.857,4.681-2.428,8.564-4.454-5.858-9.559-8.9-19.975-13.642-30.489C90.263,158.271,88.653,160.507,87.578,161.74Z" transform="translate(-35.119 199.833)"/><path class="e" d="M84.748,151.117c-2.831,4.267-5.527,8.353-7.79,11.657C81.7,173.288,84.742,183.7,90.6,193.263c3.872-2.02,8.58-4.491,13.578-7.157C95.38,175.778,91.716,164.116,84.748,151.117Z" transform="translate(-19.904 192.544)"/><path class="d" d="M143.849,137.567h0l-3.8-1.462c-7.891,9.02-20.887,21.763-27.332,27.951-.512.491-1.043,1.009-1.564,1.513a10.545,10.545,0,0,1,2.231,1.489,16.147,16.147,0,0,1,4.291,6.506l.037-.035c.4-.438,9.348-10.325,12.572-15.369C135.926,149.331,143.849,137.567,143.849,137.567Z" transform="translate(37.15 167.495)"/><path class="e" d="M142.469,136.653h0s-7.923,11.763-13.567,20.594c-3.224,5.044-12.174,14.931-12.572,15.369l-.037.043s.574,2.031-1.761,6.7-4.478,11.494.334,10.832c8.452-1.158,16.012-15.5,20.015-22.507s17.346-23.017,17.346-27.02S142.469,136.653,142.469,136.653Z" transform="translate(38.53 168.409)"/><path class="f" d="M119.558,141.46c-6.373,3.707-16.012,14.01-20.682,21.015s-6.544,15.4-3.338,18.336c3.829,3.509,11.825,3.421,25.688-10.562,13.178-13.29,14.755-20.348,12.42-25.018S126.58,137.377,119.558,141.46Z" transform="translate(8.434 173.298)"/><path class="g" d="M97.111,147.329s.723,8.129,8.5,10.007c9.674,2.335,15.179-7.005,15.179-7.005" transform="translate(13.724 186.223)"/><path class="c" d="M131.034,85.372c-.918-1.043-3.184-.723-3.184-.723l-.061-.08-3.547-4.6-2.786-3.608a30.224,30.224,0,0,0,.36-4.422,16.155,16.155,0,0,0-.36-3.7c-.467-.155-1.737-.568-2.781-.889-1.444-.446-5.295-1.39-8.033-.918a12.135,12.135,0,0,0-4.721,2.447,10.9,10.9,0,0,0,.358,4.307,12.169,12.169,0,0,0,3.221,5.588c2.727,2.084,4.521,1.252,4.521,1.252a17.155,17.155,0,0,1,.75,6.338,4.157,4.157,0,0,1-1.364,2.687c-1.142,1.15-2.687,2.116-3.405,4.318a10.007,10.007,0,0,0,2.276,8.5,8.472,8.472,0,0,0,3.258,2.583c.1.056.192.117.3.173A11.889,11.889,0,0,0,128,104.111a5.217,5.217,0,0,0,1.905-1.388c.027-.024.061-.048.088-.072C132.91,100.049,134.992,89.869,131.034,85.372Z" transform="translate(28.296 51.035)"/><path class="d" d="M119.647,66.549a7.547,7.547,0,0,0-8.561-2,10.641,10.641,0,0,0-3.448,2.89,11.425,11.425,0,0,0-1.777,5.337l.032-.027a12.135,12.135,0,0,1,4.721-2.447c2.738-.472,6.589.472,8.033.918,1.043.32,2.012.635,2.479.79l.3.1S120.981,68.326,119.647,66.549Z" transform="translate(28.325 47.175)"/><g transform="translate(195.398 6.61)"><path class="e" d="M193.394,101.294,166.8,65.862c6.015-6.733,5.236-19.142-2.3-29.184-5.489-7.317-13.429-11.862-20.719-11.862a14.8,14.8,0,0,0-8.972,2.863c-4.064,3.05-6.2,8.062-6,14.112A30.356,30.356,0,0,0,135.157,58.7c5.492,7.317,13.429,11.862,20.719,11.862a15.292,15.292,0,0,0,6.664-1.492L189.127,104.5ZM139.427,55.5a25,25,0,0,1-5.281-13.882c-.139-4.259,1.238-7.694,3.872-9.668a9.366,9.366,0,0,1,5.767-1.8c5.644,0,11.947,3.725,16.452,9.727,6.4,8.532,7.045,19.318,1.406,23.551a9.361,9.361,0,0,1-5.767,1.8C150.232,65.227,143.929,61.5,139.427,55.5Z" transform="translate(-128.798 -24.816)"/><g transform="translate(45.645 57.534)"><rect class="e" width="8.004" height="22.684" transform="matrix(0.8, -0.6, 0.6, 0.8, 0, 4.805)"/></g></g><path class="h" d="M106.472,22.339,102.6,42.53l38.779,9.293,4.569-16.606Z" transform="translate(22.886 -22.339)"/><path class="h" d="M263.25,137.646h0l-6.343-2.458s-11.857-5.748-21.741-9.77a40.724,40.724,0,0,1-11.52-6.89,60.871,60.871,0,0,1-8.206-6.149s-9.289,8.227-40.646,4.892c-10.616-1.129-59.516-9.57-59.516-9.57s-5.417,6.012-9.37,10.365C102.59,121.722,83.173,141.9,83.173,141.9s4.475,1.836,7.115,2.871c7.771,3.05,24.287,9.314,33.75,11.307,1.809.382,4.345.843,7.44,1.337,14.685,2.332,42.466,5.3,70.5,3.346a202.422,202.422,0,0,0,22.134-2.682c18.728-3.416,46.367-17.346,46.367-17.346S267.359,139.37,263.25,137.646Z" transform="translate(-9.533 120.099)"/><path class="c" d="M153.315,56.739l-4.064-5.479s1.1-3.122,1.436-3.789,2.378.987,3.464-.331c.424-.512,1.249-1.631-1-2.8a18.861,18.861,0,0,1-2.959-1.887c-1.486-.923-2.837.528-5.172,2.362s-1.5,8.841-2.669,11.176c-.083.165-.256.47-.48.846C145.514,59.339,149.979,59.814,153.315,56.739Z" transform="translate(88.409 10.753)"/><path class="c" d="M175.839,47.921c-3.042,2.517-7.341,2.207-10.984-.291-2.9,4.884-16.722,26.126-19.2,29.843-2.669,4-17.514,16.514-17.514,16.514s3.517,3.125,7.3,6.226c.862.7,2.741,2.015,5.092,3.592a16.268,16.268,0,0,0,3.616,1.745c5.337,1.556,18.056,12.244,18.056,12.244s7.963-18.3,10.632-24.586S184.8,60.127,184.8,60.127Z" transform="translate(65.5 19.862)"/><path class="c" d="M150.978,43.847c-2.391.854-2.517.833-2.757,1.222-.331.536.184,3.085-1.222,4.449s-2.9,3.608-1.892,4.78a2.294,2.294,0,0,0,2.8.782,5.961,5.961,0,0,0-.464,3.555c.446,1.668,2.372,2.02,3.41,1.791s1.305-.328,1.305-.328-2.111,3.16-.833,4.756a2.939,2.939,0,0,0,3.456.678s-2.5,2.167-.443,3.557,5.225-.112,6.56-2,2.781-5.727,1.945-6.768a3.111,3.111,0,0,0-1.724-1.017s.376-3.085-.737-4.2a4.371,4.371,0,0,0-2.375-1.249,7.6,7.6,0,0,0-.723-3.837,5.354,5.354,0,0,0-2.725-1.833s.3-2.423-.592-3.448C153.044,43.679,152.377,43.346,150.978,43.847Z" transform="translate(93.265 13.168)"/><path class="i" d="M145.766,46.355c-1.009,1.556-1.23,2.871-.681,3.512a2.291,2.291,0,0,0,2.8.779,5.972,5.972,0,0,0-.464,3.557c.446,1.668,2.372,2.02,3.41,1.788s1.305-.326,1.305-.326-2.111,3.16-.833,4.756a2.939,2.939,0,0,0,3.456.678s-2.5,2.167-.443,3.557a3.226,3.226,0,0,0,1.668.536" transform="translate(93.287 17.735)"/><path class="g" d="M142.829,50.329a10.808,10.808,0,0,1,5.2,1.889c2.108,1.668.8,5.116,3.469,7.075,1.783,1.308,2.5.793,2.5.793" transform="translate(90.011 24.366)"/><g transform="translate(93.863 113.66)"><g class="j"><g transform="translate(-77.053 -57.714)"><line class="k" x1="111.266" y2="174.936"/><line class="k" x1="111.266" y2="174.936" transform="translate(18.662 11.87)"/><line class="k" x1="111.266" y2="174.936" transform="translate(37.325 23.74)"/><line class="k" x1="111.266" y2="174.936" transform="translate(55.987 35.61)"/><line class="k" x1="111.266" y2="174.936" transform="translate(74.649 47.48)"/><line class="k" x1="111.266" y2="174.936" transform="translate(93.312 59.35)"/><line class="k" x1="111.266" y2="174.936" transform="translate(111.974 71.22)"/><line class="k" x1="111.266" y2="174.936" transform="translate(130.636 83.09)"/><line class="k" x1="111.266" y2="174.936" transform="translate(149.298 94.959)"/><line class="k" x1="111.266" y2="174.936" transform="translate(167.961 106.829)"/></g><g transform="translate(-77.281 -55.782)"><line class="l" x2="174.936" y2="111.266" transform="translate(0 167.961)"/><line class="l" x2="174.936" y2="111.266" transform="translate(11.87 149.298)"/><line class="l" x2="174.936" y2="111.266" transform="translate(23.74 130.636)"/><line class="l" x2="174.936" y2="111.266" transform="translate(35.61 111.974)"/><line class="l" x2="174.936" y2="111.266" transform="translate(47.48 93.312)"/><line class="l" x2="174.936" y2="111.266" transform="translate(59.35 74.649)"/><line class="l" x2="174.936" y2="111.266" transform="translate(71.22 55.987)"/><line class="l" x2="174.936" y2="111.266" transform="translate(83.09 37.325)"/><line class="l" x2="174.936" y2="111.266" transform="translate(94.959 18.662)"/><line class="l" x2="174.936" y2="111.266" transform="translate(106.829)"/></g></g></g><path class="i" d="M104.052,22.339l17.8,18.8,21.674-5.921" transform="translate(25.307 -22.339)"/><line class="i" y1="5.848" x2="17.454" transform="translate(125.488 14.343)"/><line class="i" x2="10.957" y2="12.217" transform="translate(153.31 17.267)"/><path class="g" d="M109.717,85.153s-6.173-1.841-7.507,1.414.334,6.258,3.752,7.758a21.762,21.762,0,0,0,7.59,1.5" transform="translate(21.467 81.61)"/><path class="g" d="M127.923,78.743s5.505-.5,7.672,1.334a4.66,4.66,0,0,1,.835,6.837,15.053,15.053,0,0,1-5,4" transform="translate(65.138 71.674)"/><path class="g" d="M112.48,70.36a5.421,5.421,0,0,1-1.5,2.127,4.715,4.715,0,0,1-2.036,1.078" transform="translate(33.464 57.79)"/><path class="i" d="M62.3,82.891s1.668,4.726,4.5,6.45,4.168,1.222,4.168,1.222" transform="translate(-44.366 78.7)"/><g transform="translate(57.054 343.661)"><g class="m"><g transform="translate(-11.01 -2.727)"><line class="l" x1="21.376" y2="16.406"/><line class="l" x1="21.376" y2="16.406" transform="translate(2.66 3.466)"/><line class="l" x1="21.376" y2="16.406" transform="translate(5.32 6.932)"/><line class="l" x1="21.376" y2="16.406" transform="translate(7.98 10.397)"/><line class="l" x1="21.376" y2="16.406" transform="translate(10.64 13.863)"/><line class="l" x1="21.376" y2="16.406" transform="translate(13.3 17.329)"/><line class="l" x1="21.376" y2="16.406" transform="translate(15.961 20.795)"/><line class="l" x1="21.376" y2="16.406" transform="translate(18.621 24.26)"/><line class="l" x1="21.376" y2="16.406" transform="translate(21.281 27.726)"/><line class="l" x1="21.376" y2="16.406" transform="translate(23.941 31.192)"/></g></g></g><g transform="translate(190.214 1.5)"><g class="n" transform="translate(0 0)"><g transform="translate(-20.303 -18.97)"><path class="o" d="M119.248,19.7" transform="translate(-119.248 -9.28)"/><g transform="translate(0.001 16.635)"><line class="g" x2="92.513"/><line class="g" x2="92.513" transform="translate(0 6.609)"/><line class="g" x2="92.513" transform="translate(0 13.217)"/><line class="g" x2="92.513" transform="translate(0 19.826)"/><line class="g" x2="92.513" transform="translate(0 26.434)"/><line class="g" x2="92.513" transform="translate(0 33.043)"/><line class="g" x2="92.513" transform="translate(0 39.651)"/><line class="g" x2="92.513" transform="translate(0 46.26)"/><line class="g" x2="92.513" transform="translate(0 52.868)"/><line class="g" x2="92.513" transform="translate(0 59.477)"/></g><path class="o" d="M122.654,50.459" transform="translate(-113.565 42.052)"/><g transform="translate(15.307)"><line class="g" y1="92.513" transform="translate(0 0)"/><line class="g" y1="92.513" transform="translate(6.609 0)"/><line class="g" y1="92.513" transform="translate(13.217 0)"/><line class="g" y1="92.513" transform="translate(19.826 0)"/><line class="g" y1="92.513" transform="translate(26.434 0)"/><line class="g" y1="92.513" transform="translate(33.043 0)"/><line class="g" y1="92.513" transform="translate(39.651 0)"/><line class="g" y1="92.513" transform="translate(46.26 0)"/><line class="g" y1="92.513" transform="translate(52.868)"/><line class="g" y1="92.513" transform="translate(59.477)"/></g></g></g></g><line class="l" x2="9.34" y2="10.897" transform="translate(27.996 399.489)"/><line class="l" x2="9.173" y2="10.258" transform="translate(25.105 402.603)"/><line class="l" x2="8.506" y2="9.924" transform="translate(23.02 405.438)"/><line class="l" x2="8.993" transform="translate(153.046 343.226)"/><line class="l" x2="8.506" transform="translate(152.032 345.894)"/><line class="l" x2="8.697" transform="translate(150.506 348.563)"/></g><g transform="translate(124.696 10.113)"><ellipse class="i" cx="7.005" cy="4.837" rx="7.005" ry="4.837" transform="matrix(0.703, -0.711, 0.711, 0.703, 261.559, 296.934)"/><path class="i" d="M132.6,141.07c2.674-.451,5.263-1.011,9.049-1.7,18.728-3.413,46.368-17.346,46.368-17.346s-3.12-1.364-7.229-3.088v0" transform="translate(62.623 171.469)"/><path class="i" d="M137.611,113.2c.833.334,12.54,5.778,28.458,12.8" transform="translate(70.993 161.908)"/><g transform="translate(48.651 314.157)"><path class="i" d="M212.711,128.212l.12.008s-11.9,22.988-42.7,50.68c-.528.475-1.043,1.009-1.564,1.513-7.947,7.7-16.855,16.7-28.125,24.84C133.554,210.227,118,218.82,104.541,226c0,0-22.2,13.047-26.868,15.273" transform="translate(-77.673 -127.206)"/><path class="i" d="M131.481,127.835c-4.558,6.178-13.076,17.733-15.721,21.338-2.26,3.082-8.193,6.928-14.288,11.686a69.022,69.022,0,0,0-10.731,10c-2.191,2.65-4.86,6.349-7.672,10.434" transform="translate(-68.669 -127.835)"/></g><path class="i" d="M143.982,136.1s9.2.841,9.2,4.844-13.343,20.015-17.346,27.02-11.566,21.349-20.015,22.51c-4.812.659-2.669-6.165-.334-10.835s1.761-6.7,1.761-6.7" transform="translate(29.807 200.121)"/><path class="i" d="M96.805,158.662s-8.657,1.647-10.928,4.614c-3.1,4.043-8.529,14.955-11.865,20.626S61.459,202.945,60,207.031c-1.083,3.045-1,7.227,4,8.227s11.707-3.891,17.845-8.895a102.979,102.979,0,0,0,10.175-9.452" transform="translate(-59.442 237.761)"/><path class="i" d="M97.414,10.113a743.984,743.984,0,0,1,82.253,38.306" transform="translate(3.918 -10.113)"/><path class="i" d="M148.677,130.3Q144.9,131.783,141,133.2" transform="translate(76.651 190.432)"/><path class="i" d="M174.019,124.423a268.969,268.969,0,0,1-28.114,13.5" transform="translate(84.832 180.628)"/><path class="i" d="M217.909,121.593c-21.32,16.177-48.8,29.83-81.239,40.691" transform="translate(69.422 175.906)"/><path class="i" d="M140.895,167.213c1.113-12.455,1.78-39.141,1.78-39.141s4.4-7.365,7.339-12.454c7.63-13.218,21.512-49.754,24-56.743m-37.43,130.187c.817-3.093,1.711-6.706,2.482-10.384" transform="translate(69.276 71.251)"/><path class="i" d="M145.122,105.23c4.622-8.006,11.539-24.573,16.828-37.943" transform="translate(83.526 85.289)"/><path class="i" d="M91.282,122.327c-2.757,5.1-9.951,19.161-9.951,26.985,0,9.674,4.337,15.678,9.34,17.68,1.07.427,4.825,1.652,10.066,3.346" transform="translate(-22.918 177.131)"/><path class="h" d="M99.3,15.534l12.868,12,6.416-12.478Z" transform="translate(7.068 -1.868)"/><line class="i" x1="12.016" y1="4.583" transform="translate(116.081 18.85)"/><line class="i" x1="14.471" y1="4.875" transform="translate(119.807 16.266)"/><path class="d" d="M166.111,123.063l8.339,8.045,9.007-15.217Z" transform="translate(118.548 166.392)"/><g transform="translate(44.363 224.896)"><path class="i" d="M89.624,95.479s14,.616,16.324,4.91" transform="translate(-53.443 -92.565)"/><path class="i" d="M76.066,94.387c11.955,2.007,36.181,2.914,36.181,2.914" transform="translate(-76.066 -94.387)"/></g><path class="i" d="M125.426,37.589c11.342,2.25,40.881,13.127,40.881,13.127Q144.222,37.13,118.925,24.465" transform="translate(39.812 13.835)"/><line class="i" x2="10.666" y2="8.356" transform="translate(198.209 266.873)"/><path class="i" d="M117.416,99.751s-2.444,14.677-11.342,25.128-15.331,17.3-15.331,17.3" transform="translate(-7.213 139.46)"/></g></g></svg>