<svg xmlns="http://www.w3.org/2000/svg" xmlns:xlink="http://www.w3.org/1999/xlink" width="325.191" height="394.792" viewBox="0 0 325.191 394.792"><defs><style>.a,.j,.l,.m{fill:none;}.b{fill:#f8f9ff;}.c{fill:#8057a7;}.d{fill:#f39684;}.e{fill:#a77fcd;}.f{fill:#ffc529;}.g{fill:#44a1db;}.h{fill:#e897a3;}.i{fill:#e9b528;}.j{stroke:#30384f;}.j,.l{stroke-linejoin:round;}.j,.l,.m{stroke-width:0.25px;}.k{clip-path:url(#a);}.l,.m{stroke:#fff;}.m{stroke-miterlimit:10;}</style><clipPath id="a"><path class="a" d="M271.313,35.235,246.67,26.408c-7.783,21.494-18.332,37.8-40.347,46.6-14.836,5.934-22.725.664-71.985,25.594-37.476,18.968-55.043,54.2-55.921,67.419l24.489,6.614c2.879-6.461,14.806-22.031,17.378-20.1,0,0-1.868,3.6-4.615,9.145-6.151,12.392-16.722,34.49-20.751,47.757.965.42,1.947.765,2.931,1.1.436.143.869.288,1.311.411.376.11.757.195,1.138.293h.005c1.2.3,2.413.557,3.65.743h0q1.612.243,3.274.348t3.376.08a50.791,50.791,0,0,0,7.092-.633,76.134,76.134,0,0,0,11.6-2.857q4.085-1.325,8.479-3.129t9.151-4.061c7.925-3.762,16.618-8.463,26.257-14,21.615-12.423,36.014-10.777,43.418-12.055,4.972-.856,10.939-.129,13.892-4.223a46.469,46.469,0,0,0,5.679-11.188c6.642-18.6,12.963-34.251,17.792-48.516,6.54-19.311,12.041-33.98,16.583-61.1C271.754,43.473,271.313,39.031,271.313,35.235Z" transform="translate(-78.418 -26.408)"/></clipPath></defs><g transform="translate(-32.764 -24.904)"><g transform="translate(32.764 45.761)"><path class="b" d="M156.32,104.155c21.659-13.7,167.49-123.726,193.764-41.194,13.347,41.927,8,69.761-3.25,104.952-12.65,39.582-27.146,80.615-78.794,105.635-32.364,15.678-58.66,64.271-92.113,99.35s-94.62,50.085-132.575,8.035S83.227,291.814,63.3,265.491C41.575,236.782,55.514,167.913,156.32,104.155Z" transform="translate(-32.764 -32.535)"/></g><g transform="translate(95.068 28.959)"><path class="c" d="M59.488,225.86c-.858,4.914,8.183-6.373,11.781-7.55,1.2-.392,3.052-.167,3.916-.324,8.186-1.486,5.2-5.016,11.4-6.2,9.642-1.843,3.771,1.972,8.827,3.428,3.809,1.1,10.794-3.535,15.253-6.938,5.21-28.149,13.613-72.179,17.485-84.928,4.026-13.264,14.6-35.364,20.748-47.757C129.819,107.105,60.081,222.462,59.488,225.86Z" transform="translate(-48.607 59.282)"/><path class="d" d="M77.263,138.341s-5.084,32.046-.266,36.5,16.308-9.2,21.091-17.523c4.615-8.029,5.183-10.149,5.183-10.149Z" transform="translate(-21.616 168.61)"/><path class="e" d="M97.17,107.2c-4.421,1.242-5.449,4.67-12.3,19.067S67.04,155.4,74.924,151.975s14.992-7.113,15.477-9.68S97.17,107.2,97.17,107.2Z" transform="translate(-26.383 114.352)"/><path class="f" d="M112.807,45.375c-5-.639-10.347,1.878-8.216,4.135s6.165.442,8.644-.713S114.422,45.581,112.807,45.375Z" transform="translate(29.235 6.462)"/><path class="a" d="M85.982,93.7c.376.107.757.2,1.138.293C86.739,93.9,86.358,93.812,85.982,93.7Z" transform="translate(-2.348 90.837)"/><path class="a" d="M90.049,94.552c-1.237-.186-2.449-.444-3.65-.743,1.2.3,2.416.557,3.653.743Z" transform="translate(-1.621 91.023)"/><path class="a" d="M100.065,94.4q4.4-1.8,9.151-4.061Q104.461,92.6,100.065,94.4Z" transform="translate(22.189 84.981)"/><path class="a" d="M97.248,94.005a50.786,50.786,0,0,1-7.092.633A50.786,50.786,0,0,0,97.248,94.005Z" transform="translate(4.925 91.365)"/><path class="a" d="M84.435,93.152c.965.42,1.944.773,2.931,1.1C86.382,93.917,85.4,93.572,84.435,93.152Z" transform="translate(-5.043 89.879)"/><path class="a" d="M96.973,94.951q4.085-1.325,8.479-3.129Q101.051,93.624,96.973,94.951Z" transform="translate(16.802 87.561)"/><path class="c" d="M271.313,35.235,246.67,26.408c-7.783,21.494-18.332,37.8-40.347,46.6-14.836,5.934-22.725.664-71.985,25.594-37.476,18.968-55.043,54.2-55.921,67.419l24.489,6.614c2.879-6.461,14.806-22.031,17.378-20.1,0,0-1.868,3.6-4.615,9.145-6.151,12.392-16.722,34.49-20.751,47.757.965.42,1.947.765,2.931,1.1.436.143.869.288,1.311.411.376.11.757.195,1.138.293h.005c1.2.3,2.413.557,3.65.743h0q1.612.243,3.274.348t3.376.08a50.791,50.791,0,0,0,7.092-.633,76.134,76.134,0,0,0,11.6-2.857q4.085-1.325,8.479-3.129t9.151-4.061c7.925-3.762,16.618-8.463,26.257-14,21.615-12.423,36.014-10.777,43.418-12.055,4.972-.856,10.939-.129,13.892-4.223a46.57,46.57,0,0,0,5.679-11.188c6.642-18.6,12.963-34.251,17.792-48.516,6.54-19.311,12.041-33.98,16.583-61.1C271.754,43.473,271.313,39.031,271.313,35.235Z" transform="translate(-15.526 -26.408)"/><path class="g" d="M92.3,94.287q-1.715.029-3.376-.08Q90.587,94.314,92.3,94.287Z" transform="translate(2.78 91.717)"/><path class="f" d="M222.022,83.522c-7.4,1.278-21.8-.367-43.418,12.055-9.639,5.539-18.332,10.24-26.257,14q-4.755,2.258-9.151,4.061t-8.479,3.129a76.14,76.14,0,0,1-11.6,2.857,50.786,50.786,0,0,1-7.092.633q-1.715.029-3.376-.08t-3.274-.348c-1.237-.186-2.452-.442-3.653-.743h-.005c-.381-.1-.762-.186-1.138-.293h0c-.439-.123-.872-.269-1.308-.411h0c-.987-.324-1.966-.677-2.931-1.1-3.869,12.749-12.272,56.779-17.482,84.928-2.635,14.232-4.456,24.42-4.456,24.42a12.226,12.226,0,0,0-3.085,7.541,19.086,19.086,0,0,0,10.284,17.139c8.912,4.8,17.913-1.113,23.4-5.227s4.969-11.912,4.969-11.912L135.3,192.015s16.9-6.014,37.476-20.474c4.626-3.255,9.436-6.927,14.285-11.062a85.13,85.13,0,0,0,8.723-8.794c16.846-19.33,31.972-50.323,40.133-72.385C232.961,83.393,226.994,82.667,222.022,83.522Z" transform="translate(-20.941 65.743)"/><path class="g" d="M86.4,93.81l-.007,0,.006,0Z" transform="translate(-1.625 91.023)"/><path class="g" d="M86.812,93.963h0c-.441-.123-.875-.269-1.311-.411h0C85.94,93.695,86.373,93.84,86.812,93.963Z" transform="translate(-3.18 90.575)"/><path class="h" d="M76.253,76.735l2.092.565.35-.565Z" transform="translate(-19.298 61.276)"/><path class="h" d="M82.514,93.346c3.847,1,5.027-3.348,6.625-4.489s2.4,3.883,4.571,3.771,1.6-3.886,2.857-4.687,1.6,2.63,3.085,2.63,1.141,0,2.855-5.485a11.035,11.035,0,0,1,.447-1.152L78.466,77.32C77.811,87.2,81.611,93.11,82.514,93.346Z" transform="translate(-15.574 62.295)"/><rect class="c" width="5.028" height="6.935" rx="0.917" transform="translate(4.365 292.62) rotate(39.006)"/><rect class="c" width="7.274" height="10.798" rx="1.154" transform="matrix(0.787, 0.617, -0.617, 0.787, 23.183, 284.429)"/><path class="f" d="M107.057,48.324c-.773.941,1.8.9,3.255.557s.976-.987.6-1.547C110.575,46.83,107.828,47.381,107.057,48.324Z" transform="translate(34.124 9.719)"/><path class="i" d="M86.994,124.455s-5.731,16.073-2.989,23.156,12.414-.532,16.7-14.929C103.829,122.184,95.449,111.659,86.994,124.455Z" transform="translate(-7.087 134.158)"/><path class="j" d="M77.31,137.464a11.076,11.076,0,0,0,9.255,7.884" transform="translate(-17.457 167.082)"/><path class="j" d="M83.262,142.964a14.391,14.391,0,0,0,9.055-4.623" transform="translate(-7.087 168.61)"/><g transform="translate(62.892)"><g class="k"><path class="l" d="M127.165,125.016l-1.329-7.208-6.6,3.194,3.314.122-5.289,10.443,1.778-.345.774,1.638,5.289-10.443Z" transform="translate(-10.737 132.837)"/><path class="l" d="M132.07,115.331l-1.329-7.208-6.6,3.194,3.314.122-5.289,10.443,1.778-.345.774,1.638,5.289-10.443Z" transform="translate(-2.191 115.962)"/><path class="l" d="M136.975,105.645l-1.329-7.208-6.6,3.194,3.314.122L127.074,112.2l1.778-.345.774,1.638,5.289-10.443Z" transform="translate(6.355 99.087)"/><path class="l" d="M141.88,95.96l-1.329-7.208-6.6,3.194,3.314.122-5.289,10.443,1.778-.345.774,1.638,5.289-10.443Z" transform="translate(14.901 82.212)"/><path class="l" d="M146.785,86.274l-1.329-7.208-6.6,3.194,3.314.122-5.289,10.443,1.778-.345.774,1.638,5.289-10.443Z" transform="translate(23.447 65.337)"/><path class="l" d="M151.69,76.588l-1.329-7.208-6.6,3.194,3.314.122L141.79,83.14l1.778-.345.774,1.638,5.289-10.443Z" transform="translate(31.993 48.462)"/><path class="l" d="M156.6,66.9,155.266,59.7l-6.6,3.194,3.314.122-5.289,10.443,1.778-.345.774,1.638L154.535,64.3Z" transform="translate(40.539 31.587)"/><path class="l" d="M161.5,57.217l-1.329-7.208-6.6,3.194,3.314.122L151.6,63.769l1.778-.345.774,1.638,5.289-10.443Z" transform="translate(49.085 14.712)"/><path class="l" d="M166.405,47.532l-1.329-7.208-6.6,3.194,3.314.122-5.289,10.443,1.778-.345.774,1.638,5.289-10.443Z" transform="translate(57.631 -2.163)"/><path class="l" d="M171.31,37.846l-1.329-7.208-6.6,3.194,3.314.122L161.41,44.4l1.778-.345.774,1.638,5.289-10.443Z" transform="translate(66.177 -19.038)"/><path class="l" d="M118.79,127.39l-1.329-7.208-6.6,3.194,3.314.122-5.289,10.443,1.778-.345.774,1.638,5.289-10.443Z" transform="translate(-25.328 136.972)"/><path class="l" d="M123.695,117.7l-1.329-7.208-6.6,3.194,3.314.122-5.289,10.443,1.778-.345.774,1.638,5.289-10.443Z" transform="translate(-16.782 120.097)"/><path class="l" d="M128.6,108.019l-1.329-7.208-6.6,3.194,3.314.122L118.7,114.571l1.778-.345.774,1.638,5.289-10.443Z" transform="translate(-8.236 103.222)"/><path class="l" d="M133.505,98.333l-1.329-7.208-6.6,3.194,3.314.122L123.6,104.885l1.778-.345.774,1.638,5.289-10.443Z" transform="translate(0.31 86.347)"/><path class="l" d="M138.41,88.648l-1.329-7.208-6.6,3.194,3.314.122L128.51,95.2l1.778-.345.774,1.638,5.289-10.443Z" transform="translate(8.856 69.472)"/><path class="l" d="M143.315,78.962l-1.329-7.208-6.6,3.194,3.314.122-5.289,10.443,1.778-.345.774,1.638,5.289-10.443Z" transform="translate(17.402 52.598)"/><path class="l" d="M148.22,69.277l-1.329-7.208-6.6,3.194,3.314.122L138.32,75.828l1.778-.345.774,1.638,5.289-10.443Z" transform="translate(25.948 35.723)"/><path class="l" d="M153.125,59.591,151.8,52.383l-6.6,3.194,3.314.122-5.289,10.443L145,65.8l.774,1.638,5.289-10.443Z" transform="translate(34.494 18.848)"/><path class="l" d="M158.031,49.905,156.7,42.7l-6.6,3.194,3.314.122L148.13,56.457l1.778-.345.774,1.638,5.289-10.443Z" transform="translate(43.04 1.973)"/><path class="l" d="M162.936,40.22l-1.329-7.208-6.6,3.194,3.314.122-5.289,10.443,1.778-.345.774,1.638,5.289-10.443Z" transform="translate(51.586 -14.902)"/><path class="l" d="M115.641,119.18l-1.329-7.208-6.6,3.194,3.314.122-5.289,10.443,1.778-.345.774,1.638,5.289-10.443Z" transform="translate(-30.815 122.668)"/><path class="l" d="M120.546,109.495l-1.329-7.208-6.6,3.194,3.314.122-5.289,10.443,1.778-.345.774,1.638,5.289-10.443Z" transform="translate(-22.269 105.794)"/><path class="l" d="M125.451,99.809,124.122,92.6l-6.6,3.194,3.314.122-5.289,10.443,1.778-.345.774,1.638,5.289-10.443Z" transform="translate(-13.723 88.919)"/><path class="l" d="M130.356,90.123l-1.329-7.208-6.6,3.194,3.314.122-5.289,10.443,1.778-.345.774,1.638L128.3,87.524Z" transform="translate(-5.177 72.044)"/><path class="l" d="M135.261,80.438l-1.329-7.208-6.6,3.194,3.314.122L125.361,86.99l1.778-.345.774,1.638L133.2,77.839Z" transform="translate(3.369 55.169)"/><path class="l" d="M140.166,70.752l-1.329-7.208-6.6,3.194,3.314.122L130.266,77.3l1.778-.345.774,1.638,5.289-10.443Z" transform="translate(11.915 38.294)"/><path class="l" d="M145.071,61.067l-1.329-7.208-6.6,3.194,3.314.122-5.289,10.443,1.778-.345.774,1.638,5.289-10.443Z" transform="translate(20.461 21.419)"/><path class="l" d="M149.976,51.381l-1.329-7.208-6.6,3.194,3.314.122-5.289,10.443,1.778-.345.774,1.638,5.289-10.443Z" transform="translate(29.007 4.544)"/><path class="l" d="M154.881,41.7l-1.329-7.208-6.6,3.194,3.314.122-5.289,10.443,1.778-.345.774,1.638L152.822,39.1Z" transform="translate(37.553 -12.331)"/><path class="l" d="M159.786,32.01,158.458,24.8,151.861,28l3.314.122-5.289,10.443,1.778-.345.774,1.638,5.289-10.443Z" transform="translate(46.099 -29.206)"/><path class="l" d="M107.266,121.554l-1.329-7.208-6.6,3.194,3.314.122-5.289,10.443,1.778-.345.774,1.638,5.289-10.443Z" transform="translate(-45.406 126.804)"/><path class="l" d="M112.171,111.868l-1.329-7.208-6.6,3.194,3.314.122-5.289,10.443,1.778-.345.774,1.638,5.289-10.443Z" transform="translate(-36.86 109.929)"/><path class="l" d="M117.076,102.183l-1.329-7.208-6.6,3.194,3.314.122-5.289,10.443,1.778-.345.774,1.638,5.289-10.443Z" transform="translate(-28.314 93.054)"/><path class="l" d="M121.981,92.5l-1.329-7.208-6.6,3.194,3.314.122-5.289,10.443,1.778-.345.774,1.638L119.921,89.9Z" transform="translate(-19.768 76.179)"/><path class="l" d="M126.886,82.811,125.557,75.6l-6.6,3.194,3.314.122-5.289,10.443,1.778-.345.774,1.638,5.289-10.443Z" transform="translate(-11.222 59.304)"/><path class="l" d="M131.791,73.126l-1.329-7.208-6.6,3.194,3.314.122-5.289,10.443,1.778-.345.774,1.638,5.289-10.443Z" transform="translate(-2.676 42.429)"/><path class="l" d="M136.7,63.44l-1.329-7.208-6.6,3.194,3.314.122L126.8,69.992l1.778-.345.774,1.638,5.289-10.443Z" transform="translate(5.87 25.554)"/><path class="l" d="M141.6,53.755l-1.329-7.208-6.6,3.194,3.314.122L131.7,60.307l1.778-.345.774,1.638,5.289-10.443Z" transform="translate(14.416 8.679)"/><path class="l" d="M146.506,44.069l-1.329-7.208-6.6,3.194,3.314.122-5.289,10.443,1.778-.345.774,1.638,5.289-10.443Z" transform="translate(22.962 -8.195)"/><path class="l" d="M151.412,34.384l-1.329-7.208-6.6,3.194,3.314.122-5.289,10.443,1.778-.345.774,1.638,5.289-10.443Z" transform="translate(31.508 -25.07)"/><path class="l" d="M104.116,113.344l-1.329-7.208-6.6,3.194,3.314.122L94.216,119.9l1.778-.345.774,1.638,5.289-10.443Z" transform="translate(-50.893 112.5)"/><path class="l" d="M109.022,103.658l-1.329-7.208-6.6,3.194,3.314.122L99.121,110.21l1.778-.345.774,1.638,5.289-10.443Z" transform="translate(-42.347 95.625)"/><path class="l" d="M113.927,93.973,112.6,86.765,106,89.959l3.314.122-5.289,10.443,1.778-.345.774,1.638,5.289-10.443Z" transform="translate(-33.801 78.75)"/><path class="l" d="M118.832,84.287,117.5,77.079l-6.6,3.194,3.314.122-5.289,10.443,1.778-.345.774,1.638,5.289-10.443Z" transform="translate(-25.255 61.875)"/><path class="l" d="M123.737,74.6l-1.329-7.208-6.6,3.194,3.314.122-5.289,10.443,1.778-.345.774,1.638L121.677,72Z" transform="translate(-16.709 45.001)"/><path class="l" d="M128.642,64.916l-1.329-7.208-6.6,3.194,3.314.122-5.289,10.443,1.778-.345.774,1.638,5.289-10.443Z" transform="translate(-8.163 28.126)"/><path class="l" d="M133.547,55.231l-1.329-7.208-6.6,3.194,3.314.122-5.289,10.443,1.778-.345.774,1.638,5.289-10.443Z" transform="translate(0.383 11.251)"/><path class="l" d="M138.452,45.545l-1.329-7.208-6.6,3.194,3.314.122L128.552,52.1l1.778-.345.774,1.638,5.289-10.443Z" transform="translate(8.929 -5.624)"/><path class="l" d="M143.357,35.859l-1.329-7.208-6.6,3.194,3.314.122-5.289,10.443,1.778-.345.774,1.638L141.3,33.26Z" transform="translate(17.475 -22.499)"/><path class="l" d="M148.262,26.174l-1.329-7.208-6.6,3.194,3.314.122-5.289,10.443,1.778-.345.774,1.638L146.2,23.575Z" transform="translate(26.021 -39.374)"/><path class="l" d="M95.742,115.717l-1.329-7.208-6.6,3.194,3.314.122-5.289,10.443,1.778-.345.774,1.638,5.289-10.443Z" transform="translate(-65.484 116.636)"/><path class="l" d="M100.647,106.032l-1.329-7.208-6.6,3.194,3.314.122-5.289,10.443,1.778-.345.774,1.638,5.289-10.443Z" transform="translate(-56.938 99.761)"/><path class="l" d="M105.552,96.346l-1.329-7.208-6.6,3.194,3.314.122L95.652,102.9l1.778-.345.774,1.638,5.289-10.443Z" transform="translate(-48.392 82.886)"/><path class="l" d="M110.457,86.661l-1.329-7.208-6.6,3.194,3.314.122-5.289,10.443,1.778-.345.774,1.638L108.4,84.062Z" transform="translate(-39.846 66.011)"/><path class="l" d="M115.362,76.975l-1.329-7.208-6.6,3.194,3.314.122-5.289,10.443,1.778-.345.774,1.638L113.3,74.376Z" transform="translate(-31.3 49.136)"/><path class="l" d="M120.267,67.29l-1.329-7.208-6.6,3.194,3.314.122-5.289,10.443,1.778-.345.774,1.638,5.289-10.443Z" transform="translate(-22.754 32.261)"/><path class="l" d="M125.172,57.6,123.843,50.4l-6.6,3.194,3.314.122-5.289,10.443,1.778-.345.774,1.638,5.289-10.443Z" transform="translate(-14.208 15.386)"/><path class="l" d="M130.077,47.919l-1.329-7.208-6.6,3.194,3.314.122L120.177,54.47l1.778-.345.774,1.638,5.289-10.443Z" transform="translate(-5.662 -1.489)"/><path class="l" d="M134.982,38.233l-1.329-7.208-6.6,3.194,3.314.122-5.289,10.443,1.778-.345.774,1.638,5.289-10.443Z" transform="translate(2.884 -18.364)"/><path class="l" d="M139.887,28.548l-1.329-7.208-6.6,3.194,3.314.122L129.987,35.1l1.778-.345.774,1.638,5.289-10.443Z" transform="translate(11.43 -35.239)"/><path class="l" d="M92.592,107.508,91.264,100.3l-6.6,3.194,3.314.122L82.692,114.06l1.778-.345.774,1.638,5.289-10.443Z" transform="translate(-70.971 102.332)"/><path class="l" d="M97.5,97.822l-1.329-7.208-6.6,3.194,3.314.122L87.6,104.374l1.778-.345.774,1.638,5.289-10.443Z" transform="translate(-62.425 85.457)"/><path class="l" d="M102.4,88.137l-1.329-7.208-6.6,3.194,3.314.122L92.5,94.688l1.778-.345.774,1.638,5.289-10.443Z" transform="translate(-53.879 68.582)"/><path class="l" d="M107.308,78.451l-1.329-7.208-6.6,3.194,3.314.122L97.407,85l1.778-.345.774,1.638,5.289-10.443Z" transform="translate(-45.333 51.707)"/><path class="l" d="M112.213,68.766l-1.329-7.208-6.6,3.194,3.314.122-5.289,10.443,1.778-.345.774,1.638,5.289-10.443Z" transform="translate(-36.787 34.832)"/><path class="l" d="M117.118,59.08l-1.329-7.208-6.6,3.194,3.314.122-5.289,10.443L109,65.286l.774,1.638,5.289-10.443Z" transform="translate(-28.241 17.957)"/><path class="l" d="M122.023,49.394l-1.329-7.208-6.6,3.194,3.314.122-5.289,10.443L113.9,55.6l.774,1.638L119.963,46.8Z" transform="translate(-19.695 1.082)"/><path class="l" d="M126.928,39.709,125.6,32.5,119,35.7l3.314.122-5.289,10.443,1.778-.345.774,1.638,5.289-10.443Z" transform="translate(-11.149 -15.792)"/><path class="l" d="M131.833,30.023,130.5,22.815l-6.6,3.194,3.314.122-5.289,10.443,1.778-.345.774,1.638,5.289-10.443Z" transform="translate(-2.603 -32.667)"/><path class="l" d="M136.738,20.338l-1.329-7.208-6.6,3.194,3.314.122L126.838,26.89l1.778-.345.774,1.638,5.289-10.443Z" transform="translate(5.943 -49.542)"/><path class="l" d="M84.218,109.881l-1.329-7.208-6.6,3.194,3.314.122-5.289,10.443,1.778-.345.774,1.638,5.289-10.443Z" transform="translate(-85.563 106.467)"/><path class="l" d="M89.123,100.2l-1.329-7.208-6.6,3.194,3.314.122-5.289,10.443L81,106.4l.774,1.638L87.063,97.6Z" transform="translate(-77.017 89.593)"/><path class="l" d="M94.028,90.51,92.7,83.3,86.1,86.5l3.314.122L84.127,97.062l1.778-.345.774,1.638,5.289-10.443Z" transform="translate(-68.47 72.718)"/><path class="l" d="M98.933,80.825,97.6,73.617l-6.6,3.194,3.314.122L89.033,87.376l1.778-.345.774,1.638,5.289-10.443Z" transform="translate(-59.924 55.843)"/><path class="l" d="M103.838,71.139l-1.329-7.208-6.6,3.194,3.314.122L93.938,77.691l1.778-.345.774,1.638,5.289-10.443Z" transform="translate(-51.378 38.968)"/><path class="l" d="M108.743,61.454l-1.329-7.208-6.6,3.194,3.314.122L98.843,68.005l1.778-.345.774,1.638,5.289-10.443Z" transform="translate(-42.832 22.093)"/><path class="l" d="M113.648,51.768l-1.329-7.208-6.6,3.194,3.314.122L103.748,58.32l1.778-.345.774,1.638,5.289-10.443Z" transform="translate(-34.286 5.218)"/><path class="l" d="M118.553,42.082l-1.329-7.208-6.6,3.194,3.314.122-5.289,10.443,1.778-.345.774,1.638,5.289-10.443Z" transform="translate(-25.74 -11.657)"/><path class="l" d="M123.458,32.4l-1.329-7.208-6.6,3.194,3.314.122-5.289,10.443,1.778-.345.774,1.638L121.4,29.8Z" transform="translate(-17.194 -28.532)"/><path class="l" d="M128.363,22.711,127.035,15.5l-6.6,3.194,3.314.122-5.289,10.443,1.778-.345.774,1.638L126.3,20.112Z" transform="translate(-8.648 -45.407)"/><path class="l" d="M81.068,101.672,79.74,94.464l-6.6,3.194,3.314.122-5.289,10.443,1.778-.345.774,1.638,5.289-10.443Z" transform="translate(-91.049 92.164)"/><path class="l" d="M85.973,91.986l-1.329-7.208-6.6,3.194,3.314.122L76.073,98.538l1.778-.345.774,1.638,5.289-10.443Z" transform="translate(-82.503 75.289)"/><path class="l" d="M90.879,82.3,89.55,75.093l-6.6,3.194,3.314.122L80.978,88.852l1.778-.345.774,1.638L88.819,79.7Z" transform="translate(-73.957 58.414)"/><path class="l" d="M95.784,72.615l-1.329-7.208-6.6,3.194,3.314.122L85.883,79.167l1.778-.345.774,1.638,5.289-10.443Z" transform="translate(-65.411 41.539)"/><path class="l" d="M100.689,62.929,99.36,55.721l-6.6,3.194,3.314.122L90.788,69.481l1.778-.345.774,1.638L98.629,60.33Z" transform="translate(-56.865 24.664)"/><path class="l" d="M105.594,53.244l-1.329-7.208-6.6,3.194,3.314.122L95.694,59.8l1.778-.345.774,1.638,5.289-10.443Z" transform="translate(-48.319 7.789)"/><path class="l" d="M110.5,43.558,109.17,36.35l-6.6,3.194,3.314.122L100.6,50.11l1.778-.345.774,1.638,5.289-10.443Z" transform="translate(-39.773 -9.086)"/><path class="l" d="M115.4,33.873l-1.329-7.208-6.6,3.194,3.314.122L105.5,40.424l1.778-.345.774,1.638,5.289-10.443Z" transform="translate(-31.227 -25.961)"/><path class="l" d="M120.309,24.187l-1.329-7.208-6.6,3.194,3.314.122-5.289,10.443,1.778-.345.774,1.638,5.289-10.443Z" transform="translate(-22.681 -42.836)"/><path class="l" d="M125.214,14.5l-1.329-7.208-6.6,3.194,3.314.122-5.289,10.443,1.778-.345.774,1.638L123.155,11.9Z" transform="translate(-14.135 -59.71)"/><path class="l" d="M72.694,104.045l-1.329-7.208-6.6,3.194,3.314.122L62.793,110.6l1.778-.345.774,1.638,5.289-10.443Z" transform="translate(-105.641 96.299)"/><path class="l" d="M77.6,94.36,76.27,87.152l-6.6,3.194,3.314.122L67.7,100.911l1.778-.345.774,1.638L75.539,91.76Z" transform="translate(-97.095 79.424)"/><path class="l" d="M82.5,84.674l-1.329-7.208-6.6,3.194,3.314.122L72.6,91.226l1.778-.345.774,1.638,5.289-10.443Z" transform="translate(-88.549 62.549)"/><path class="l" d="M87.409,74.988,86.08,67.781l-6.6,3.194L82.8,71.1,77.509,81.54l1.778-.345.774,1.638,5.289-10.443Z" transform="translate(-80.003 45.674)"/><path class="l" d="M92.314,65.3,90.985,58.1l-6.6,3.194,3.314.122L82.414,71.855l1.778-.345.774,1.638L90.254,62.7Z" transform="translate(-71.457 28.8)"/><path class="l" d="M97.219,55.617,95.89,48.409l-6.6,3.194,3.314.122L87.319,62.169l1.778-.345.774,1.638,5.289-10.443Z" transform="translate(-62.911 11.925)"/><path class="l" d="M102.124,45.932,100.8,38.724l-6.6,3.194,3.314.122L92.224,52.484,94,52.138l.774,1.638,5.289-10.443Z" transform="translate(-54.364 -4.95)"/><path class="l" d="M107.029,36.246,105.7,29.038l-6.6,3.194,3.314.122L97.129,42.8l1.778-.345.774,1.638,5.289-10.443Z" transform="translate(-45.818 -21.825)"/><path class="l" d="M111.934,26.561l-1.329-7.208-6.6,3.194,3.314.122-5.289,10.443,1.778-.345.774,1.638,5.289-10.443Z" transform="translate(-37.272 -38.7)"/><path class="l" d="M116.839,16.875l-1.329-7.208-6.6,3.194,3.314.122-5.289,10.443,1.778-.345.774,1.638,5.289-10.443Z" transform="translate(-28.726 -55.575)"/></g></g><path class="h" d="M119.132,44.29s-4.113,2.227-3.943,9.425,1.944,11.257,7.884,12c6.8.85,15.082-3.6,14.57-16.8S122.411,39.725,119.132,44.29Z" transform="translate(48.529 -2.83)"/><path class="f" d="M139.719,40.084s-4.113,16.4-26.479,20.1c-5.6.927-6.107-8.784,3.921-10.253,9.617-1.41,11.526-8.4,16.215-9.4S139.719,40.084,139.719,40.084Z" transform="translate(38.225 -2.857)"/><path class="f" d="M121.767,40.009s-3.033,2.26.51,5.2a16.081,16.081,0,0,1,5.528,9.675c-.03.5,3.779-5.057,1.218-9.162C125.2,39.6,121.767,40.009,121.767,40.009Z" transform="translate(57.894 -2.722)"/><path class="c" d="M133.222,42.1l-2.312-3.9a1.606,1.606,0,0,0-2.172-.579L124.8,39.851a1.609,1.609,0,0,1-2.018-.365h0c-1.826-2.166-3.557-3.047-3.847-1.952l-.724,2.7L116.75,45.7h0a1.608,1.608,0,0,0,1.138,1.966l17.43,4.651a1.606,1.606,0,0,0,1.966-1.138h0l1.456-5.457.721-2.7c.293-1.094-1.645-1.2-4.308-.225h0A1.608,1.608,0,0,1,133.222,42.1Z" transform="translate(51.163 -7.843)"/><line class="m" x1="1.563" y2="6.056" transform="translate(61.454 254.786)"/><line class="m" x1="1.814" y2="6.787" transform="translate(58.612 255.815)"/><path class="i" d="M110.766,125.977c4.629-3.252,9.439-6.924,14.287-11.062a84.859,84.859,0,0,0,8.723-8.794C125.1,102.77,115.354,115.625,110.766,125.977Z" transform="translate(40.833 111.528)"/><path class="j" d="M83.262,123.71s2.361,9.782,12.645,4.124" transform="translate(-7.087 143.119)"/></g><g transform="translate(78.149 24.944)"><path class="j" d="M150.919,89.152S136.1,126.047,122.676,146.5" transform="translate(78.502 86.924)"/><path class="j" d="M157.207,24.944s9.307,27.376-11.147,85.238" transform="translate(119.244 -24.944)"/><path class="j" d="M155.059,49.183s-3.2,12.645-7.766,26.7" transform="translate(121.392 17.287)"/><line class="j" x1="50.725" y2="80.975" transform="translate(0 236.81)"/><line class="j" x1="60.112" y2="101.036" transform="translate(27.594 193.9)"/><path class="j" d="M126.444,107.99c-2.068,5.353-3.93,10.152-5.383,13.876-7.9,20.219-29.828,62.5-29.828,62.5" transform="translate(23.72 119.745)"/><path class="j" d="M120.947,90.341s-6,13.278-14.775,33.472" transform="translate(49.748 88.996)"/><line class="j" x1="6.399" y2="18.51" transform="translate(256.621 92.436)"/><path class="j" d="M84.5,67.819s-11.8,19.2-7.042,38.619" transform="translate(-2.246 49.756)"/><path class="j" d="M79.714,69.069a34.67,34.67,0,0,0-4.747,14.109" transform="translate(-4.62 51.934)"/><line class="j" x1="12.185" y2="24.448" transform="translate(73.844 232.292)"/><line class="j" x1="6.513" y2="11.975" transform="translate(65.204 260.629)"/></g></g></svg>