<svg xmlns="http://www.w3.org/2000/svg" width="33.67" height="33.666" viewBox="0 0 33.67 33.666"><defs><style>.a{fill:#8057a7;}</style></defs><path class="a" d="M20.878,15,13.886,9.919a.843.843,0,0,0-1.339.68V20.761a.84.84,0,0,0,.461.752.849.849,0,0,0,.383.091.838.838,0,0,0,.5-.164l6.992-5.078a.836.836,0,0,0,0-1.36Z" transform="translate(1.511 1.173)"/><path class="a" d="M16.836,0A16.833,16.833,0,1,0,33.67,16.838,16.834,16.834,0,0,0,16.836,0Zm0,30.857A14.023,14.023,0,1,1,30.857,16.838,14.021,14.021,0,0,1,16.836,30.859Z" transform="translate(0 -0.002)"/></svg>